<?xml version="1.0" standalone="no"?>
 <!DOCTYPE svg PUBLIC "-//W3C//DTD SVG 1.1//EN" 
 "http://www.w3.org/Graphics/SVG/1.1/DTD/svg11.dtd"> 
<svg xmlns="http://www.w3.org/2000/svg" version="1.1" 
    width="29.7002cm" height="21.0007cm" viewBox="0 0 116930 82680 ">
<title>SVG Picture created as ADC-Cmts_User.svg date 2014/06/08 14:55:55 </title>
  <desc>Picture generated by PCBNEW </desc>
<g style="fill:#000000; fill-opacity:1;stroke:#000000; stroke-opacity:1;
stroke-linecap:round; stroke-linejoin:round; "
 transform="translate(0 0) scale(1 1)">
</g>
<g style="fill:#000000; fill-opacity:0.0; 
stroke:#000000; stroke-width:59.0551; stroke-opacity:1; 
stroke-linecap:round; stroke-linejoin:round;">
<rect x="69685.9" y="65357.2" width="42519.7" height="12598.4" rx="0" />
<rect x="3937.01" y="3937.01" width="109056" height="74806" rx="0" />
<rect x="4724.41" y="4724.41" width="107481" height="73231.2" rx="0" />
<path d="M23622 4724
L23622 3937
" />
<path d="M43307 4724
L43307 3937
" />
<path d="M62992 4724
L62992 3937
" />
<path d="M82677 4724
L82677 3937
" />
<path d="M102362 4724
L102362 3937
" />
<path d="M14169 4562
L13877 4562
" />
<path d="M14023 4562
L14023 4050
L13974 4123
L13925 4172
L13877 4196
" />
<path d="M33562 4099
L33586 4074
L33635 4050
L33757 4050
L33805 4074
L33830 4099
L33854 4147
L33854 4196
L33830 4269
L33537 4562
L33854 4562
" />
<path d="M53222 4050
L53539 4050
L53368 4245
L53442 4245
L53490 4269
L53515 4294
L53539 4342
L53539 4464
L53515 4513
L53490 4537
L53442 4562
L53295 4562
L53247 4537
L53222 4513
" />
<path d="M73175 4221
L73175 4562
" />
<path d="M73053 4026
L72932 4391
L73248 4391
" />
<path d="M92885 4050
L92641 4050
L92617 4294
L92641 4269
L92690 4245
L92812 4245
L92860 4269
L92885 4294
L92909 4342
L92909 4464
L92885 4513
L92860 4537
L92812 4562
L92690 4562
L92641 4537
L92617 4513
" />
<path d="M112545 4050
L112448 4050
L112399 4074
L112375 4099
L112326 4172
L112302 4269
L112302 4464
L112326 4513
L112350 4537
L112399 4562
L112497 4562
L112545 4537
L112570 4513
L112594 4464
L112594 4342
L112570 4294
L112545 4269
L112497 4245
L112399 4245
L112350 4269
L112326 4294
L112302 4342
" />
<path d="M23622 77955
L23622 78742
" />
<path d="M43307 77955
L43307 78742
" />
<path d="M62992 77955
L62992 78742
" />
<path d="M82677 77955
L82677 78742
" />
<path d="M102362 77955
L102362 78742
" />
<path d="M14169 78580
L13877 78580
" />
<path d="M14023 78580
L14023 78069
L13974 78142
L13925 78190
L13877 78215
" />
<path d="M33562 78117
L33586 78093
L33635 78069
L33757 78069
L33805 78093
L33830 78117
L33854 78166
L33854 78215
L33830 78288
L33537 78580
L33854 78580
" />
<path d="M53222 78069
L53539 78069
L53368 78263
L53442 78263
L53490 78288
L53515 78312
L53539 78361
L53539 78483
L53515 78532
L53490 78556
L53442 78580
L53295 78580
L53247 78556
L53222 78532
" />
<path d="M73175 78239
L73175 78580
" />
<path d="M73053 78044
L72932 78410
L73248 78410
" />
<path d="M92885 78069
L92641 78069
L92617 78312
L92641 78288
L92690 78263
L92812 78263
L92860 78288
L92885 78312
L92909 78361
L92909 78483
L92885 78532
L92860 78556
L92812 78580
L92690 78580
L92641 78556
L92617 78532
" />
<path d="M112545 78069
L112448 78069
L112399 78093
L112375 78117
L112326 78190
L112302 78288
L112302 78483
L112326 78532
L112350 78556
L112399 78580
L112497 78580
L112545 78556
L112570 78532
L112594 78483
L112594 78361
L112570 78312
L112545 78288
L112497 78263
L112399 78263
L112350 78288
L112326 78312
L112302 78361
" />
<path d="M3937 23622
L4724 23622
" />
<path d="M3937 43307
L4724 43307
" />
<path d="M3937 62992
L4724 62992
" />
<path d="M4208 13864
L4452 13864
" />
<path d="M4160 14011
L4330 13499
L4501 14011
" />
<path d="M4367 33428
L4440 33452
L4464 33476
L4489 33525
L4489 33598
L4464 33647
L4440 33671
L4391 33696
L4196 33696
L4196 33184
L4367 33184
L4416 33208
L4440 33233
L4464 33281
L4464 33330
L4440 33379
L4416 33403
L4367 33428
L4196 33428
" />
<path d="M4489 53332
L4464 53356
L4391 53381
L4342 53381
L4269 53356
L4221 53308
L4196 53259
L4172 53161
L4172 53088
L4196 52991
L4221 52942
L4269 52893
L4342 52869
L4391 52869
L4464 52893
L4489 52918
" />
<path d="M4196 73066
L4196 72554
L4318 72554
L4391 72578
L4440 72627
L4464 72676
L4489 72773
L4489 72846
L4464 72944
L4440 72993
L4391 73041
L4318 73066
L4196 73066
" />
<path d="M112992 23622
L112205 23622
" />
<path d="M112992 43307
L112205 43307
" />
<path d="M112992 62992
L112205 62992
" />
<path d="M112477 13864
L112721 13864
" />
<path d="M112428 14011
L112599 13499
L112769 14011
" />
<path d="M112635 33428
L112708 33452
L112733 33476
L112757 33525
L112757 33598
L112733 33647
L112708 33671
L112660 33696
L112465 33696
L112465 33184
L112635 33184
L112684 33208
L112708 33233
L112733 33281
L112733 33330
L112708 33379
L112684 33403
L112635 33428
L112465 33428
" />
<path d="M112757 53332
L112733 53356
L112660 53381
L112611 53381
L112538 53356
L112489 53308
L112465 53259
L112440 53161
L112440 53088
L112465 52991
L112489 52942
L112538 52893
L112611 52869
L112660 52869
L112733 52893
L112757 52918
" />
<path d="M112465 73066
L112465 72554
L112587 72554
L112660 72578
L112708 72627
L112733 72676
L112757 72773
L112757 72846
L112733 72944
L112708 72993
L112660 73041
L112587 73066
L112465 73066
" />
<path d="M78881 76293
L78881 75703
L79022 75703
L79106 75731
L79162 75787
L79190 75843
L79219 75956
L79219 76040
L79190 76153
L79162 76209
L79106 76265
L79022 76293
L78881 76293
" />
<path d="M79725 76293
L79725 75984
L79697 75928
L79640 75899
L79528 75899
L79472 75928
" />
<path d="M79725 76265
L79669 76293
L79528 76293
L79472 76265
L79444 76209
L79444 76153
L79472 76096
L79528 76068
L79669 76068
L79725 76040
" />
<path d="M79922 75899
L80147 75899
" />
<path d="M80006 75703
L80006 76209
L80034 76265
L80090 76293
L80147 76293
" />
<path d="M80568 76265
L80512 76293
L80400 76293
L80343 76265
L80315 76209
L80315 75984
L80343 75928
L80400 75899
L80512 75899
L80568 75928
L80597 75984
L80597 76040
L80315 76096
" />
<path d="M80850 76237
L80878 76265
L80850 76293
L80822 76265
L80850 76237
L80850 76293
" />
<path d="M80850 75928
L80878 75956
L80850 75984
L80822 75956
L80850 75928
L80850 75984
" />
<path d="M69685 76577
L112205 76577
" />
<path d="M70220 77395
L70220 76805
" />
<path d="M70557 77395
L70304 77058
" />
<path d="M70557 76805
L70220 77142
" />
<path d="M70810 77395
L70810 77002
" />
<path d="M70810 76805
L70782 76833
L70810 76861
L70838 76833
L70810 76805
L70810 76861
" />
<path d="M71429 77339
L71401 77367
L71316 77395
L71260 77395
L71176 77367
L71120 77311
L71091 77255
L71063 77142
L71063 77058
L71091 76946
L71120 76889
L71176 76833
L71260 76805
L71316 76805
L71401 76833
L71429 76861
" />
<path d="M71935 77395
L71935 77086
L71907 77030
L71851 77002
L71738 77002
L71682 77030
" />
<path d="M71935 77367
L71879 77395
L71738 77395
L71682 77367
L71654 77311
L71654 77255
L71682 77199
L71738 77171
L71879 77171
L71935 77142
" />
<path d="M72469 77395
L72469 76805
" />
<path d="M72469 77367
L72413 77395
L72301 77395
L72244 77367
L72216 77339
L72188 77283
L72188 77114
L72216 77058
L72244 77030
L72301 77002
L72413 77002
L72469 77030
" />
<path d="M73201 77086
L73397 77086
" />
<path d="M73482 77395
L73201 77395
L73201 76805
L73482 76805
" />
<path d="M73735 77339
L73763 77367
L73735 77395
L73707 77367
L73735 77339
L73735 77395
" />
<path d="M74016 77395
L74016 76805
L74157 76805
L74241 76833
L74297 76889
L74325 76946
L74354 77058
L74354 77142
L74325 77255
L74297 77311
L74241 77367
L74157 77395
L74016 77395
" />
<path d="M74607 77339
L74635 77367
L74607 77395
L74579 77367
L74607 77339
L74607 77395
" />
<path d="M74860 77227
L75141 77227
" />
<path d="M74804 77395
L75000 76805
L75197 77395
" />
<path d="M75394 77339
L75422 77367
L75394 77395
L75366 77367
L75394 77339
L75394 77395
" />
<path d="M76575 77002
L76575 77592
" />
<path d="M76575 77030
L76631 77002
L76744 77002
L76800 77030
L76828 77058
L76856 77114
L76856 77283
L76828 77339
L76800 77367
L76744 77395
L76631 77395
L76575 77367
" />
<path d="M77363 77367
L77306 77395
L77194 77395
L77138 77367
L77109 77339
L77081 77283
L77081 77114
L77109 77058
L77138 77030
L77194 77002
L77306 77002
L77363 77030
" />
<path d="M77616 77395
L77616 76805
" />
<path d="M77616 77030
L77672 77002
L77784 77002
L77841 77030
L77869 77058
L77897 77114
L77897 77283
L77869 77339
L77841 77367
L77784 77395
L77672 77395
L77616 77367
" />
<path d="M78150 77002
L78150 77395
" />
<path d="M78150 77058
L78178 77030
L78234 77002
L78319 77002
L78375 77030
L78403 77086
L78403 77395
" />
<path d="M78909 77367
L78853 77395
L78741 77395
L78684 77367
L78656 77311
L78656 77086
L78684 77030
L78741 77002
L78853 77002
L78909 77030
L78937 77086
L78937 77142
L78656 77199
" />
<path d="M79134 77002
L79247 77395
L79359 77114
L79472 77395
L79584 77002
" />
<path d="M80428 77620
L80400 77592
L80343 77508
L80315 77452
L80287 77367
L80259 77227
L80259 77114
L80287 76974
L80315 76889
L80343 76833
L80400 76749
L80428 76721
" />
<path d="M80625 76861
L80653 76833
L80709 76805
L80850 76805
L80906 76833
L80934 76861
L80962 76917
L80962 76974
L80934 77058
L80597 77395
L80962 77395
" />
<path d="M81328 76805
L81384 76805
L81440 76833
L81468 76861
L81496 76917
L81525 77030
L81525 77171
L81496 77283
L81468 77339
L81440 77367
L81384 77395
L81328 77395
L81271 77367
L81243 77339
L81215 77283
L81187 77171
L81187 77030
L81215 76917
L81243 76861
L81271 76833
L81328 76805
" />
<path d="M82087 77395
L81750 77395
" />
<path d="M81918 77395
L81918 76805
L81862 76889
L81806 76946
L81750 76974
" />
<path d="M82593 77002
L82593 77395
" />
<path d="M82453 76777
L82312 77199
L82678 77199
" />
<path d="M82903 77171
L83352 77171
" />
<path d="M83746 76805
L83802 76805
L83859 76833
L83887 76861
L83915 76917
L83943 77030
L83943 77171
L83915 77283
L83887 77339
L83859 77367
L83802 77395
L83746 77395
L83690 77367
L83662 77339
L83634 77283
L83606 77171
L83606 77030
L83634 76917
L83662 76861
L83690 76833
L83746 76805
" />
<path d="M84140 76805
L84505 76805
L84309 77030
L84393 77030
L84449 77058
L84477 77086
L84505 77142
L84505 77283
L84477 77339
L84449 77367
L84393 77395
L84224 77395
L84168 77367
L84140 77339
" />
<path d="M84759 77171
L85208 77171
" />
<path d="M85799 77395
L85462 77395
" />
<path d="M85630 77395
L85630 76805
L85574 76889
L85518 76946
L85462 76974
" />
<path d="M86080 77395
L86193 77395
L86249 77367
L86277 77339
L86333 77255
L86361 77142
L86361 76917
L86333 76861
L86305 76833
L86249 76805
L86136 76805
L86080 76833
L86052 76861
L86024 76917
L86024 77058
L86052 77114
L86080 77142
L86136 77171
L86249 77171
L86305 77142
L86333 77114
L86361 77058
" />
<path d="M87261 77086
L87346 77114
L87374 77142
L87402 77199
L87402 77283
L87374 77339
L87346 77367
L87289 77395
L87064 77395
L87064 76805
L87261 76805
L87318 76833
L87346 76861
L87374 76917
L87374 76974
L87346 77030
L87318 77058
L87261 77086
L87064 77086
" />
<path d="M87599 76805
L87992 76805
L87599 77395
L87992 77395
" />
<path d="M88555 77395
L88358 77114
" />
<path d="M88217 77395
L88217 76805
L88442 76805
L88499 76833
L88527 76861
L88555 76917
L88555 77002
L88527 77058
L88499 77086
L88442 77114
L88217 77114
" />
<path d="M89511 77002
L89511 77395
" />
<path d="M89370 76777
L89230 77199
L89595 77199
" />
<path d="M89764 76805
L90158 76805
L89905 77395
" />
<path d="M90664 76805
L90383 76805
L90355 77086
L90383 77058
L90439 77030
L90580 77030
L90636 77058
L90664 77086
L90692 77142
L90692 77283
L90664 77339
L90636 77367
L90580 77395
L90439 77395
L90383 77367
L90355 77339
" />
<path d="M91198 76805
L91086 76805
L91030 76833
L91001 76861
L90945 76946
L90917 77058
L90917 77283
L90945 77339
L90973 77367
L91030 77395
L91142 77395
L91198 77367
L91226 77339
L91255 77283
L91255 77142
L91226 77086
L91198 77058
L91142 77030
L91030 77030
L90973 77058
L90945 77086
L90917 77142
" />
<path d="M91451 77620
L91480 77592
L91536 77508
L91564 77452
L91592 77367
L91620 77227
L91620 77114
L91592 76974
L91564 76889
L91536 76833
L91480 76749
L91451 76721
" />
<path d="M91901 77171
L92351 77171
" />
<path d="M92633 77002
L92633 77592
" />
<path d="M92633 77030
L92689 77002
L92801 77002
L92858 77030
L92886 77058
L92914 77114
L92914 77283
L92886 77339
L92858 77367
L92801 77395
L92689 77395
L92633 77367
" />
<path d="M93167 77395
L93167 77002
" />
<path d="M93167 77114
L93195 77058
L93223 77030
L93279 77002
L93336 77002
" />
<path d="M93617 77395
L93561 77367
L93532 77339
L93504 77283
L93504 77114
L93532 77058
L93561 77030
L93617 77002
L93701 77002
L93757 77030
L93786 77058
L93814 77114
L93814 77283
L93786 77339
L93757 77367
L93701 77395
L93617 77395
" />
<path d="M94320 77395
L94320 76805
" />
<path d="M94320 77367
L94264 77395
L94151 77395
L94095 77367
L94067 77339
L94039 77283
L94039 77114
L94067 77058
L94095 77030
L94151 77002
L94264 77002
L94320 77030
" />
<path d="M94854 77002
L94854 77395
" />
<path d="M94601 77002
L94601 77311
L94629 77367
L94685 77395
L94770 77395
L94826 77367
L94854 77339
" />
<path d="M95388 77367
L95332 77395
L95220 77395
L95163 77367
L95135 77339
L95107 77283
L95107 77114
L95135 77058
L95163 77030
L95220 77002
L95332 77002
L95388 77030
" />
<path d="M95557 77002
L95782 77002
" />
<path d="M95642 76805
L95642 77311
L95670 77367
L95726 77395
L95782 77395
" />
<path d="M69685 75396
L112205 75396
" />
</g>
<g style="fill:#000000; fill-opacity:0.0; 
stroke:#000000; stroke-width:118.11; stroke-opacity:1; 
stroke-linecap:round; stroke-linejoin:round;">
<path d="M104022 76293
L103825 76012
" />
<path d="M103684 76293
L103684 75703
L103909 75703
L103965 75731
L103994 75759
L104022 75815
L104022 75899
L103994 75956
L103965 75984
L103909 76012
L103684 76012
" />
<path d="M104500 76265
L104444 76293
L104331 76293
L104275 76265
L104247 76209
L104247 75984
L104275 75928
L104331 75899
L104444 75899
L104500 75928
L104528 75984
L104528 76040
L104247 76096
" />
<path d="M104725 75899
L104865 76293
L105006 75899
" />
<path d="M105231 76237
L105259 76265
L105231 76293
L105203 76265
L105231 76237
L105231 76293
" />
<path d="M105231 75928
L105259 75956
L105231 75984
L105203 75956
L105231 75928
L105231 75984
" />
</g>
<g style="fill:#000000; fill-opacity:0.0; 
stroke:#000000; stroke-width:59.0551; stroke-opacity:1; 
stroke-linecap:round; stroke-linejoin:round;">
<path d="M70192 76265
L70276 76293
L70417 76293
L70473 76265
L70501 76237
L70529 76181
L70529 76124
L70501 76068
L70473 76040
L70417 76012
L70304 75984
L70248 75956
L70220 75928
L70192 75871
L70192 75815
L70220 75759
L70248 75731
L70304 75703
L70445 75703
L70529 75731
" />
<path d="M70782 76293
L70782 75899
" />
<path d="M70782 75703
L70754 75731
L70782 75759
L70810 75731
L70782 75703
L70782 75759
" />
<path d="M71007 75899
L71316 75899
L71007 76293
L71316 76293
" />
<path d="M71766 76265
L71710 76293
L71598 76293
L71541 76265
L71513 76209
L71513 75984
L71541 75928
L71598 75899
L71710 75899
L71766 75928
L71795 75984
L71795 76040
L71513 76096
" />
<path d="M72048 76237
L72076 76265
L72048 76293
L72019 76265
L72048 76237
L72048 76293
" />
<path d="M72048 75928
L72076 75956
L72048 75984
L72019 75956
L72048 75928
L72048 75984
" />
<path d="M72751 76124
L73032 76124
" />
<path d="M72694 76293
L72891 75703
L73088 76293
" />
<path d="M73538 75899
L73538 76293
" />
<path d="M73397 75674
L73257 76096
L73622 76096
" />
<path d="M103684 77395
L103684 76805
" />
<path d="M104219 77395
L104219 76805
" />
<path d="M104219 77367
L104162 77395
L104050 77395
L103994 77367
L103965 77339
L103937 77283
L103937 77114
L103965 77058
L103994 77030
L104050 77002
L104162 77002
L104219 77030
" />
<path d="M104500 77339
L104528 77367
L104500 77395
L104472 77367
L104500 77339
L104500 77395
" />
<path d="M104500 77030
L104528 77058
L104500 77086
L104472 77058
L104500 77030
L104500 77086
" />
<path d="M105540 77395
L105203 77395
" />
<path d="M105372 77395
L105372 76805
L105315 76889
L105259 76946
L105203 76974
" />
<path d="M106215 76777
L105709 77536
" />
<path d="M106721 77395
L106384 77395
" />
<path d="M106553 77395
L106553 76805
L106496 76889
L106440 76946
L106384 76974
" />
<path d="M69685 73821
L112205 73821
" />
</g>
<g style="fill:#000000; fill-opacity:0.0; 
stroke:#000000; stroke-width:157.48; stroke-opacity:1; 
stroke-linecap:round; stroke-linejoin:round;">
<path d="M70257 74099
L70707 74099
" />
<path d="M70384 74886
L70482 74099
" />
<path d="M70871 74886
L70937 74361
" />
<path d="M70970 74099
L70927 74136
L70960 74174
L71002 74136
L70970 74099
L70960 74174
" />
<path d="M71199 74361
L71499 74361
" />
<path d="M71345 74099
L71260 74774
L71288 74849
L71359 74886
L71434 74886
" />
<path d="M71809 74886
L71738 74849
L71710 74774
L71795 74099
" />
<path d="M72413 74849
L72334 74886
L72184 74886
L72113 74849
L72085 74774
L72123 74474
L72169 74399
L72249 74361
L72399 74361
L72469 74399
L72498 74474
L72488 74549
L72104 74624
" />
<path d="M72793 74811
L72826 74849
L72783 74886
L72751 74849
L72793 74811
L72783 74886
" />
<path d="M72844 74399
L72877 74436
L72835 74474
L72802 74436
L72844 74399
L72835 74474
" />
</g>
<g style="fill:#000000; fill-opacity:0.0; 
stroke:#000000; stroke-width:59.0551; stroke-opacity:1; 
stroke-linecap:round; stroke-linejoin:round;">
<path d="M70417 73070
L70220 73070
" />
<path d="M70220 73380
L70220 72789
L70501 72789
" />
<path d="M70726 73380
L70726 72986
" />
<path d="M70726 72789
L70698 72817
L70726 72845
L70754 72817
L70726 72789
L70726 72845
" />
<path d="M71091 73380
L71035 73352
L71007 73295
L71007 72789
" />
<path d="M71541 73352
L71485 73380
L71373 73380
L71316 73352
L71288 73295
L71288 73070
L71316 73014
L71373 72986
L71485 72986
L71541 73014
L71570 73070
L71570 73127
L71288 73183
" />
<path d="M71823 73323
L71851 73352
L71823 73380
L71795 73352
L71823 73323
L71823 73380
" />
<path d="M71823 73014
L71851 73042
L71823 73070
L71795 73042
L71823 73014
L71823 73070
" />
<path d="M72526 73211
L72807 73211
" />
<path d="M72469 73380
L72666 72789
L72863 73380
" />
<path d="M73060 73380
L73060 72789
L73201 72789
L73285 72817
L73341 72874
L73369 72930
L73397 73042
L73397 73127
L73369 73239
L73341 73295
L73285 73352
L73201 73380
L73060 73380
" />
<path d="M73988 73323
L73960 73352
L73876 73380
L73819 73380
L73735 73352
L73679 73295
L73651 73239
L73622 73127
L73622 73042
L73651 72930
L73679 72874
L73735 72817
L73819 72789
L73876 72789
L73960 72817
L73988 72845
" />
<path d="M74241 73323
L74269 73352
L74241 73380
L74213 73352
L74241 73323
L74241 73380
" />
<path d="M74522 73380
L74522 72789
" />
<path d="M74579 73155
L74747 73380
" />
<path d="M74747 72986
L74522 73211
" />
<path d="M75000 73380
L75000 72986
" />
<path d="M75000 72789
L74972 72817
L75000 72845
L75028 72817
L75000 72789
L75000 72845
" />
<path d="M75535 73352
L75478 73380
L75366 73380
L75310 73352
L75282 73323
L75253 73267
L75253 73099
L75282 73042
L75310 73014
L75366 72986
L75478 72986
L75535 73014
" />
<path d="M76041 73380
L76041 73070
L76013 73014
L75956 72986
L75844 72986
L75788 73014
" />
<path d="M76041 73352
L75985 73380
L75844 73380
L75788 73352
L75760 73295
L75760 73239
L75788 73183
L75844 73155
L75985 73155
L76041 73127
" />
<path d="M76575 73380
L76575 72789
" />
<path d="M76575 73352
L76519 73380
L76406 73380
L76350 73352
L76322 73323
L76294 73267
L76294 73099
L76322 73042
L76350 73014
L76406 72986
L76519 72986
L76575 73014
" />
<path d="M76716 73436
L77166 73436
" />
<path d="M77306 72986
L77306 73577
" />
<path d="M77306 73014
L77363 72986
L77475 72986
L77531 73014
L77559 73042
L77588 73099
L77588 73267
L77559 73323
L77531 73352
L77475 73380
L77363 73380
L77306 73352
" />
<path d="M78094 73352
L78037 73380
L77925 73380
L77869 73352
L77841 73323
L77813 73267
L77813 73099
L77841 73042
L77869 73014
L77925 72986
L78037 72986
L78094 73014
" />
<path d="M78347 73380
L78347 72789
" />
<path d="M78347 73014
L78403 72986
L78516 72986
L78572 73014
L78600 73042
L78628 73099
L78628 73267
L78600 73323
L78572 73352
L78516 73380
L78403 73380
L78347 73352
" />
<path d="M69685 71459
L112205 71459
" />
<path d="M70192 72289
L70276 72317
L70417 72317
L70473 72289
L70501 72260
L70529 72204
L70529 72148
L70501 72092
L70473 72064
L70417 72036
L70304 72007
L70248 71979
L70220 71951
L70192 71895
L70192 71839
L70220 71782
L70248 71754
L70304 71726
L70445 71726
L70529 71754
" />
<path d="M70782 72317
L70782 71726
" />
<path d="M71035 72317
L71035 72007
L71007 71951
L70951 71923
L70867 71923
L70810 71951
L70782 71979
" />
<path d="M71541 72289
L71485 72317
L71373 72317
L71316 72289
L71288 72232
L71288 72007
L71316 71951
L71373 71923
L71485 71923
L71541 71951
L71570 72007
L71570 72064
L71288 72120
" />
<path d="M72048 72289
L71991 72317
L71879 72317
L71823 72289
L71795 72232
L71795 72007
L71823 71951
L71879 71923
L71991 71923
L72048 71951
L72076 72007
L72076 72064
L71795 72120
" />
<path d="M72244 71923
L72469 71923
" />
<path d="M72329 71726
L72329 72232
L72357 72289
L72413 72317
L72469 72317
" />
<path d="M72666 72260
L72694 72289
L72666 72317
L72638 72289
L72666 72260
L72666 72317
" />
<path d="M72666 71951
L72694 71979
L72666 72007
L72638 71979
L72666 71951
L72666 72007
" />
<path d="M77559 75396
L77559 76577
" />
<path d="M102756 75396
L102756 77955
" />
</g>
<g style="fill:#000000; fill-opacity:0.0; 
stroke:#000000; stroke-width:118.11; stroke-opacity:1; 
stroke-linecap:round; stroke-linejoin:round;">
<path d="M67252 40255
L67252 39974
L67843 39974
" />
<path d="M67843 40565
L67843 40677
L67814 40733
L67758 40790
L67646 40818
L67449 40818
L67336 40790
L67280 40733
L67252 40677
L67252 40565
L67280 40508
L67336 40452
L67449 40424
L67646 40424
L67758 40452
L67814 40508
L67843 40565
" />
<path d="M67843 41071
L67365 41071
L67308 41099
L67280 41127
L67252 41183
L67252 41296
L67280 41352
L67308 41380
L67365 41408
L67843 41408
" />
<path d="M67843 41605
L67843 41943
" />
<path d="M67252 41774
L67843 41774
" />
<path d="M67871 42561
L67111 42055
" />
<path d="M67814 43068
L67843 43011
L67843 42927
L67814 42843
L67758 42786
L67702 42758
L67589 42730
L67505 42730
L67393 42758
L67336 42786
L67280 42843
L67252 42927
L67252 42983
L67280 43068
L67308 43096
L67505 43096
L67505 42983
" />
<path d="M67252 43349
L67843 43349
L67252 43686
L67843 43686
" />
<path d="M67252 43967
L67843 43967
L67843 44108
L67814 44192
L67758 44249
L67702 44277
L67589 44305
L67505 44305
L67393 44277
L67336 44249
L67280 44192
L67252 44108
L67252 43967
" />
<path d="M67252 36923
L67252 36642
L67843 36642
" />
<path d="M67252 37120
L67843 37120
" />
<path d="M67252 37401
L67843 37401
L67252 37739
L67843 37739
" />
<path d="M67871 38442
L67111 37935
" />
<path d="M67814 38948
L67843 38892
L67843 38807
L67814 38723
L67758 38667
L67702 38638
L67589 38610
L67505 38610
L67393 38638
L67336 38667
L67280 38723
L67252 38807
L67252 38863
L67280 38948
L67308 38976
L67505 38976
L67505 38863
" />
<path d="M67252 17421
L67533 17224
" />
<path d="M67252 17083
L67843 17083
L67843 17308
L67814 17365
L67786 17393
L67730 17421
L67646 17421
L67589 17393
L67561 17365
L67533 17308
L67533 17083
" />
<path d="M67843 17786
L67843 17899
L67814 17955
L67758 18011
L67646 18039
L67449 18039
L67336 18011
L67280 17955
L67252 17899
L67252 17786
L67280 17730
L67336 17674
L67449 17646
L67646 17646
L67758 17674
L67814 17730
L67843 17786
" />
<path d="M67843 18293
L67365 18293
L67308 18321
L67280 18349
L67252 18405
L67252 18517
L67280 18574
L67308 18602
L67365 18630
L67843 18630
" />
<path d="M67843 18827
L67843 19164
" />
<path d="M67252 18996
L67843 18996
" />
<path d="M67871 19783
L67111 19277
" />
<path d="M67814 20289
L67843 20233
L67843 20149
L67814 20064
L67758 20008
L67702 19980
L67589 19952
L67505 19952
L67393 19980
L67336 20008
L67280 20064
L67252 20149
L67252 20205
L67280 20289
L67308 20317
L67505 20317
L67505 20205
" />
<path d="M67252 20570
L67843 20570
L67252 20908
L67843 20908
" />
<path d="M67252 21189
L67843 21189
L67843 21330
L67814 21414
L67758 21470
L67702 21498
L67589 21526
L67505 21526
L67393 21498
L67336 21470
L67280 21414
L67252 21330
L67252 21189
" />
<path d="M67252 13695
L67533 13498
" />
<path d="M67252 13357
L67843 13357
L67843 13582
L67814 13638
L67786 13667
L67730 13695
L67646 13695
L67589 13667
L67561 13638
L67533 13582
L67533 13357
" />
<path d="M67252 13948
L67843 13948
" />
<path d="M67252 14229
L67843 14229
L67252 14566
L67843 14566
" />
<path d="M67871 15269
L67111 14763
" />
<path d="M67814 15776
L67843 15719
L67843 15635
L67814 15551
L67758 15494
L67702 15466
L67589 15438
L67505 15438
L67393 15466
L67336 15494
L67280 15551
L67252 15635
L67252 15691
L67280 15776
L67308 15804
L67505 15804
L67505 15691
" />
<path d="M89876 11571
L89426 11571
" />
<path d="M89651 11347
L89651 11796
" />
<path d="M88892 11740
L88892 11347
" />
<path d="M89032 11965
L89173 11543
L88807 11543
" />
<path d="M88160 11965
L88667 11206
" />
<path d="M87964 11571
L87514 11571
" />
<path d="M86923 11347
L87260 11347
" />
<path d="M87092 11347
L87092 11937
L87148 11853
L87204 11796
L87260 11768
" />
<path d="M86389 11937
L86670 11937
L86698 11656
L86670 11684
L86614 11712
L86473 11712
L86417 11684
L86389 11656
L86361 11600
L86361 11459
L86389 11403
L86417 11375
L86473 11347
L86614 11347
L86670 11375
L86698 11403
" />
<path d="M85686 11965
L86192 11206
" />
<path d="M85517 11515
L85236 11515
" />
<path d="M85573 11347
L85376 11937
L85179 11347
" />
<path d="M84673 11909
L84730 11937
L84814 11937
L84898 11909
L84955 11853
L84983 11796
L85011 11684
L85011 11600
L84983 11487
L84955 11431
L84898 11375
L84814 11347
L84758 11347
L84673 11375
L84645 11403
L84645 11600
L84758 11600
" />
<path d="M84392 11347
L84392 11937
L84055 11347
L84055 11937
" />
<path d="M83773 11347
L83773 11937
L83633 11937
L83548 11909
L83492 11853
L83464 11796
L83436 11684
L83436 11600
L83464 11487
L83492 11431
L83548 11375
L83633 11347
L83773 11347
" />
<path d="M82761 11965
L83267 11206
" />
<path d="M82564 11571
L82114 11571
" />
<path d="M82339 11347
L82339 11796
" />
<path d="M81524 11347
L81861 11347
" />
<path d="M81692 11347
L81692 11937
L81749 11853
L81805 11796
L81861 11768
" />
<path d="M80989 11937
L81271 11937
L81299 11656
L81271 11684
L81214 11712
L81074 11712
L81017 11684
L80989 11656
L80961 11600
L80961 11459
L80989 11403
L81017 11375
L81074 11347
L81214 11347
L81271 11375
L81299 11403
" />
<path d="M81313 54884
L81763 54884
" />
<path d="M81538 55109
L81538 54659
" />
<path d="M82325 54519
L82044 54519
L82016 54800
L82044 54772
L82100 54744
L82241 54744
L82297 54772
L82325 54800
L82353 54856
L82353 54997
L82325 55053
L82297 55081
L82241 55109
L82100 55109
L82044 55081
L82016 55053
" />
<path d="M83028 54491
L82522 55250
" />
<path d="M83225 55109
L83225 54519
L83366 54519
L83450 54547
L83506 54603
L83534 54659
L83562 54772
L83562 54856
L83534 54969
L83506 55025
L83450 55081
L83366 55109
L83225 55109
" />
<path d="M84125 54547
L84069 54519
L83984 54519
L83900 54547
L83844 54603
L83816 54659
L83787 54772
L83787 54856
L83816 54969
L83844 55025
L83900 55081
L83984 55109
L84041 55109
L84125 55081
L84153 55053
L84153 54856
L84041 54856
" />
<path d="M84406 55109
L84406 54519
L84744 55109
L84744 54519
" />
<path d="M85025 55109
L85025 54519
L85165 54519
L85250 54547
L85306 54603
L85334 54659
L85362 54772
L85362 54856
L85334 54969
L85306 55025
L85250 55081
L85165 55109
L85025 55109
" />
<path d="M86037 54491
L85531 55250
" />
<path d="M86206 55081
L86290 55109
L86431 55109
L86487 55081
L86515 55053
L86543 54997
L86543 54940
L86515 54884
L86487 54856
L86431 54828
L86318 54800
L86262 54772
L86234 54744
L86206 54687
L86206 54631
L86234 54575
L86262 54547
L86318 54519
L86459 54519
L86543 54547
" />
<path d="M86768 54940
L87050 54940
" />
<path d="M86712 55109
L86909 54519
L87106 55109
" />
<path d="M87500 54800
L87303 54800
" />
<path d="M87303 55109
L87303 54519
L87584 54519
" />
<path d="M88118 54547
L88062 54519
L87978 54519
L87893 54547
L87837 54603
L87809 54659
L87781 54772
L87781 54856
L87809 54969
L87837 55025
L87893 55081
L87978 55109
L88034 55109
L88118 55081
L88146 55053
L88146 54856
L88034 54856
" />
<path d="M88399 55109
L88399 54519
L88737 55109
L88737 54519
" />
<path d="M89018 55109
L89018 54519
L89159 54519
L89243 54547
L89299 54603
L89327 54659
L89356 54772
L89356 54856
L89327 54969
L89299 55025
L89243 55081
L89159 55109
L89018 55109
" />
<path d="M90030 54491
L89524 55250
" />
<path d="M82142 55829
L82592 55829
" />
<path d="M82367 56054
L82367 55604
" />
<path d="M83183 56054
L82845 56054
" />
<path d="M83014 56054
L83014 55464
L82958 55548
L82902 55604
L82845 55632
" />
<path d="M83520 55717
L83464 55688
L83436 55660
L83408 55604
L83408 55576
L83436 55520
L83464 55492
L83520 55464
L83633 55464
L83689 55492
L83717 55520
L83745 55576
L83745 55604
L83717 55660
L83689 55688
L83633 55717
L83520 55717
L83464 55745
L83436 55773
L83408 55829
L83408 55942
L83436 55998
L83464 56026
L83520 56054
L83633 56054
L83689 56026
L83717 55998
L83745 55942
L83745 55829
L83717 55773
L83689 55745
L83633 55717
" />
<path d="M84420 55435
L83914 56195
" />
<path d="M84589 55885
L84870 55885
" />
<path d="M84533 56054
L84730 55464
L84926 56054
" />
<path d="M85433 55492
L85376 55464
L85292 55464
L85208 55492
L85151 55548
L85123 55604
L85095 55717
L85095 55801
L85123 55913
L85151 55970
L85208 56026
L85292 56054
L85348 56054
L85433 56026
L85461 55998
L85461 55801
L85348 55801
" />
<path d="M85714 56054
L85714 55464
L86051 56054
L86051 55464
" />
<path d="M86332 56054
L86332 55464
L86473 55464
L86557 55492
L86614 55548
L86642 55604
L86670 55717
L86670 55801
L86642 55913
L86614 55970
L86557 56026
L86473 56054
L86332 56054
" />
<path d="M87345 55435
L86839 56195
" />
<path d="M87542 55829
L87992 55829
" />
<path d="M88582 56054
L88245 56054
" />
<path d="M88413 56054
L88413 55464
L88357 55548
L88301 55604
L88245 55632
" />
<path d="M88920 55717
L88863 55688
L88835 55660
L88807 55604
L88807 55576
L88835 55520
L88863 55492
L88920 55464
L89032 55464
L89088 55492
L89116 55520
L89145 55576
L89145 55604
L89116 55660
L89088 55688
L89032 55717
L88920 55717
L88863 55745
L88835 55773
L88807 55829
L88807 55942
L88835 55998
L88863 56026
L88920 56054
L89032 56054
L89088 56026
L89116 55998
L89145 55942
L89145 55829
L89116 55773
L89088 55745
L89032 55717
" />
<path d="M75407 63428
L75492 63456
L75632 63456
L75688 63428
L75717 63399
L75745 63343
L75745 63287
L75717 63231
L75688 63203
L75632 63174
L75520 63146
L75464 63118
L75435 63090
L75407 63034
L75407 62978
L75435 62921
L75464 62893
L75520 62865
L75660 62865
L75745 62893
" />
<path d="M75970 63287
L76251 63287
" />
<path d="M75913 63456
L76110 62865
L76307 63456
" />
<path d="M76701 63146
L76504 63146
" />
<path d="M76504 63456
L76504 62865
L76785 62865
" />
<path d="M77010 63146
L77207 63146
" />
<path d="M77291 63456
L77010 63456
L77010 62865
L77291 62865
" />
<path d="M77460 62865
L77798 62865
" />
<path d="M77629 63456
L77629 62865
" />
<path d="M78107 63174
L78107 63456
" />
<path d="M77910 62865
L78107 63174
L78304 62865
" />
<path d="M79260 62893
L79204 62865
L79119 62865
L79035 62893
L78979 62949
L78951 63006
L78922 63118
L78922 63203
L78951 63315
L78979 63371
L79035 63428
L79119 63456
L79176 63456
L79260 63428
L79288 63399
L79288 63203
L79176 63203
" />
<path d="M79541 63456
L79541 62865
L79879 63456
L79879 62865
" />
<path d="M80160 63456
L80160 62865
L80300 62865
L80385 62893
L80441 62949
L80469 63006
L80497 63118
L80497 63203
L80469 63315
L80441 63371
L80385 63428
L80300 63456
L80160 63456
" />
<path d="M86571 63821
L87021 63821
" />
<path d="M86796 64046
L86796 63596
" />
<path d="M87584 63456
L87303 63456
L87275 63737
L87303 63709
L87359 63681
L87500 63681
L87556 63709
L87584 63737
L87612 63793
L87612 63934
L87584 63990
L87556 64018
L87500 64046
L87359 64046
L87303 64018
L87275 63990
" />
<path d="M88287 63428
L87781 64187
" />
<path d="M88484 64046
L88484 63456
L88624 63456
L88709 63484
L88765 63540
L88793 63596
L88821 63709
L88821 63793
L88793 63906
L88765 63962
L88709 64018
L88624 64046
L88484 64046
" />
<path d="M89384 63484
L89327 63456
L89243 63456
L89159 63484
L89102 63540
L89074 63596
L89046 63709
L89046 63793
L89074 63906
L89102 63962
L89159 64018
L89243 64046
L89299 64046
L89384 64018
L89412 63990
L89412 63793
L89299 63793
" />
<path d="M89665 64046
L89665 63456
L90002 64046
L90002 63456
" />
<path d="M90284 64046
L90284 63456
L90424 63456
L90508 63484
L90565 63540
L90593 63596
L90621 63709
L90621 63793
L90593 63906
L90565 63962
L90508 64018
L90424 64046
L90284 64046
" />
<path d="M27263 6735
L27713 6735
" />
<path d="M28304 6960
L27966 6960
" />
<path d="M28135 6960
L28135 6369
L28079 6453
L28023 6510
L27966 6538
" />
<path d="M28641 6622
L28585 6594
L28557 6566
L28529 6510
L28529 6482
L28557 6425
L28585 6397
L28641 6369
L28754 6369
L28810 6397
L28838 6425
L28866 6482
L28866 6510
L28838 6566
L28810 6594
L28754 6622
L28641 6622
L28585 6650
L28557 6678
L28529 6735
L28529 6847
L28557 6903
L28585 6931
L28641 6960
L28754 6960
L28810 6931
L28838 6903
L28866 6847
L28866 6735
L28838 6678
L28810 6650
L28754 6622
" />
<path d="M29541 6341
L29035 7100
" />
<path d="M29710 6791
L29991 6791
" />
<path d="M29654 6960
L29850 6369
L30047 6960
" />
<path d="M30553 6397
L30497 6369
L30413 6369
L30329 6397
L30272 6453
L30244 6510
L30216 6622
L30216 6706
L30244 6819
L30272 6875
L30329 6931
L30413 6960
L30469 6960
L30553 6931
L30582 6903
L30582 6706
L30469 6706
" />
<path d="M30835 6960
L30835 6369
L31172 6960
L31172 6369
" />
<path d="M31453 6960
L31453 6369
L31594 6369
L31678 6397
L31735 6453
L31763 6510
L31791 6622
L31791 6706
L31763 6819
L31735 6875
L31678 6931
L31594 6960
L31453 6960
" />
<path d="M32466 6341
L31960 7100
" />
<path d="M32972 6960
L32634 6960
" />
<path d="M32803 6960
L32803 6369
L32747 6453
L32691 6510
L32634 6538
" />
<path d="M33309 6622
L33253 6594
L33225 6566
L33197 6510
L33197 6482
L33225 6425
L33253 6397
L33309 6369
L33422 6369
L33478 6397
L33506 6425
L33534 6482
L33534 6510
L33506 6566
L33478 6594
L33422 6622
L33309 6622
L33253 6650
L33225 6678
L33197 6735
L33197 6847
L33225 6903
L33253 6931
L33309 6960
L33422 6960
L33478 6931
L33506 6903
L33534 6847
L33534 6735
L33506 6678
L33478 6650
L33422 6622
" />
<path d="M34209 6341
L33703 7100
" />
<path d="M34378 6931
L34462 6960
L34603 6960
L34659 6931
L34687 6903
L34715 6847
L34715 6791
L34687 6735
L34659 6706
L34603 6678
L34491 6650
L34434 6622
L34406 6594
L34378 6538
L34378 6482
L34406 6425
L34434 6397
L34491 6369
L34631 6369
L34715 6397
" />
<path d="M34940 6791
L35222 6791
" />
<path d="M34884 6960
L35081 6369
L35278 6960
" />
<path d="M35672 6650
L35475 6650
" />
<path d="M35475 6960
L35475 6369
L35756 6369
" />
<path d="M36290 6397
L36234 6369
L36150 6369
L36065 6397
L36009 6453
L35981 6510
L35953 6622
L35953 6706
L35981 6819
L36009 6875
L36065 6931
L36150 6960
L36206 6960
L36290 6931
L36318 6903
L36318 6706
L36206 6706
" />
<path d="M36571 6960
L36571 6369
L36909 6960
L36909 6369
" />
<path d="M37190 6960
L37190 6369
L37331 6369
L37415 6397
L37471 6453
L37499 6510
L37528 6622
L37528 6706
L37499 6819
L37471 6875
L37415 6931
L37331 6960
L37190 6960
" />
<path d="M38203 6341
L37696 7100
" />
<path d="M38399 6960
L38399 6369
L38540 6369
L38624 6397
L38681 6453
L38709 6510
L38737 6622
L38737 6706
L38709 6819
L38681 6875
L38624 6931
L38540 6960
L38399 6960
" />
<path d="M39299 6397
L39243 6369
L39159 6369
L39074 6397
L39018 6453
L38990 6510
L38962 6622
L38962 6706
L38990 6819
L39018 6875
L39074 6931
L39159 6960
L39215 6960
L39299 6931
L39327 6903
L39327 6706
L39215 6706
" />
<path d="M39580 6960
L39580 6369
L39918 6960
L39918 6369
" />
<path d="M40199 6960
L40199 6369
L40340 6369
L40424 6397
L40480 6453
L40508 6510
L40537 6622
L40537 6706
L40508 6819
L40480 6875
L40424 6931
L40340 6960
L40199 6960
" />
<path d="M41212 6341
L40705 7100
" />
<path d="M41408 6735
L41858 6735
" />
<path d="M41633 6960
L41633 6510
" />
<path d="M42421 6369
L42140 6369
L42111 6650
L42140 6622
L42196 6594
L42336 6594
L42393 6622
L42421 6650
L42449 6706
L42449 6847
L42421 6903
L42393 6931
L42336 6960
L42196 6960
L42140 6931
L42111 6903
" />
<path d="M43321 68742
L43405 68771
L43546 68771
L43602 68742
L43630 68714
L43658 68658
L43658 68602
L43630 68546
L43602 68517
L43546 68489
L43433 68461
L43377 68433
L43349 68405
L43321 68349
L43321 68293
L43349 68236
L43377 68208
L43433 68180
L43574 68180
L43658 68208
" />
<path d="M43883 68602
L44164 68602
" />
<path d="M43827 68771
L44024 68180
L44221 68771
" />
<path d="M44614 68461
L44417 68461
" />
<path d="M44417 68771
L44417 68180
L44699 68180
" />
<path d="M44924 68461
L45120 68461
" />
<path d="M45205 68771
L44924 68771
L44924 68180
L45205 68180
" />
<path d="M45374 68180
L45711 68180
" />
<path d="M45542 68771
L45542 68180
" />
<path d="M46020 68489
L46020 68771
" />
<path d="M45823 68180
L46020 68489
L46217 68180
" />
<path d="M47173 68208
L47117 68180
L47033 68180
L46948 68208
L46892 68264
L46864 68321
L46836 68433
L46836 68517
L46864 68630
L46892 68686
L46948 68742
L47033 68771
L47089 68771
L47173 68742
L47201 68714
L47201 68517
L47089 68517
" />
<path d="M47455 68771
L47455 68180
L47792 68771
L47792 68180
" />
<path d="M48073 68771
L48073 68180
L48214 68180
L48298 68208
L48354 68264
L48383 68321
L48411 68433
L48411 68517
L48383 68630
L48354 68686
L48298 68742
L48214 68771
L48073 68771
" />
</g>
<g style="fill:#000000; fill-opacity:0.0; 
stroke:#000000; stroke-width:39.3701; stroke-opacity:1; 
stroke-linecap:round; stroke-linejoin:round;">
<circle cx="71850.4" cy="7874.02" r="656.168" /> 
<path d="M70866 7874
L72834 7874
" />
<path d="M71850 6889
L71850 8858
" />
<circle cx="71850.4" cy="62992.1" r="656.168" /> 
<path d="M70866 62992
L72834 62992
" />
<path d="M71850 62007
L71850 63976
" />
<circle cx="101378" cy="62992.1" r="656.168" /> 
<path d="M100393 62992
L102362 62992
" />
<path d="M101377 62007
L101377 63976
" />
<path d="M66929 5905
L106299 5905
" />
<path d="M66929 64960
L66929 5905
" />
<path d="M106299 64960
L66929 64960
" />
<path d="M106299 5905
L106299 64960
" />
<path d="M10826 70866
L10826 5905
" />
<path d="M56102 70866
L10826 70866
" />
<path d="M56102 5905
L56102 70866
" />
<path d="M10826 5905
L56102 5905
" />
</g>
<g style="fill:#000000; fill-opacity:0.0; 
stroke:#000000; stroke-width:150; stroke-opacity:1; 
stroke-linecap:round; stroke-linejoin:round;">
<circle cx="14763.8" cy="9842.52" r="1969" /> 
<circle cx="52165.4" cy="9842.52" r="1969" /> 
<circle cx="14763.8" cy="66929.1" r="1969" /> 
<circle cx="52165.4" cy="66929.1" r="1969" /> 
<circle cx="41338.6" cy="31496.1" r="1969" /> 
<circle cx="70866.1" cy="9842.52" r="1181" /> 
<circle cx="87598.4" cy="9842.52" r="1181" /> 
<circle cx="69881.9" cy="35433.1" r="1181" /> 
<circle cx="103346" cy="38385.8" r="1181" /> 
<circle cx="102362" cy="61023.6" r="1181" /> 
<circle cx="70866.1" cy="61023.6" r="1181" /> 
</g> 
</svg>
