<?xml version="1.0" standalone="no"?>
 <!DOCTYPE svg PUBLIC "-//W3C//DTD SVG 1.1//EN" 
 "http://www.w3.org/Graphics/SVG/1.1/DTD/svg11.dtd"> 
<svg xmlns="http://www.w3.org/2000/svg" version="1.1" 
    width="29.7002cm" height="21.0007cm" viewBox="0 0 116930 82680 ">
<title>SVG Picture created as ADC-Inner2_Cu.svg date 2014/06/04 23:49:10 </title>
  <desc>Picture generated by PCBNEW </desc>
<g style="fill:#000000; fill-opacity:1;stroke:#000000; stroke-opacity:1;
stroke-linecap:round; stroke-linejoin:round; "
 transform="translate(0 0) scale(1 1)">
</g>
<g style="fill:#000000; fill-opacity:0.0; 
stroke:#000000; stroke-width:59.0551; stroke-opacity:1; 
stroke-linecap:round; stroke-linejoin:round;">
<rect x="69685.9" y="65357.2" width="42519.7" height="12598.4" rx="0" />
<rect x="3937.01" y="3937.01" width="109056" height="74806" rx="0" />
<rect x="4724.41" y="4724.41" width="107481" height="73231.2" rx="0" />
<path d="M23622 4724
L23622 3937
" />
<path d="M43307 4724
L43307 3937
" />
<path d="M62992 4724
L62992 3937
" />
<path d="M82677 4724
L82677 3937
" />
<path d="M102362 4724
L102362 3937
" />
<path d="M14169 4562
L13877 4562
" />
<path d="M14023 4562
L14023 4050
L13974 4123
L13925 4172
L13877 4196
" />
<path d="M33562 4099
L33586 4074
L33635 4050
L33757 4050
L33805 4074
L33830 4099
L33854 4147
L33854 4196
L33830 4269
L33537 4562
L33854 4562
" />
<path d="M53222 4050
L53539 4050
L53368 4245
L53442 4245
L53490 4269
L53515 4294
L53539 4342
L53539 4464
L53515 4513
L53490 4537
L53442 4562
L53295 4562
L53247 4537
L53222 4513
" />
<path d="M73175 4221
L73175 4562
" />
<path d="M73053 4026
L72932 4391
L73248 4391
" />
<path d="M92885 4050
L92641 4050
L92617 4294
L92641 4269
L92690 4245
L92812 4245
L92860 4269
L92885 4294
L92909 4342
L92909 4464
L92885 4513
L92860 4537
L92812 4562
L92690 4562
L92641 4537
L92617 4513
" />
<path d="M112545 4050
L112448 4050
L112399 4074
L112375 4099
L112326 4172
L112302 4269
L112302 4464
L112326 4513
L112350 4537
L112399 4562
L112497 4562
L112545 4537
L112570 4513
L112594 4464
L112594 4342
L112570 4294
L112545 4269
L112497 4245
L112399 4245
L112350 4269
L112326 4294
L112302 4342
" />
<path d="M23622 77955
L23622 78742
" />
<path d="M43307 77955
L43307 78742
" />
<path d="M62992 77955
L62992 78742
" />
<path d="M82677 77955
L82677 78742
" />
<path d="M102362 77955
L102362 78742
" />
<path d="M14169 78580
L13877 78580
" />
<path d="M14023 78580
L14023 78069
L13974 78142
L13925 78190
L13877 78215
" />
<path d="M33562 78117
L33586 78093
L33635 78069
L33757 78069
L33805 78093
L33830 78117
L33854 78166
L33854 78215
L33830 78288
L33537 78580
L33854 78580
" />
<path d="M53222 78069
L53539 78069
L53368 78263
L53442 78263
L53490 78288
L53515 78312
L53539 78361
L53539 78483
L53515 78532
L53490 78556
L53442 78580
L53295 78580
L53247 78556
L53222 78532
" />
<path d="M73175 78239
L73175 78580
" />
<path d="M73053 78044
L72932 78410
L73248 78410
" />
<path d="M92885 78069
L92641 78069
L92617 78312
L92641 78288
L92690 78263
L92812 78263
L92860 78288
L92885 78312
L92909 78361
L92909 78483
L92885 78532
L92860 78556
L92812 78580
L92690 78580
L92641 78556
L92617 78532
" />
<path d="M112545 78069
L112448 78069
L112399 78093
L112375 78117
L112326 78190
L112302 78288
L112302 78483
L112326 78532
L112350 78556
L112399 78580
L112497 78580
L112545 78556
L112570 78532
L112594 78483
L112594 78361
L112570 78312
L112545 78288
L112497 78263
L112399 78263
L112350 78288
L112326 78312
L112302 78361
" />
<path d="M3937 23622
L4724 23622
" />
<path d="M3937 43307
L4724 43307
" />
<path d="M3937 62992
L4724 62992
" />
<path d="M4208 13864
L4452 13864
" />
<path d="M4160 14011
L4330 13499
L4501 14011
" />
<path d="M4367 33428
L4440 33452
L4464 33476
L4489 33525
L4489 33598
L4464 33647
L4440 33671
L4391 33696
L4196 33696
L4196 33184
L4367 33184
L4416 33208
L4440 33233
L4464 33281
L4464 33330
L4440 33379
L4416 33403
L4367 33428
L4196 33428
" />
<path d="M4489 53332
L4464 53356
L4391 53381
L4342 53381
L4269 53356
L4221 53308
L4196 53259
L4172 53161
L4172 53088
L4196 52991
L4221 52942
L4269 52893
L4342 52869
L4391 52869
L4464 52893
L4489 52918
" />
<path d="M4196 73066
L4196 72554
L4318 72554
L4391 72578
L4440 72627
L4464 72676
L4489 72773
L4489 72846
L4464 72944
L4440 72993
L4391 73041
L4318 73066
L4196 73066
" />
<path d="M112992 23622
L112205 23622
" />
<path d="M112992 43307
L112205 43307
" />
<path d="M112992 62992
L112205 62992
" />
<path d="M112477 13864
L112721 13864
" />
<path d="M112428 14011
L112599 13499
L112769 14011
" />
<path d="M112635 33428
L112708 33452
L112733 33476
L112757 33525
L112757 33598
L112733 33647
L112708 33671
L112660 33696
L112465 33696
L112465 33184
L112635 33184
L112684 33208
L112708 33233
L112733 33281
L112733 33330
L112708 33379
L112684 33403
L112635 33428
L112465 33428
" />
<path d="M112757 53332
L112733 53356
L112660 53381
L112611 53381
L112538 53356
L112489 53308
L112465 53259
L112440 53161
L112440 53088
L112465 52991
L112489 52942
L112538 52893
L112611 52869
L112660 52869
L112733 52893
L112757 52918
" />
<path d="M112465 73066
L112465 72554
L112587 72554
L112660 72578
L112708 72627
L112733 72676
L112757 72773
L112757 72846
L112733 72944
L112708 72993
L112660 73041
L112587 73066
L112465 73066
" />
<path d="M78881 76293
L78881 75703
L79022 75703
L79106 75731
L79162 75787
L79190 75843
L79219 75956
L79219 76040
L79190 76153
L79162 76209
L79106 76265
L79022 76293
L78881 76293
" />
<path d="M79725 76293
L79725 75984
L79697 75928
L79640 75899
L79528 75899
L79472 75928
" />
<path d="M79725 76265
L79669 76293
L79528 76293
L79472 76265
L79444 76209
L79444 76153
L79472 76096
L79528 76068
L79669 76068
L79725 76040
" />
<path d="M79922 75899
L80147 75899
" />
<path d="M80006 75703
L80006 76209
L80034 76265
L80090 76293
L80147 76293
" />
<path d="M80568 76265
L80512 76293
L80400 76293
L80343 76265
L80315 76209
L80315 75984
L80343 75928
L80400 75899
L80512 75899
L80568 75928
L80597 75984
L80597 76040
L80315 76096
" />
<path d="M80850 76237
L80878 76265
L80850 76293
L80822 76265
L80850 76237
L80850 76293
" />
<path d="M80850 75928
L80878 75956
L80850 75984
L80822 75956
L80850 75928
L80850 75984
" />
<path d="M69685 76577
L112205 76577
" />
<path d="M70220 77395
L70220 76805
" />
<path d="M70557 77395
L70304 77058
" />
<path d="M70557 76805
L70220 77142
" />
<path d="M70810 77395
L70810 77002
" />
<path d="M70810 76805
L70782 76833
L70810 76861
L70838 76833
L70810 76805
L70810 76861
" />
<path d="M71429 77339
L71401 77367
L71316 77395
L71260 77395
L71176 77367
L71120 77311
L71091 77255
L71063 77142
L71063 77058
L71091 76946
L71120 76889
L71176 76833
L71260 76805
L71316 76805
L71401 76833
L71429 76861
" />
<path d="M71935 77395
L71935 77086
L71907 77030
L71851 77002
L71738 77002
L71682 77030
" />
<path d="M71935 77367
L71879 77395
L71738 77395
L71682 77367
L71654 77311
L71654 77255
L71682 77199
L71738 77171
L71879 77171
L71935 77142
" />
<path d="M72469 77395
L72469 76805
" />
<path d="M72469 77367
L72413 77395
L72301 77395
L72244 77367
L72216 77339
L72188 77283
L72188 77114
L72216 77058
L72244 77030
L72301 77002
L72413 77002
L72469 77030
" />
<path d="M73201 77086
L73397 77086
" />
<path d="M73482 77395
L73201 77395
L73201 76805
L73482 76805
" />
<path d="M73735 77339
L73763 77367
L73735 77395
L73707 77367
L73735 77339
L73735 77395
" />
<path d="M74016 77395
L74016 76805
L74157 76805
L74241 76833
L74297 76889
L74325 76946
L74354 77058
L74354 77142
L74325 77255
L74297 77311
L74241 77367
L74157 77395
L74016 77395
" />
<path d="M74607 77339
L74635 77367
L74607 77395
L74579 77367
L74607 77339
L74607 77395
" />
<path d="M74860 77227
L75141 77227
" />
<path d="M74804 77395
L75000 76805
L75197 77395
" />
<path d="M75394 77339
L75422 77367
L75394 77395
L75366 77367
L75394 77339
L75394 77395
" />
<path d="M76575 77002
L76575 77592
" />
<path d="M76575 77030
L76631 77002
L76744 77002
L76800 77030
L76828 77058
L76856 77114
L76856 77283
L76828 77339
L76800 77367
L76744 77395
L76631 77395
L76575 77367
" />
<path d="M77363 77367
L77306 77395
L77194 77395
L77138 77367
L77109 77339
L77081 77283
L77081 77114
L77109 77058
L77138 77030
L77194 77002
L77306 77002
L77363 77030
" />
<path d="M77616 77395
L77616 76805
" />
<path d="M77616 77030
L77672 77002
L77784 77002
L77841 77030
L77869 77058
L77897 77114
L77897 77283
L77869 77339
L77841 77367
L77784 77395
L77672 77395
L77616 77367
" />
<path d="M78150 77002
L78150 77395
" />
<path d="M78150 77058
L78178 77030
L78234 77002
L78319 77002
L78375 77030
L78403 77086
L78403 77395
" />
<path d="M78909 77367
L78853 77395
L78741 77395
L78684 77367
L78656 77311
L78656 77086
L78684 77030
L78741 77002
L78853 77002
L78909 77030
L78937 77086
L78937 77142
L78656 77199
" />
<path d="M79134 77002
L79247 77395
L79359 77114
L79472 77395
L79584 77002
" />
<path d="M80428 77620
L80400 77592
L80343 77508
L80315 77452
L80287 77367
L80259 77227
L80259 77114
L80287 76974
L80315 76889
L80343 76833
L80400 76749
L80428 76721
" />
<path d="M80625 76861
L80653 76833
L80709 76805
L80850 76805
L80906 76833
L80934 76861
L80962 76917
L80962 76974
L80934 77058
L80597 77395
L80962 77395
" />
<path d="M81328 76805
L81384 76805
L81440 76833
L81468 76861
L81496 76917
L81525 77030
L81525 77171
L81496 77283
L81468 77339
L81440 77367
L81384 77395
L81328 77395
L81271 77367
L81243 77339
L81215 77283
L81187 77171
L81187 77030
L81215 76917
L81243 76861
L81271 76833
L81328 76805
" />
<path d="M82087 77395
L81750 77395
" />
<path d="M81918 77395
L81918 76805
L81862 76889
L81806 76946
L81750 76974
" />
<path d="M82593 77002
L82593 77395
" />
<path d="M82453 76777
L82312 77199
L82678 77199
" />
<path d="M82903 77171
L83352 77171
" />
<path d="M83746 76805
L83802 76805
L83859 76833
L83887 76861
L83915 76917
L83943 77030
L83943 77171
L83915 77283
L83887 77339
L83859 77367
L83802 77395
L83746 77395
L83690 77367
L83662 77339
L83634 77283
L83606 77171
L83606 77030
L83634 76917
L83662 76861
L83690 76833
L83746 76805
" />
<path d="M84140 76805
L84505 76805
L84309 77030
L84393 77030
L84449 77058
L84477 77086
L84505 77142
L84505 77283
L84477 77339
L84449 77367
L84393 77395
L84224 77395
L84168 77367
L84140 77339
" />
<path d="M84759 77171
L85208 77171
" />
<path d="M85799 77395
L85462 77395
" />
<path d="M85630 77395
L85630 76805
L85574 76889
L85518 76946
L85462 76974
" />
<path d="M86080 77395
L86193 77395
L86249 77367
L86277 77339
L86333 77255
L86361 77142
L86361 76917
L86333 76861
L86305 76833
L86249 76805
L86136 76805
L86080 76833
L86052 76861
L86024 76917
L86024 77058
L86052 77114
L86080 77142
L86136 77171
L86249 77171
L86305 77142
L86333 77114
L86361 77058
" />
<path d="M87261 77086
L87346 77114
L87374 77142
L87402 77199
L87402 77283
L87374 77339
L87346 77367
L87289 77395
L87064 77395
L87064 76805
L87261 76805
L87318 76833
L87346 76861
L87374 76917
L87374 76974
L87346 77030
L87318 77058
L87261 77086
L87064 77086
" />
<path d="M87599 76805
L87992 76805
L87599 77395
L87992 77395
" />
<path d="M88555 77395
L88358 77114
" />
<path d="M88217 77395
L88217 76805
L88442 76805
L88499 76833
L88527 76861
L88555 76917
L88555 77002
L88527 77058
L88499 77086
L88442 77114
L88217 77114
" />
<path d="M89511 77002
L89511 77395
" />
<path d="M89370 76777
L89230 77199
L89595 77199
" />
<path d="M89764 76805
L90158 76805
L89905 77395
" />
<path d="M90664 76805
L90383 76805
L90355 77086
L90383 77058
L90439 77030
L90580 77030
L90636 77058
L90664 77086
L90692 77142
L90692 77283
L90664 77339
L90636 77367
L90580 77395
L90439 77395
L90383 77367
L90355 77339
" />
<path d="M91198 76805
L91086 76805
L91030 76833
L91001 76861
L90945 76946
L90917 77058
L90917 77283
L90945 77339
L90973 77367
L91030 77395
L91142 77395
L91198 77367
L91226 77339
L91255 77283
L91255 77142
L91226 77086
L91198 77058
L91142 77030
L91030 77030
L90973 77058
L90945 77086
L90917 77142
" />
<path d="M91451 77620
L91480 77592
L91536 77508
L91564 77452
L91592 77367
L91620 77227
L91620 77114
L91592 76974
L91564 76889
L91536 76833
L91480 76749
L91451 76721
" />
<path d="M91901 77171
L92351 77171
" />
<path d="M92633 77002
L92633 77592
" />
<path d="M92633 77030
L92689 77002
L92801 77002
L92858 77030
L92886 77058
L92914 77114
L92914 77283
L92886 77339
L92858 77367
L92801 77395
L92689 77395
L92633 77367
" />
<path d="M93167 77395
L93167 77002
" />
<path d="M93167 77114
L93195 77058
L93223 77030
L93279 77002
L93336 77002
" />
<path d="M93617 77395
L93561 77367
L93532 77339
L93504 77283
L93504 77114
L93532 77058
L93561 77030
L93617 77002
L93701 77002
L93757 77030
L93786 77058
L93814 77114
L93814 77283
L93786 77339
L93757 77367
L93701 77395
L93617 77395
" />
<path d="M94320 77395
L94320 76805
" />
<path d="M94320 77367
L94264 77395
L94151 77395
L94095 77367
L94067 77339
L94039 77283
L94039 77114
L94067 77058
L94095 77030
L94151 77002
L94264 77002
L94320 77030
" />
<path d="M94854 77002
L94854 77395
" />
<path d="M94601 77002
L94601 77311
L94629 77367
L94685 77395
L94770 77395
L94826 77367
L94854 77339
" />
<path d="M95388 77367
L95332 77395
L95220 77395
L95163 77367
L95135 77339
L95107 77283
L95107 77114
L95135 77058
L95163 77030
L95220 77002
L95332 77002
L95388 77030
" />
<path d="M95557 77002
L95782 77002
" />
<path d="M95642 76805
L95642 77311
L95670 77367
L95726 77395
L95782 77395
" />
<path d="M69685 75396
L112205 75396
" />
</g>
<g style="fill:#000000; fill-opacity:0.0; 
stroke:#000000; stroke-width:118.11; stroke-opacity:1; 
stroke-linecap:round; stroke-linejoin:round;">
<path d="M104022 76293
L103825 76012
" />
<path d="M103684 76293
L103684 75703
L103909 75703
L103965 75731
L103994 75759
L104022 75815
L104022 75899
L103994 75956
L103965 75984
L103909 76012
L103684 76012
" />
<path d="M104500 76265
L104444 76293
L104331 76293
L104275 76265
L104247 76209
L104247 75984
L104275 75928
L104331 75899
L104444 75899
L104500 75928
L104528 75984
L104528 76040
L104247 76096
" />
<path d="M104725 75899
L104865 76293
L105006 75899
" />
<path d="M105231 76237
L105259 76265
L105231 76293
L105203 76265
L105231 76237
L105231 76293
" />
<path d="M105231 75928
L105259 75956
L105231 75984
L105203 75956
L105231 75928
L105231 75984
" />
</g>
<g style="fill:#000000; fill-opacity:0.0; 
stroke:#000000; stroke-width:59.0551; stroke-opacity:1; 
stroke-linecap:round; stroke-linejoin:round;">
<path d="M70192 76265
L70276 76293
L70417 76293
L70473 76265
L70501 76237
L70529 76181
L70529 76124
L70501 76068
L70473 76040
L70417 76012
L70304 75984
L70248 75956
L70220 75928
L70192 75871
L70192 75815
L70220 75759
L70248 75731
L70304 75703
L70445 75703
L70529 75731
" />
<path d="M70782 76293
L70782 75899
" />
<path d="M70782 75703
L70754 75731
L70782 75759
L70810 75731
L70782 75703
L70782 75759
" />
<path d="M71007 75899
L71316 75899
L71007 76293
L71316 76293
" />
<path d="M71766 76265
L71710 76293
L71598 76293
L71541 76265
L71513 76209
L71513 75984
L71541 75928
L71598 75899
L71710 75899
L71766 75928
L71795 75984
L71795 76040
L71513 76096
" />
<path d="M72048 76237
L72076 76265
L72048 76293
L72019 76265
L72048 76237
L72048 76293
" />
<path d="M72048 75928
L72076 75956
L72048 75984
L72019 75956
L72048 75928
L72048 75984
" />
<path d="M72751 76124
L73032 76124
" />
<path d="M72694 76293
L72891 75703
L73088 76293
" />
<path d="M73538 75899
L73538 76293
" />
<path d="M73397 75674
L73257 76096
L73622 76096
" />
<path d="M103684 77395
L103684 76805
" />
<path d="M104219 77395
L104219 76805
" />
<path d="M104219 77367
L104162 77395
L104050 77395
L103994 77367
L103965 77339
L103937 77283
L103937 77114
L103965 77058
L103994 77030
L104050 77002
L104162 77002
L104219 77030
" />
<path d="M104500 77339
L104528 77367
L104500 77395
L104472 77367
L104500 77339
L104500 77395
" />
<path d="M104500 77030
L104528 77058
L104500 77086
L104472 77058
L104500 77030
L104500 77086
" />
<path d="M105540 77395
L105203 77395
" />
<path d="M105372 77395
L105372 76805
L105315 76889
L105259 76946
L105203 76974
" />
<path d="M106215 76777
L105709 77536
" />
<path d="M106721 77395
L106384 77395
" />
<path d="M106553 77395
L106553 76805
L106496 76889
L106440 76946
L106384 76974
" />
<path d="M69685 73821
L112205 73821
" />
</g>
<g style="fill:#000000; fill-opacity:0.0; 
stroke:#000000; stroke-width:157.48; stroke-opacity:1; 
stroke-linecap:round; stroke-linejoin:round;">
<path d="M70257 74099
L70707 74099
" />
<path d="M70384 74886
L70482 74099
" />
<path d="M70871 74886
L70937 74361
" />
<path d="M70970 74099
L70927 74136
L70960 74174
L71002 74136
L70970 74099
L70960 74174
" />
<path d="M71199 74361
L71499 74361
" />
<path d="M71345 74099
L71260 74774
L71288 74849
L71359 74886
L71434 74886
" />
<path d="M71809 74886
L71738 74849
L71710 74774
L71795 74099
" />
<path d="M72413 74849
L72334 74886
L72184 74886
L72113 74849
L72085 74774
L72123 74474
L72169 74399
L72249 74361
L72399 74361
L72469 74399
L72498 74474
L72488 74549
L72104 74624
" />
<path d="M72793 74811
L72826 74849
L72783 74886
L72751 74849
L72793 74811
L72783 74886
" />
<path d="M72844 74399
L72877 74436
L72835 74474
L72802 74436
L72844 74399
L72835 74474
" />
</g>
<g style="fill:#000000; fill-opacity:0.0; 
stroke:#000000; stroke-width:59.0551; stroke-opacity:1; 
stroke-linecap:round; stroke-linejoin:round;">
<path d="M70417 73070
L70220 73070
" />
<path d="M70220 73380
L70220 72789
L70501 72789
" />
<path d="M70726 73380
L70726 72986
" />
<path d="M70726 72789
L70698 72817
L70726 72845
L70754 72817
L70726 72789
L70726 72845
" />
<path d="M71091 73380
L71035 73352
L71007 73295
L71007 72789
" />
<path d="M71541 73352
L71485 73380
L71373 73380
L71316 73352
L71288 73295
L71288 73070
L71316 73014
L71373 72986
L71485 72986
L71541 73014
L71570 73070
L71570 73127
L71288 73183
" />
<path d="M71823 73323
L71851 73352
L71823 73380
L71795 73352
L71823 73323
L71823 73380
" />
<path d="M71823 73014
L71851 73042
L71823 73070
L71795 73042
L71823 73014
L71823 73070
" />
<path d="M72526 73211
L72807 73211
" />
<path d="M72469 73380
L72666 72789
L72863 73380
" />
<path d="M73060 73380
L73060 72789
L73201 72789
L73285 72817
L73341 72874
L73369 72930
L73397 73042
L73397 73127
L73369 73239
L73341 73295
L73285 73352
L73201 73380
L73060 73380
" />
<path d="M73988 73323
L73960 73352
L73876 73380
L73819 73380
L73735 73352
L73679 73295
L73651 73239
L73622 73127
L73622 73042
L73651 72930
L73679 72874
L73735 72817
L73819 72789
L73876 72789
L73960 72817
L73988 72845
" />
<path d="M74241 73323
L74269 73352
L74241 73380
L74213 73352
L74241 73323
L74241 73380
" />
<path d="M74522 73380
L74522 72789
" />
<path d="M74579 73155
L74747 73380
" />
<path d="M74747 72986
L74522 73211
" />
<path d="M75000 73380
L75000 72986
" />
<path d="M75000 72789
L74972 72817
L75000 72845
L75028 72817
L75000 72789
L75000 72845
" />
<path d="M75535 73352
L75478 73380
L75366 73380
L75310 73352
L75282 73323
L75253 73267
L75253 73099
L75282 73042
L75310 73014
L75366 72986
L75478 72986
L75535 73014
" />
<path d="M76041 73380
L76041 73070
L76013 73014
L75956 72986
L75844 72986
L75788 73014
" />
<path d="M76041 73352
L75985 73380
L75844 73380
L75788 73352
L75760 73295
L75760 73239
L75788 73183
L75844 73155
L75985 73155
L76041 73127
" />
<path d="M76575 73380
L76575 72789
" />
<path d="M76575 73352
L76519 73380
L76406 73380
L76350 73352
L76322 73323
L76294 73267
L76294 73099
L76322 73042
L76350 73014
L76406 72986
L76519 72986
L76575 73014
" />
<path d="M76716 73436
L77166 73436
" />
<path d="M77306 72986
L77306 73577
" />
<path d="M77306 73014
L77363 72986
L77475 72986
L77531 73014
L77559 73042
L77588 73099
L77588 73267
L77559 73323
L77531 73352
L77475 73380
L77363 73380
L77306 73352
" />
<path d="M78094 73352
L78037 73380
L77925 73380
L77869 73352
L77841 73323
L77813 73267
L77813 73099
L77841 73042
L77869 73014
L77925 72986
L78037 72986
L78094 73014
" />
<path d="M78347 73380
L78347 72789
" />
<path d="M78347 73014
L78403 72986
L78516 72986
L78572 73014
L78600 73042
L78628 73099
L78628 73267
L78600 73323
L78572 73352
L78516 73380
L78403 73380
L78347 73352
" />
<path d="M69685 71459
L112205 71459
" />
<path d="M70192 72289
L70276 72317
L70417 72317
L70473 72289
L70501 72260
L70529 72204
L70529 72148
L70501 72092
L70473 72064
L70417 72036
L70304 72007
L70248 71979
L70220 71951
L70192 71895
L70192 71839
L70220 71782
L70248 71754
L70304 71726
L70445 71726
L70529 71754
" />
<path d="M70782 72317
L70782 71726
" />
<path d="M71035 72317
L71035 72007
L71007 71951
L70951 71923
L70867 71923
L70810 71951
L70782 71979
" />
<path d="M71541 72289
L71485 72317
L71373 72317
L71316 72289
L71288 72232
L71288 72007
L71316 71951
L71373 71923
L71485 71923
L71541 71951
L71570 72007
L71570 72064
L71288 72120
" />
<path d="M72048 72289
L71991 72317
L71879 72317
L71823 72289
L71795 72232
L71795 72007
L71823 71951
L71879 71923
L71991 71923
L72048 71951
L72076 72007
L72076 72064
L71795 72120
" />
<path d="M72244 71923
L72469 71923
" />
<path d="M72329 71726
L72329 72232
L72357 72289
L72413 72317
L72469 72317
" />
<path d="M72666 72260
L72694 72289
L72666 72317
L72638 72289
L72666 72260
L72666 72317
" />
<path d="M72666 71951
L72694 71979
L72666 72007
L72638 71979
L72666 71951
L72666 72007
" />
<path d="M77559 75396
L77559 76577
" />
<path d="M102756 75396
L102756 77955
" />
</g>
<g style="fill:#000000; fill-opacity:0.0; 
stroke:#000000; stroke-width:39.3701; stroke-opacity:1; 
stroke-linecap:round; stroke-linejoin:round;">
<circle cx="71850.4" cy="7874.02" r="656.168" /> 
<path d="M70866 7874
L72834 7874
" />
<path d="M71850 6889
L71850 8858
" />
<circle cx="71850.4" cy="62992.1" r="656.168" /> 
<path d="M70866 62992
L72834 62992
" />
<path d="M71850 62007
L71850 63976
" />
<circle cx="101378" cy="62992.1" r="656.168" /> 
<path d="M100393 62992
L102362 62992
" />
<path d="M101377 62007
L101377 63976
" />
<path d="M66929 5905
L106299 5905
" />
<path d="M66929 64960
L66929 5905
" />
<path d="M106299 64960
L66929 64960
" />
<path d="M106299 5905
L106299 64960
" />
<path d="M10826 70866
L10826 5905
" />
<path d="M56102 70866
L10826 70866
" />
<path d="M56102 5905
L56102 70866
" />
<path d="M10826 5905
L56102 5905
" />
</g>
<g style="fill:#000000; fill-opacity:0.0; 
stroke:#000000; stroke-width:59.0551; stroke-opacity:1; 
stroke-linecap:round; stroke-linejoin:round;">
</g>
<g style="fill:#000000; fill-opacity:1.0; 
stroke:#000000; stroke-width:59.0551; stroke-opacity:1; 
stroke-linecap:round; stroke-linejoin:round;">
<circle cx="92212.6" cy="14818.6" r="261.972" /> 
<circle cx="92212.6" cy="15606.6" r="261.972" /> 
<circle cx="92712.6" cy="29068.6" r="261.972" /> 
<circle cx="92712.6" cy="29856.6" r="261.972" /> 
<circle cx="96068.6" cy="43962.6" r="261.972" /> 
<circle cx="96856.6" cy="43962.6" r="261.972" /> 
<circle cx="97712.6" cy="17606.6" r="261.972" /> 
<circle cx="97712.6" cy="16818.6" r="261.972" /> 
<circle cx="97712.6" cy="31856.6" r="261.972" /> 
<circle cx="97712.6" cy="31068.6" r="261.972" /> 
<circle cx="94856.6" cy="47962.6" r="261.972" /> 
<circle cx="94068.6" cy="47962.6" r="261.972" /> 
<polyline style="fill-rule:evenodd;"
points="93576,18826
92848,18826
92848,18098
93576,18098
93576,18826
" /> 
<circle cx="91212.6" cy="18462.6" r="363.972" /> 
<polyline style="fill-rule:evenodd;"
points="93576,33076
92848,33076
92848,32348
93576,32348
93576,33076
" /> 
<circle cx="91212.6" cy="32712.6" r="363.972" /> 
<polyline style="fill-rule:evenodd;"
points="93576,43348
93576,44076
92848,44076
92848,43348
93576,43348
" /> 
<circle cx="93212.6" cy="45712.6" r="363.972" /> 
<circle cx="97712.6" cy="9212.6" r="265.972" /> 
<circle cx="97712.6" cy="7212.6" r="265.972" /> 
<circle cx="97462.6" cy="23462.6" r="265.972" /> 
<circle cx="97462.6" cy="21462.6" r="265.972" /> 
<circle cx="102713" cy="49462.6" r="265.972" /> 
<circle cx="104713" cy="49462.6" r="265.972" /> 
<circle cx="93837.6" cy="39337.6" r="265.972" /> 
<circle cx="93837.6" cy="38337.6" r="265.972" /> 
<polyline style="fill-rule:evenodd;"
points="83386,58136
84113,58136
84113,58863
83386,58863
83386,58136
" /> 
<circle cx="85750" cy="58500" r="363.972" /> 
<circle cx="90337.6" cy="36087.6" r="265.972" /> 
<circle cx="91337.6" cy="36087.6" r="265.972" /> 
<circle cx="97087.6" cy="10587.6" r="265.972" /> 
<circle cx="96087.6" cy="10587.6" r="265.972" /> 
<circle cx="96962.6" cy="24962.6" r="265.972" /> 
<circle cx="95962.6" cy="24962.6" r="265.972" /> 
<circle cx="93462.6" cy="60962.6" r="265.972" /> 
<circle cx="95462.6" cy="60962.6" r="265.972" /> 
<circle cx="100963" cy="48712.6" r="265.972" /> 
<circle cx="100963" cy="47712.6" r="265.972" /> 
<circle cx="98962.6" cy="35962.6" r="265.972" /> 
<circle cx="97962.6" cy="35962.6" r="265.972" /> 
<circle cx="54452.8" cy="37626" r="363.972" /> 
<circle cx="48452.8" cy="37626" r="363.972" /> 
<circle cx="45952.8" cy="34126" r="363.972" /> 
<circle cx="45952.8" cy="38126" r="363.972" /> 
<circle cx="30452.8" cy="37626" r="363.972" /> 
<circle cx="24452.8" cy="37626" r="363.972" /> 
<circle cx="21952.8" cy="34126" r="363.972" /> 
<circle cx="21952.8" cy="38126" r="363.972" /> 
<polyline style="fill-rule:evenodd;"
points="36316,24262
36316,24989
35588,24989
35588,24262
36316,24262
" /> 
<circle cx="35952.8" cy="27626" r="363.972" /> 
<polyline style="fill-rule:evenodd;"
points="22588,27989
22588,27262
23316,27262
23316,27989
22588,27989
" /> 
<circle cx="22952.8" cy="24626" r="363.972" /> 
<polyline style="fill-rule:evenodd;"
points="43088,23762
43816,23762
43816,24489
43088,24489
43088,23762
" /> 
<circle cx="46452.8" cy="24126" r="363.972" /> 
<polyline style="fill-rule:evenodd;"
points="29816,24262
29816,24989
29088,24989
29088,24262
29816,24262
" /> 
<circle cx="29452.8" cy="27626" r="363.972" /> 
<polyline style="fill-rule:evenodd;"
points="16088,27989
16088,27262
16816,27262
16816,27989
16088,27989
" /> 
<circle cx="16452.8" cy="24626" r="363.972" /> 
<circle cx="45452.8" cy="15126" r="265.972" /> 
<circle cx="45452.8" cy="16126" r="265.972" /> 
<circle cx="30952.8" cy="21126" r="265.972" /> 
<circle cx="31952.8" cy="21126" r="265.972" /> 
<circle cx="17452.8" cy="21126" r="265.972" /> 
<circle cx="16452.8" cy="21126" r="265.972" /> 
<polyline style="fill-rule:evenodd;"
points="45088,19489
45088,18762
45816,18762
45816,19489
45088,19489
" /> 
<circle cx="45452.8" cy="18126" r="363.972" /> 
<polyline style="fill-rule:evenodd;"
points="35316,21489
34588,21489
34588,20762
35316,20762
35316,21489
" /> 
<circle cx="33952.8" cy="21126" r="363.972" /> 
<polyline style="fill-rule:evenodd;"
points="19088,20762
19816,20762
19816,21489
19088,21489
19088,20762
" /> 
<circle cx="20452.8" cy="21126" r="363.972" /> 
<circle cx="73962.6" cy="36012.6" r="462.472" /> 
<circle cx="79962.6" cy="36012.6" r="462.472" /> 
<circle cx="73937.6" cy="12987.6" r="462.472" /> 
<circle cx="79937.6" cy="12987.6" r="462.472" /> 
<polyline style="fill-rule:evenodd;"
points="74326,38598
74326,39326
73598,39326
73598,38598
74326,38598
" /> 
<circle cx="73962.6" cy="39962.6" r="363.972" /> 
<polyline style="fill-rule:evenodd;"
points="74301,15573
74301,16301
73573,16301
73573,15573
74301,15573
" /> 
<circle cx="73937.6" cy="16937.6" r="363.972" /> 
<circle cx="78356.6" cy="42462.6" r="261.972" /> 
<circle cx="77568.6" cy="42462.6" r="261.972" /> 
<circle cx="78331.6" cy="19437.6" r="261.972" /> 
<circle cx="77543.6" cy="19437.6" r="261.972" /> 
<circle cx="74962.6" cy="42962.6" r="265.972" /> 
<circle cx="73962.6" cy="42962.6" r="265.972" /> 
<circle cx="75962.6" cy="48962.6" r="265.972" /> 
<circle cx="74962.6" cy="48962.6" r="265.972" /> 
<circle cx="74937.6" cy="19937.6" r="265.972" /> 
<circle cx="73937.6" cy="19937.6" r="265.972" /> 
<circle cx="75937.6" cy="25937.6" r="265.972" /> 
<circle cx="74937.6" cy="25937.6" r="265.972" /> 
<circle cx="96212.6" cy="9212.6" r="363.972" /> 
<polyline style="fill-rule:evenodd;"
points="92576,8848
92576,9576
91848,9576
91848,8848
92576,8848
" /> 
<circle cx="95962.6" cy="23462.6" r="363.972" /> 
<polyline style="fill-rule:evenodd;"
points="92326,23098
92326,23826
91598,23826
91598,23098
92326,23098
" /> 
<circle cx="102713" cy="47962.6" r="363.972" /> 
<polyline style="fill-rule:evenodd;"
points="103076,44326
102348,44326
102348,43598
103076,43598
103076,44326
" /> 
<circle cx="95712.6" cy="62962.6" r="363.972" /> 
<polyline style="fill-rule:evenodd;"
points="92076,62598
92076,63326
91348,63326
91348,62598
92076,62598
" /> 
<circle cx="44952.8" cy="31126" r="363.972" /> 
<polyline style="fill-rule:evenodd;"
points="48588,31489
48588,30762
49316,30762
49316,31489
48588,31489
" /> 
<circle cx="48952.8" cy="28626" r="363.972" /> 
<polyline style="fill-rule:evenodd;"
points="45316,28262
45316,28989
44588,28989
44588,28262
45316,28262
" /> 
<circle cx="35952.8" cy="38126" r="470.472" /> 
<polyline style="fill-rule:evenodd;"
points="36423,32596
35482,32596
35482,31655
36423,31655
36423,32596
" /> 
<circle cx="33452.8" cy="32126" r="470.472" /> 
<polyline style="fill-rule:evenodd;"
points="32982,37655
33923,37655
33923,38596
32982,38596
32982,37655
" /> 
<circle cx="54452.8" cy="31126" r="363.972" /> 
<polyline style="fill-rule:evenodd;"
points="50816,30762
50816,31489
50088,31489
50088,30762
50816,30762
" /> 
<circle cx="50452.8" cy="28626" r="363.972" /> 
<polyline style="fill-rule:evenodd;"
points="54088,28989
54088,28262
54816,28262
54816,28989
54088,28989
" /> 
<circle cx="18952.8" cy="38126" r="470.472" /> 
<polyline style="fill-rule:evenodd;"
points="19423,32596
18482,32596
18482,31655
19423,31655
19423,32596
" /> 
<circle cx="16452.8" cy="32126" r="470.472" /> 
<polyline style="fill-rule:evenodd;"
points="15982,37655
16923,37655
16923,38596
15982,38596
15982,37655
" /> 
<circle cx="47952.8" cy="19126" r="363.972" /> 
<polyline style="fill-rule:evenodd;"
points="48316,15489
47588,15489
47588,14762
48316,14762
48316,15489
" /> 
<circle cx="34952.8" cy="19126" r="363.972" /> 
<polyline style="fill-rule:evenodd;"
points="31316,18762
31316,19489
30588,19489
30588,18762
31316,18762
" /> 
<circle cx="16452.8" cy="19126" r="363.972" /> 
<polyline style="fill-rule:evenodd;"
points="20088,19489
20088,18762
20816,18762
20816,19489
20088,19489
" /> 
<circle cx="71962.6" cy="54962.6" r="304.972" /> 
<polyline style="fill-rule:evenodd;"
points="72267,51267
71657,51267
71657,50657
72267,50657
72267,51267
" /> 
<circle cx="79962.6" cy="54962.6" r="304.972" /> 
<polyline style="fill-rule:evenodd;"
points="76267,54657
76267,55267
75657,55267
75657,54657
76267,54657
" /> 
<circle cx="70962.6" cy="50962.6" r="304.972" /> 
<polyline style="fill-rule:evenodd;"
points="70657,54657
71267,54657
71267,55267
70657,55267
70657,54657
" /> 
<circle cx="75962.6" cy="56462.6" r="304.972" /> 
<polyline style="fill-rule:evenodd;"
points="79657,56767
79657,56157
80267,56157
80267,56767
79657,56767
" /> 
<circle cx="71937.6" cy="31937.6" r="304.972" /> 
<polyline style="fill-rule:evenodd;"
points="72242,28242
71632,28242
71632,27632
72242,27632
72242,28242
" /> 
<circle cx="79937.6" cy="31937.6" r="304.972" /> 
<polyline style="fill-rule:evenodd;"
points="76242,31632
76242,32242
75632,32242
75632,31632
76242,31632
" /> 
<circle cx="70937.6" cy="27937.6" r="304.972" /> 
<polyline style="fill-rule:evenodd;"
points="70632,31632
71242,31632
71242,32242
70632,32242
70632,31632
" /> 
<circle cx="75937.6" cy="33437.6" r="304.972" /> 
<polyline style="fill-rule:evenodd;"
points="79632,33742
79632,33132
80242,33132
80242,33742
79632,33742
" /> 
</g>
<g style="fill:#000000; fill-opacity:1.0; 
stroke:#000000; stroke-width:709; stroke-opacity:1; 
stroke-linecap:round; stroke-linejoin:round;">
<path d="M36952 8960
L36952 8291
" />
<path d="M35952 8960
L35952 8291
" />
<path d="M34952 8960
L34952 8291
" />
<path d="M33952 8960
L33952 8291
" />
<path d="M32952 8960
L32952 8291
" />
<path d="M31952 8960
L31952 8291
" />
<path d="M83750 51665
L83750 52334
" />
<path d="M84750 51665
L84750 52334
" />
<path d="M85750 51665
L85750 52334
" />
<path d="M86750 51665
L86750 52334
" />
<path d="M87750 51665
L87750 52334
" />
<path d="M88750 51665
L88750 52334
" />
</g>
<g style="fill:#000000; fill-opacity:1.0; 
stroke:#000000; stroke-width:59.0551; stroke-opacity:1; 
stroke-linecap:round; stroke-linejoin:round;">
<circle cx="78000" cy="61500" r="770.472" /> 
</g>
<g style="fill:#000000; fill-opacity:1.0; 
stroke:#000000; stroke-width:709; stroke-opacity:1; 
stroke-linecap:round; stroke-linejoin:round;">
<path d="M69547 37462
L68878 37462
" />
<path d="M69547 38462
L68878 38462
" />
<path d="M69547 14462
L68878 14462
" />
<path d="M69547 15462
L68878 15462
" />
<path d="M69547 40462
L68878 40462
" />
<path d="M69547 41462
L68878 41462
" />
<path d="M69522 17437
L68853 17437
" />
<path d="M69522 18437
L68853 18437
" />
<path d="M88212 60628
L88212 61297
" />
<path d="M89212 60628
L89212 61297
" />
<path d="M86250 15834
L86250 15165
" />
<path d="M85250 15834
L85250 15165
" />
<path d="M84250 15834
L84250 15165
" />
<path d="M83250 15834
L83250 15165
" />
</g>
<g style="fill:#000000; fill-opacity:1.0; 
stroke:#000000; stroke-width:59.0551; stroke-opacity:1; 
stroke-linecap:round; stroke-linejoin:round;">
<circle cx="45952.8" cy="66626" r="770.472" /> 
<circle cx="51952.8" cy="61126" r="770.472" /> 
<circle cx="47952.8" cy="61126" r="770.472" /> 
<circle cx="43952.8" cy="61126" r="770.472" /> 
<circle cx="39952.8" cy="61126" r="770.472" /> 
</g>
<g style="fill:#000000; fill-opacity:1.0; 
stroke:#000000; stroke-width:669; stroke-opacity:1; 
stroke-linecap:round; stroke-linejoin:round;">
<path d="M102108 14712
L102817 14712
" />
<path d="M102108 13712
L102817 13712
" />
<path d="M102108 15712
L102817 15712
" />
<path d="M102108 28962
L102817 28962
" />
<path d="M102108 27962
L102817 27962
" />
<path d="M102108 29962
L102817 29962
" />
<path d="M96962 53858
L96962 54567
" />
<path d="M97962 53858
L97962 54567
" />
<path d="M95962 53858
L95962 54567
" />
</g>
<g style="fill:#000000; fill-opacity:1.0; 
stroke:#000000; stroke-width:59.0551; stroke-opacity:1; 
stroke-linecap:round; stroke-linejoin:round;">
<circle cx="95931.6" cy="21962.6" r="363.972" /> 
<circle cx="91931.6" cy="21962.6" r="363.972" /> 
<circle cx="104213" cy="43993.6" r="363.972" /> 
<circle cx="104213" cy="47993.6" r="363.972" /> 
<circle cx="91493.6" cy="59712.6" r="363.972" /> 
<circle cx="95493.6" cy="59712.6" r="363.972" /> 
<circle cx="95250" cy="41219" r="363.972" /> 
<circle cx="95250" cy="37219" r="363.972" /> 
<circle cx="100682" cy="34712.6" r="363.972" /> 
<circle cx="96681.6" cy="34712.6" r="363.972" /> 
<circle cx="48499.8" cy="34126" r="363.972" /> 
<circle cx="54499.8" cy="34126" r="363.972" /> 
<circle cx="24515.5" cy="35063" r="363.972" /> 
<circle cx="30515.5" cy="35063" r="363.972" /> 
<circle cx="71962.6" cy="35993.6" r="363.972" /> 
<circle cx="71962.6" cy="39993.6" r="363.972" /> 
<circle cx="71962.6" cy="12993.6" r="363.972" /> 
<circle cx="71962.6" cy="16993.6" r="363.972" /> 
<circle cx="75993.6" cy="38462.6" r="363.972" /> 
<circle cx="79993.6" cy="38462.6" r="363.972" /> 
<circle cx="75968.6" cy="15437.6" r="363.972" /> 
<circle cx="79968.6" cy="15437.6" r="363.972" /> 
<circle cx="75993.6" cy="39962.6" r="363.972" /> 
<circle cx="79993.6" cy="39962.6" r="363.972" /> 
<circle cx="75968.6" cy="16937.6" r="363.972" /> 
<circle cx="79968.6" cy="16937.6" r="363.972" /> 
<circle cx="79962.6" cy="45431.6" r="363.972" /> 
<circle cx="79962.6" cy="41431.6" r="363.972" /> 
<circle cx="80062.6" cy="22531.6" r="363.972" /> 
<circle cx="80062.6" cy="18531.6" r="363.972" /> 
<circle cx="79931.6" cy="51962.6" r="363.972" /> 
<circle cx="75931.6" cy="51962.6" r="363.972" /> 
<circle cx="79931.6" cy="50462.6" r="363.972" /> 
<circle cx="75931.6" cy="50462.6" r="363.972" /> 
<circle cx="73212.6" cy="50993.6" r="363.972" /> 
<circle cx="73212.6" cy="54993.6" r="363.972" /> 
<circle cx="75993.6" cy="53462.6" r="363.972" /> 
<circle cx="79993.6" cy="53462.6" r="363.972" /> 
<circle cx="69462.6" cy="54931.6" r="363.972" /> 
<circle cx="69462.6" cy="50931.6" r="363.972" /> 
<circle cx="76431.6" cy="41462.6" r="363.972" /> 
<circle cx="72431.6" cy="41462.6" r="363.972" /> 
<circle cx="67962.6" cy="54931.6" r="363.972" /> 
<circle cx="67962.6" cy="50931.6" r="363.972" /> 
<circle cx="72431.6" cy="42962.6" r="363.972" /> 
<circle cx="68431.6" cy="42962.6" r="363.972" /> 
<circle cx="79906.6" cy="28937.6" r="363.972" /> 
<circle cx="75906.6" cy="28937.6" r="363.972" /> 
<circle cx="79906.6" cy="27437.6" r="363.972" /> 
<circle cx="75906.6" cy="27437.6" r="363.972" /> 
<circle cx="73406.6" cy="25937.6" r="363.972" /> 
<circle cx="69406.6" cy="25937.6" r="363.972" /> 
<circle cx="74687.6" cy="27968.6" r="363.972" /> 
<circle cx="74687.6" cy="31968.6" r="363.972" /> 
<circle cx="73187.6" cy="27968.6" r="363.972" /> 
<circle cx="73187.6" cy="31968.6" r="363.972" /> 
<circle cx="75968.6" cy="30437.6" r="363.972" /> 
<circle cx="79968.6" cy="30437.6" r="363.972" /> 
<circle cx="69437.6" cy="31906.6" r="363.972" /> 
<circle cx="69437.6" cy="27906.6" r="363.972" /> 
<circle cx="76406.6" cy="18437.6" r="363.972" /> 
<circle cx="72406.6" cy="18437.6" r="363.972" /> 
<circle cx="67937.6" cy="31906.6" r="363.972" /> 
<circle cx="67937.6" cy="27906.6" r="363.972" /> 
<circle cx="72406.6" cy="19937.6" r="363.972" /> 
<circle cx="68406.6" cy="19937.6" r="363.972" /> 
<circle cx="39952.8" cy="44126" r="570.472" /> 
<circle cx="39952.8" cy="46626" r="570.472" /> 
<circle cx="39952.8" cy="50126" r="570.472" /> 
<circle cx="39952.8" cy="52626" r="570.472" /> 
<circle cx="52752.8" cy="44126" r="570.472" /> 
<circle cx="52752.8" cy="46626" r="570.472" /> 
<circle cx="52752.8" cy="50126" r="570.472" /> 
<circle cx="52752.8" cy="52626" r="570.472" /> 
<circle cx="18452.8" cy="60626" r="570.472" /> 
<circle cx="22452.8" cy="60626" r="570.472" /> 
<circle cx="26452.8" cy="60626" r="570.472" /> 
<circle cx="30452.8" cy="60626" r="570.472" /> 
<circle cx="18452.8" cy="42126" r="570.472" /> 
<circle cx="22452.8" cy="42126" r="570.472" /> 
<circle cx="26452.8" cy="42126" r="570.472" /> 
<circle cx="30452.8" cy="42126" r="570.472" /> 
</g>
<g style="fill:#000000; fill-opacity:1.0; 
stroke:#000000; stroke-width:669; stroke-opacity:1; 
stroke-linecap:round; stroke-linejoin:round;">
<path d="M99108 9462
L99817 9462
" />
<path d="M99108 8462
L99817 8462
" />
<path d="M99108 10462
L99817 10462
" />
<path d="M98858 23962
L99567 23962
" />
<path d="M98858 22962
L99567 22962
" />
<path d="M98858 24962
L99567 24962
" />
<path d="M101962 52067
L101962 51358
" />
<path d="M100962 52067
L100962 51358
" />
<path d="M102962 52067
L102962 51358
" />
</g>
<g style="fill:#000000; fill-opacity:1.0; 
stroke:#000000; stroke-width:59.0551; stroke-opacity:1; 
stroke-linecap:round; stroke-linejoin:round;">
<polyline style="fill-rule:evenodd;"
points="92758,41118
91917,41118
91917,40557
92758,40557
92758,41118
" /> 
</g>
<g style="fill:#000000; fill-opacity:1.0; 
stroke:#000000; stroke-width:620; stroke-opacity:1; 
stroke-linecap:round; stroke-linejoin:round;">
<path d="M92197 39837
L92477 39837
" />
<path d="M92197 38837
L92477 38837
" />
<path d="M92197 37837
L92477 37837
" />
<path d="M89197 37837
L89477 37837
" />
<path d="M89197 38837
L89477 38837
" />
<path d="M89197 39837
L89477 39837
" />
<path d="M89197 40837
L89477 40837
" />
</g>
<g style="fill:#000000; fill-opacity:1.0; 
stroke:#000000; stroke-width:669; stroke-opacity:1; 
stroke-linecap:round; stroke-linejoin:round;">
<path d="M97358 61462
L98067 61462
" />
<path d="M97358 60462
L98067 60462
" />
<path d="M97358 62462
L98067 62462
" />
</g>
<g style="fill:#000000; fill-opacity:1.0; 
stroke:#000000; stroke-width:59.0551; stroke-opacity:1; 
stroke-linecap:round; stroke-linejoin:round;">
<circle cx="41452.8" cy="37126" r="270.472" /> 
<circle cx="43452.8" cy="37126" r="270.472" /> 
<circle cx="37952.8" cy="37126" r="270.472" /> 
<circle cx="39952.8" cy="37126" r="270.472" /> 
</g>
<g style="fill:#000000; fill-opacity:1.0; 
stroke:#000000; stroke-width:669; stroke-opacity:1; 
stroke-linecap:round; stroke-linejoin:round;">
<path d="M50598 19625
L51307 19625
" />
<path d="M50598 18625
L51307 18625
" />
<path d="M50598 20625
L51307 20625
" />
<path d="M32952 16980
L32952 16271
" />
<path d="M31952 16980
L31952 16271
" />
<path d="M33952 16980
L33952 16271
" />
<path d="M18452 16980
L18452 16271
" />
<path d="M17452 16980
L17452 16271
" />
<path d="M19452 16980
L19452 16271
" />
</g>
<g style="fill:#000000; fill-opacity:1.0; 
stroke:#000000; stroke-width:59.0551; stroke-opacity:1; 
stroke-linecap:round; stroke-linejoin:round;">
<polyline style="fill-rule:evenodd;"
points="78243,44042
78243,44883
77682,44883
77682,44042
78243,44042
" /> 
</g>
<g style="fill:#000000; fill-opacity:1.0; 
stroke:#000000; stroke-width:620; stroke-opacity:1; 
stroke-linecap:round; stroke-linejoin:round;">
<path d="M76962 44602
L76962 44322
" />
<path d="M75962 44602
L75962 44322
" />
<path d="M74962 44602
L74962 44322
" />
<path d="M73962 44602
L73962 44322
" />
<path d="M72962 44602
L72962 44322
" />
<path d="M71962 44602
L71962 44322
" />
<path d="M71962 47602
L71962 47322
" />
<path d="M72962 47602
L72962 47322
" />
<path d="M73962 47602
L73962 47322
" />
<path d="M74962 47602
L74962 47322
" />
<path d="M75962 47602
L75962 47322
" />
<path d="M76962 47602
L76962 47322
" />
<path d="M77962 47602
L77962 47322
" />
</g>
<g style="fill:#000000; fill-opacity:1.0; 
stroke:#000000; stroke-width:59.0551; stroke-opacity:1; 
stroke-linecap:round; stroke-linejoin:round;">
<polyline style="fill-rule:evenodd;"
points="78218,21017
78218,21858
77657,21858
77657,21017
78218,21017
" /> 
</g>
<g style="fill:#000000; fill-opacity:1.0; 
stroke:#000000; stroke-width:620; stroke-opacity:1; 
stroke-linecap:round; stroke-linejoin:round;">
<path d="M76937 21577
L76937 21297
" />
<path d="M75937 21577
L75937 21297
" />
<path d="M74937 21577
L74937 21297
" />
<path d="M73937 21577
L73937 21297
" />
<path d="M72937 21577
L72937 21297
" />
<path d="M71937 21577
L71937 21297
" />
<path d="M71937 24577
L71937 24297
" />
<path d="M72937 24577
L72937 24297
" />
<path d="M73937 24577
L73937 24297
" />
<path d="M74937 24577
L74937 24297
" />
<path d="M75937 24577
L75937 24297
" />
<path d="M76937 24577
L76937 24297
" />
<path d="M77937 24577
L77937 24297
" />
</g>
<g style="fill:#000000; fill-opacity:1.0; 
stroke:#000000; stroke-width:59.0551; stroke-opacity:1; 
stroke-linecap:round; stroke-linejoin:round;">
<circle cx="52452.8" cy="14626" r="1151.47" /> 
<circle cx="52452.8" cy="24626" r="1151.47" /> 
<circle cx="13452.8" cy="15126" r="1151.47" /> 
<circle cx="23452.8" cy="15126" r="1151.47" /> 
<circle cx="37952.8" cy="15126" r="1151.47" /> 
<circle cx="27952.8" cy="15126" r="1151.47" /> 
<circle cx="74712.6" cy="50993.6" r="363.972" /> 
<circle cx="74712.6" cy="54993.6" r="363.972" /> 
<circle cx="73431.6" cy="48962.6" r="363.972" /> 
<circle cx="69431.6" cy="48962.6" r="363.972" /> 
<polyline style="fill-rule:evenodd;"
points="94667,12057
95508,12057
95508,12618
94667,12618
94667,12057
" /> 
</g>
<g style="fill:#000000; fill-opacity:1.0; 
stroke:#000000; stroke-width:620; stroke-opacity:1; 
stroke-linecap:round; stroke-linejoin:round;">
<path d="M95227 13337
L94947 13337
" />
<path d="M95227 14337
L94947 14337
" />
<path d="M95227 15337
L94947 15337
" />
<path d="M98227 15337
L97947 15337
" />
<path d="M98227 14337
L97947 14337
" />
<path d="M98227 13337
L97947 13337
" />
<path d="M98227 12337
L97947 12337
" />
</g>
<g style="fill:#000000; fill-opacity:1.0; 
stroke:#000000; stroke-width:59.0551; stroke-opacity:1; 
stroke-linecap:round; stroke-linejoin:round;">
<polyline style="fill-rule:evenodd;"
points="94542,26432
95383,26432
95383,26993
94542,26993
94542,26432
" /> 
</g>
<g style="fill:#000000; fill-opacity:1.0; 
stroke:#000000; stroke-width:620; stroke-opacity:1; 
stroke-linecap:round; stroke-linejoin:round;">
<path d="M95102 27712
L94822 27712
" />
<path d="M95102 28712
L94822 28712
" />
<path d="M95102 29712
L94822 29712
" />
<path d="M98102 29712
L97822 29712
" />
<path d="M98102 28712
L97822 28712
" />
<path d="M98102 27712
L97822 27712
" />
<path d="M98102 26712
L97822 26712
" />
</g>
<g style="fill:#000000; fill-opacity:1.0; 
stroke:#000000; stroke-width:59.0551; stroke-opacity:1; 
stroke-linecap:round; stroke-linejoin:round;">
<polyline style="fill-rule:evenodd;"
points="99493,46292
99493,47133
98932,47133
98932,46292
99493,46292
" /> 
</g>
<g style="fill:#000000; fill-opacity:1.0; 
stroke:#000000; stroke-width:620; stroke-opacity:1; 
stroke-linecap:round; stroke-linejoin:round;">
<path d="M98212 46852
L98212 46572
" />
<path d="M97212 46852
L97212 46572
" />
<path d="M96212 46852
L96212 46572
" />
<path d="M96212 49852
L96212 49572
" />
<path d="M97212 49852
L97212 49572
" />
<path d="M98212 49852
L98212 49572
" />
<path d="M99212 49852
L99212 49572
" />
</g>
<g style="fill:#000000; fill-opacity:1.0; 
stroke:#000000; stroke-width:59.0551; stroke-opacity:1; 
stroke-linecap:round; stroke-linejoin:round;">
<polyline style="fill-rule:evenodd;"
points="96417,37057
97258,37057
97258,37618
96417,37618
96417,37057
" /> 
</g>
<g style="fill:#000000; fill-opacity:1.0; 
stroke:#000000; stroke-width:620; stroke-opacity:1; 
stroke-linecap:round; stroke-linejoin:round;">
<path d="M96977 38337
L96697 38337
" />
<path d="M96977 39337
L96697 39337
" />
<path d="M96977 40337
L96697 40337
" />
<path d="M99977 40337
L99697 40337
" />
<path d="M99977 39337
L99697 39337
" />
<path d="M99977 38337
L99697 38337
" />
<path d="M99977 37337
L99697 37337
" />
</g>
<g style="fill:#000000; fill-opacity:1.0; 
stroke:#000000; stroke-width:59.0551; stroke-opacity:1; 
stroke-linecap:round; stroke-linejoin:round;">
<circle cx="91962.6" cy="55712.6" r="1151.47" /> 
<circle cx="101963" cy="55712.6" r="1151.47" /> 
<circle cx="103963" cy="33962.6" r="1151.47" /> 
<circle cx="103963" cy="23962.6" r="1151.47" /> 
<circle cx="103963" cy="19712.6" r="1151.47" /> 
<circle cx="103963" cy="9712.6" r="1151.47" /> 
<circle cx="99962.6" cy="13228.6" r="363.972" /> 
<circle cx="99962.6" cy="15197.6" r="363.972" /> 
<circle cx="99962.6" cy="16978.6" r="363.972" /> 
<circle cx="99962.6" cy="18947.6" r="363.972" /> 
<circle cx="92250" cy="12734" r="363.972" /> 
<circle cx="92250" cy="10765" r="363.972" /> 
<circle cx="98196.6" cy="51712.6" r="363.972" /> 
<circle cx="96227.6" cy="51712.6" r="363.972" /> 
<circle cx="94446.6" cy="51712.6" r="363.972" /> 
<circle cx="92477.6" cy="51712.6" r="363.972" /> 
<circle cx="99516" cy="44000" r="363.972" /> 
<circle cx="101485" cy="44000" r="363.972" /> 
<circle cx="99962.6" cy="31478.6" r="363.972" /> 
<circle cx="99962.6" cy="33447.6" r="363.972" /> 
<circle cx="90962.6" cy="29681.6" r="363.972" /> 
<circle cx="90962.6" cy="25681.6" r="363.972" /> 
<circle cx="93000" cy="27484" r="363.972" /> 
<circle cx="93000" cy="25515" r="363.972" /> 
<circle cx="99962.6" cy="27728.6" r="363.972" /> 
<circle cx="99962.6" cy="29697.6" r="363.972" /> 
<circle cx="96181.6" cy="7712.6" r="363.972" /> 
<circle cx="92181.6" cy="7712.6" r="363.972" /> 
<circle cx="95462.6" cy="18946.6" r="363.972" /> 
<circle cx="95462.6" cy="16977.6" r="363.972" /> 
<circle cx="95462.6" cy="33196.6" r="363.972" /> 
<circle cx="95462.6" cy="31227.6" r="363.972" /> 
<circle cx="94571.6" cy="35587.6" r="363.972" /> 
<circle cx="92602.6" cy="35587.6" r="363.972" /> 
<circle cx="102182" cy="41962.6" r="363.972" /> 
<circle cx="98181.6" cy="41962.6" r="363.972" /> 
<circle cx="80712.6" cy="24962.6" r="265.972" /> 
<circle cx="80712.6" cy="23962.6" r="265.972" /> 
<circle cx="79962.6" cy="47962.6" r="265.972" /> 
<circle cx="79962.6" cy="46962.6" r="265.972" /> 
<circle cx="87750" cy="50000" r="364.173" /> 
<circle cx="95500" cy="45750" r="364.173" /> 
<circle cx="94750" cy="42750" r="364.173" /> 
<circle cx="70750" cy="39500" r="364.173" /> 
<circle cx="94250" cy="30750" r="364.173" /> 
<circle cx="89250" cy="18250" r="364.173" /> 
<circle cx="68750" cy="12750" r="364.173" /> 
<circle cx="90212.6" cy="34212.6" r="364.173" /> 
<circle cx="82962.6" cy="34212.6" r="145.472" /> 
<circle cx="82962.6" cy="26212.6" r="145.472" /> 
<circle cx="82962.6" cy="22712.6" r="145.472" /> 
<circle cx="90212.6" cy="47962.6" r="364.173" /> 
<circle cx="85462.6" cy="47962.6" r="145.472" /> 
<circle cx="84462.6" cy="44962.6" r="145.472" /> 
<circle cx="89462.6" cy="44962.6" r="364.173" /> 
<circle cx="83462.6" cy="43962.6" r="145.472" /> 
<circle cx="81712.6" cy="22712.6" r="145.472" /> 
<circle cx="81712.6" cy="26212.6" r="145.472" /> 
<circle cx="89462.6" cy="43962.6" r="364.173" /> 
<circle cx="90750" cy="50000" r="364.173" /> 
<circle cx="93462.6" cy="20712.6" r="145.472" /> 
<circle cx="95462.6" cy="20712.6" r="145.472" /> 
<circle cx="95212.6" cy="49962.6" r="364.173" /> 
<circle cx="86712.6" cy="41962.6" r="364.173" /> 
<circle cx="89462.6" cy="41962.6" r="364.173" /> 
<circle cx="87750" cy="22750" r="364.173" /> 
<circle cx="87750" cy="12750" r="364.173" /> 
<circle cx="93962.6" cy="29462.6" r="145.472" /> 
<circle cx="93962.6" cy="26962.6" r="145.472" /> 
<circle cx="87712.6" cy="24462.6" r="364.173" /> 
<circle cx="93212.6" cy="24462.6" r="364.173" /> 
<circle cx="93962.6" cy="15212.6" r="145.472" /> 
<circle cx="93962.6" cy="12712.6" r="145.472" /> 
<circle cx="98962.6" cy="45712.6" r="145.472" /> 
<circle cx="96462.6" cy="45712.6" r="145.472" /> 
<circle cx="27218.5" cy="29563" r="145.472" /> 
<circle cx="27218.5" cy="33563" r="145.472" /> 
<circle cx="32952.8" cy="22626" r="145.472" /> 
<circle cx="29452.8" cy="22626" r="145.472" /> 
<circle cx="81462.6" cy="48962.6" r="145.472" /> 
<circle cx="81462.6" cy="45962.6" r="145.472" /> 
<circle cx="79462.6" cy="25962.6" r="145.472" /> 
<circle cx="79462.6" cy="22462.6" r="145.472" /> 
</g>
<g style="fill:#000000; fill-opacity:1.0; 
stroke:#000000; stroke-width:787.402; stroke-opacity:1; 
stroke-linecap:round; stroke-linejoin:round;">
<path d="M90212 34212
L82962 34212
" />
<path d="M82962 22712
L82962 26212
" />
<path d="M85500 48000
L85462 47962
" />
<path d="M90250 48000
L85500 48000
" />
<path d="M90212 47962
L90250 48000
" />
<path d="M89462 44962
L84462 44962
" />
<path d="M81712 26212
L81712 22712
" />
<path d="M89462 43962
L83462 43962
" />
</g>
<g style="fill:#000000; fill-opacity:1.0; 
stroke:#000000; stroke-width:393.701; stroke-opacity:1; 
stroke-linecap:round; stroke-linejoin:round;">
<path d="M90750 50000
L90750 49962
" />
<path d="M90750 49962
L90750 50000
" />
<path d="M90750 50000
L90750 49962
" />
</g>
<g style="fill:#000000; fill-opacity:1.0; 
stroke:#000000; stroke-width:787.402; stroke-opacity:1; 
stroke-linecap:round; stroke-linejoin:round;">
<path d="M93462 20712
L95462 20712
" />
</g>
<g style="fill:#000000; fill-opacity:1.0; 
stroke:#000000; stroke-width:393.701; stroke-opacity:1; 
stroke-linecap:round; stroke-linejoin:round;">
<path d="M95212 49962
L90750 49962
" />
<path d="M89462 41962
L86712 41962
" />
</g>
<g style="fill:#000000; fill-opacity:1.0; 
stroke:#000000; stroke-width:787.402; stroke-opacity:1; 
stroke-linecap:round; stroke-linejoin:round;">
<path d="M87750 12750
L87750 22750
" />
</g>
<g style="fill:#000000; fill-opacity:1.0; 
stroke:#000000; stroke-width:393.701; stroke-opacity:1; 
stroke-linecap:round; stroke-linejoin:round;">
<path d="M93962 26962
L93962 29462
" />
<path d="M93212 24462
L87712 24462
" />
<path d="M96462 45712
L98962 45712
" />
<path d="M93962 15212
L93962 12712
" />
<path d="M81462 45962
L81462 48962
" />
<path d="M79462 22462
L79462 25962
" />
</g>
<g style="fill:#FFFFFF; fill-opacity:1.0; 
stroke:#FFFFFF; stroke-width:59.0551; stroke-opacity:1; 
stroke-linecap:round; stroke-linejoin:round;">
<circle cx="87750" cy="50000" r="39.3701" /> 
<circle cx="95500" cy="45750" r="39.3701" /> 
<circle cx="94750" cy="42750" r="39.3701" /> 
<circle cx="70750" cy="39500" r="39.3701" /> 
<circle cx="94250" cy="30750" r="39.3701" /> 
<circle cx="89250" cy="18250" r="39.3701" /> 
<circle cx="68750" cy="12750" r="39.3701" /> 
<circle cx="90212.6" cy="34212.6" r="39.3701" /> 
<circle cx="82962.6" cy="34212.6" r="39.3701" /> 
<circle cx="82962.6" cy="26212.6" r="39.3701" /> 
<circle cx="82962.6" cy="22712.6" r="39.3701" /> 
<circle cx="90212.6" cy="47962.6" r="39.3701" /> 
<circle cx="85462.6" cy="47962.6" r="39.3701" /> 
<circle cx="84462.6" cy="44962.6" r="39.3701" /> 
<circle cx="89462.6" cy="44962.6" r="39.3701" /> 
<circle cx="83462.6" cy="43962.6" r="39.3701" /> 
<circle cx="81712.6" cy="22712.6" r="39.3701" /> 
<circle cx="81712.6" cy="26212.6" r="39.3701" /> 
<circle cx="89462.6" cy="43962.6" r="39.3701" /> 
<circle cx="90750" cy="50000" r="39.3701" /> 
<circle cx="93462.6" cy="20712.6" r="39.3701" /> 
<circle cx="95462.6" cy="20712.6" r="39.3701" /> 
<circle cx="95212.6" cy="49962.6" r="39.3701" /> 
<circle cx="86712.6" cy="41962.6" r="39.3701" /> 
<circle cx="89462.6" cy="41962.6" r="39.3701" /> 
<circle cx="87750" cy="22750" r="39.3701" /> 
<circle cx="87750" cy="12750" r="39.3701" /> 
<circle cx="93962.6" cy="29462.6" r="39.3701" /> 
<circle cx="93962.6" cy="26962.6" r="39.3701" /> 
<circle cx="87712.6" cy="24462.6" r="39.3701" /> 
<circle cx="93212.6" cy="24462.6" r="39.3701" /> 
<circle cx="93962.6" cy="15212.6" r="39.3701" /> 
<circle cx="93962.6" cy="12712.6" r="39.3701" /> 
<circle cx="98962.6" cy="45712.6" r="39.3701" /> 
<circle cx="96462.6" cy="45712.6" r="39.3701" /> 
<circle cx="27218.5" cy="29563" r="39.3701" /> 
<circle cx="27218.5" cy="33563" r="39.3701" /> 
<circle cx="32952.8" cy="22626" r="39.3701" /> 
<circle cx="29452.8" cy="22626" r="39.3701" /> 
<circle cx="81462.6" cy="48962.6" r="39.3701" /> 
<circle cx="81462.6" cy="45962.6" r="39.3701" /> 
<circle cx="79462.6" cy="25962.6" r="39.3701" /> 
<circle cx="79462.6" cy="22462.6" r="39.3701" /> 
<circle cx="14763.8" cy="9842.52" r="39.3701" /> 
<circle cx="52165.4" cy="9842.52" r="39.3701" /> 
<circle cx="14763.8" cy="66929.1" r="39.3701" /> 
<circle cx="52165.4" cy="66929.1" r="39.3701" /> 
<circle cx="92212.6" cy="14818.6" r="39.3701" /> 
<circle cx="92212.6" cy="15606.6" r="39.3701" /> 
<circle cx="92712.6" cy="29068.6" r="39.3701" /> 
<circle cx="92712.6" cy="29856.6" r="39.3701" /> 
<circle cx="96068.6" cy="43962.6" r="39.3701" /> 
<circle cx="96856.6" cy="43962.6" r="39.3701" /> 
<circle cx="97712.6" cy="17606.6" r="39.3701" /> 
<circle cx="97712.6" cy="16818.6" r="39.3701" /> 
<circle cx="97712.6" cy="31856.6" r="39.3701" /> 
<circle cx="97712.6" cy="31068.6" r="39.3701" /> 
<circle cx="94856.6" cy="47962.6" r="39.3701" /> 
<circle cx="94068.6" cy="47962.6" r="39.3701" /> 
<circle cx="93212.6" cy="18462.6" r="39.3701" /> 
<circle cx="91212.6" cy="18462.6" r="39.3701" /> 
<circle cx="93212.6" cy="32712.6" r="39.3701" /> 
<circle cx="91212.6" cy="32712.6" r="39.3701" /> 
<circle cx="93212.6" cy="43712.6" r="39.3701" /> 
<circle cx="93212.6" cy="45712.6" r="39.3701" /> 
<circle cx="97712.6" cy="9212.6" r="39.3701" /> 
<circle cx="97712.6" cy="7212.6" r="39.3701" /> 
<circle cx="97462.6" cy="23462.6" r="39.3701" /> 
<circle cx="97462.6" cy="21462.6" r="39.3701" /> 
<circle cx="102713" cy="49462.6" r="39.3701" /> 
<circle cx="104713" cy="49462.6" r="39.3701" /> 
<circle cx="93837.6" cy="39337.6" r="39.3701" /> 
<circle cx="93837.6" cy="38337.6" r="39.3701" /> 
<circle cx="83750" cy="58500" r="39.3701" /> 
<circle cx="85750" cy="58500" r="39.3701" /> 
<circle cx="90337.6" cy="36087.6" r="39.3701" /> 
<circle cx="91337.6" cy="36087.6" r="39.3701" /> 
<circle cx="97087.6" cy="10587.6" r="39.3701" /> 
<circle cx="96087.6" cy="10587.6" r="39.3701" /> 
<circle cx="96962.6" cy="24962.6" r="39.3701" /> 
<circle cx="95962.6" cy="24962.6" r="39.3701" /> 
<circle cx="93462.6" cy="60962.6" r="39.3701" /> 
<circle cx="95462.6" cy="60962.6" r="39.3701" /> 
<circle cx="100963" cy="48712.6" r="39.3701" /> 
<circle cx="100963" cy="47712.6" r="39.3701" /> 
<circle cx="98962.6" cy="35962.6" r="39.3701" /> 
<circle cx="97962.6" cy="35962.6" r="39.3701" /> 
<circle cx="54452.8" cy="37626" r="39.3701" /> 
<circle cx="48452.8" cy="37626" r="39.3701" /> 
<circle cx="45952.8" cy="34126" r="39.3701" /> 
<circle cx="45952.8" cy="38126" r="39.3701" /> 
<circle cx="30452.8" cy="37626" r="39.3701" /> 
<circle cx="24452.8" cy="37626" r="39.3701" /> 
<circle cx="21952.8" cy="34126" r="39.3701" /> 
<circle cx="21952.8" cy="38126" r="39.3701" /> 
<circle cx="35952.8" cy="24626" r="39.3701" /> 
<circle cx="35952.8" cy="27626" r="39.3701" /> 
<circle cx="22952.8" cy="27626" r="39.3701" /> 
<circle cx="22952.8" cy="24626" r="39.3701" /> 
<circle cx="43452.8" cy="24126" r="39.3701" /> 
<circle cx="46452.8" cy="24126" r="39.3701" /> 
<circle cx="29452.8" cy="24626" r="39.3701" /> 
<circle cx="29452.8" cy="27626" r="39.3701" /> 
<circle cx="16452.8" cy="27626" r="39.3701" /> 
<circle cx="16452.8" cy="24626" r="39.3701" /> 
<circle cx="45452.8" cy="15126" r="39.3701" /> 
<circle cx="45452.8" cy="16126" r="39.3701" /> 
<circle cx="30952.8" cy="21126" r="39.3701" /> 
<circle cx="31952.8" cy="21126" r="39.3701" /> 
<circle cx="17452.8" cy="21126" r="39.3701" /> 
<circle cx="16452.8" cy="21126" r="39.3701" /> 
<circle cx="45452.8" cy="19126" r="39.3701" /> 
<circle cx="45452.8" cy="18126" r="39.3701" /> 
<circle cx="34952.8" cy="21126" r="39.3701" /> 
<circle cx="33952.8" cy="21126" r="39.3701" /> 
<circle cx="19452.8" cy="21126" r="39.3701" /> 
<circle cx="20452.8" cy="21126" r="39.3701" /> 
<circle cx="73962.6" cy="36012.6" r="39.3701" /> 
<circle cx="79962.6" cy="36012.6" r="39.3701" /> 
<circle cx="73937.6" cy="12987.6" r="39.3701" /> 
<circle cx="79937.6" cy="12987.6" r="39.3701" /> 
<circle cx="73962.6" cy="38962.6" r="39.3701" /> 
<circle cx="73962.6" cy="39962.6" r="39.3701" /> 
<circle cx="73937.6" cy="15937.6" r="39.3701" /> 
<circle cx="73937.6" cy="16937.6" r="39.3701" /> 
<circle cx="78356.6" cy="42462.6" r="39.3701" /> 
<circle cx="77568.6" cy="42462.6" r="39.3701" /> 
<circle cx="78331.6" cy="19437.6" r="39.3701" /> 
<circle cx="77543.6" cy="19437.6" r="39.3701" /> 
<circle cx="74962.6" cy="42962.6" r="39.3701" /> 
<circle cx="73962.6" cy="42962.6" r="39.3701" /> 
<circle cx="75962.6" cy="48962.6" r="39.3701" /> 
<circle cx="74962.6" cy="48962.6" r="39.3701" /> 
<circle cx="74937.6" cy="19937.6" r="39.3701" /> 
<circle cx="73937.6" cy="19937.6" r="39.3701" /> 
<circle cx="75937.6" cy="25937.6" r="39.3701" /> 
<circle cx="74937.6" cy="25937.6" r="39.3701" /> 
<circle cx="96212.6" cy="9212.6" r="39.3701" /> 
<circle cx="92212.6" cy="9212.6" r="39.3701" /> 
<circle cx="95962.6" cy="23462.6" r="39.3701" /> 
<circle cx="91962.6" cy="23462.6" r="39.3701" /> 
<circle cx="102713" cy="47962.6" r="39.3701" /> 
<circle cx="102713" cy="43962.6" r="39.3701" /> 
<circle cx="95712.6" cy="62962.6" r="39.3701" /> 
<circle cx="91712.6" cy="62962.6" r="39.3701" /> 
<circle cx="44952.8" cy="31126" r="39.3701" /> 
<circle cx="48952.8" cy="31126" r="39.3701" /> 
<circle cx="48952.8" cy="28626" r="39.3701" /> 
<circle cx="44952.8" cy="28626" r="39.3701" /> 
<circle cx="35952.8" cy="38126" r="39.3701" /> 
<circle cx="35952.8" cy="32126" r="39.3701" /> 
<circle cx="33452.8" cy="32126" r="39.3701" /> 
<circle cx="33452.8" cy="38126" r="39.3701" /> 
<circle cx="54452.8" cy="31126" r="39.3701" /> 
<circle cx="50452.8" cy="31126" r="39.3701" /> 
<circle cx="50452.8" cy="28626" r="39.3701" /> 
<circle cx="54452.8" cy="28626" r="39.3701" /> 
<circle cx="18952.8" cy="38126" r="39.3701" /> 
<circle cx="18952.8" cy="32126" r="39.3701" /> 
<circle cx="16452.8" cy="32126" r="39.3701" /> 
<circle cx="16452.8" cy="38126" r="39.3701" /> 
<circle cx="47952.8" cy="19126" r="39.3701" /> 
<circle cx="47952.8" cy="15126" r="39.3701" /> 
<circle cx="34952.8" cy="19126" r="39.3701" /> 
<circle cx="30952.8" cy="19126" r="39.3701" /> 
<circle cx="16452.8" cy="19126" r="39.3701" /> 
<circle cx="20452.8" cy="19126" r="39.3701" /> 
<circle cx="71962.6" cy="54962.6" r="39.3701" /> 
<circle cx="71962.6" cy="50962.6" r="39.3701" /> 
<circle cx="79962.6" cy="54962.6" r="39.3701" /> 
<circle cx="75962.6" cy="54962.6" r="39.3701" /> 
<circle cx="70962.6" cy="50962.6" r="39.3701" /> 
<circle cx="70962.6" cy="54962.6" r="39.3701" /> 
<circle cx="75962.6" cy="56462.6" r="39.3701" /> 
<circle cx="79962.6" cy="56462.6" r="39.3701" /> 
<circle cx="71937.6" cy="31937.6" r="39.3701" /> 
<circle cx="71937.6" cy="27937.6" r="39.3701" /> 
<circle cx="79937.6" cy="31937.6" r="39.3701" /> 
<circle cx="75937.6" cy="31937.6" r="39.3701" /> 
<circle cx="70937.6" cy="27937.6" r="39.3701" /> 
<circle cx="70937.6" cy="31937.6" r="39.3701" /> 
<circle cx="75937.6" cy="33437.6" r="39.3701" /> 
<circle cx="79937.6" cy="33437.6" r="39.3701" /> 
<circle cx="36952.8" cy="8625.98" r="39.3701" /> 
<circle cx="35952.8" cy="8625.98" r="39.3701" /> 
<circle cx="34952.8" cy="8625.98" r="39.3701" /> 
<circle cx="33952.8" cy="8625.98" r="39.3701" /> 
<circle cx="32952.8" cy="8625.98" r="39.3701" /> 
<circle cx="31952.8" cy="8625.98" r="39.3701" /> 
<circle cx="83750" cy="52000" r="39.3701" /> 
<circle cx="84750" cy="52000" r="39.3701" /> 
<circle cx="85750" cy="52000" r="39.3701" /> 
<circle cx="86750" cy="52000" r="39.3701" /> 
<circle cx="87750" cy="52000" r="39.3701" /> 
<circle cx="88750" cy="52000" r="39.3701" /> 
<circle cx="78000" cy="61500" r="39.3701" /> 
<circle cx="69212.6" cy="37462.6" r="39.3701" /> 
<circle cx="69212.6" cy="38462.6" r="39.3701" /> 
<circle cx="69212.6" cy="14462.6" r="39.3701" /> 
<circle cx="69212.6" cy="15462.6" r="39.3701" /> 
<circle cx="69212.6" cy="40462.6" r="39.3701" /> 
<circle cx="69212.6" cy="41462.6" r="39.3701" /> 
<circle cx="69187.6" cy="17437.6" r="39.3701" /> 
<circle cx="69187.6" cy="18437.6" r="39.3701" /> 
<circle cx="88212.6" cy="60962.6" r="39.3701" /> 
<circle cx="89212.6" cy="60962.6" r="39.3701" /> 
<circle cx="86250" cy="15500" r="39.3701" /> 
<circle cx="85250" cy="15500" r="39.3701" /> 
<circle cx="84250" cy="15500" r="39.3701" /> 
<circle cx="83250" cy="15500" r="39.3701" /> 
<circle cx="45952.8" cy="66626" r="39.3701" /> 
<circle cx="51952.8" cy="61126" r="39.3701" /> 
<circle cx="47952.8" cy="61126" r="39.3701" /> 
<circle cx="43952.8" cy="61126" r="39.3701" /> 
<circle cx="39952.8" cy="61126" r="39.3701" /> 
<circle cx="102463" cy="14712.6" r="39.3701" /> 
<circle cx="102463" cy="13712.6" r="39.3701" /> 
<circle cx="102463" cy="15712.6" r="39.3701" /> 
<circle cx="102463" cy="28962.6" r="39.3701" /> 
<circle cx="102463" cy="27962.6" r="39.3701" /> 
<circle cx="102463" cy="29962.6" r="39.3701" /> 
<circle cx="96962.6" cy="54212.6" r="39.3701" /> 
<circle cx="97962.6" cy="54212.6" r="39.3701" /> 
<circle cx="95962.6" cy="54212.6" r="39.3701" /> 
<circle cx="95931.6" cy="21962.6" r="39.3701" /> 
<circle cx="91931.6" cy="21962.6" r="39.3701" /> 
<circle cx="104213" cy="43993.6" r="39.3701" /> 
<circle cx="104213" cy="47993.6" r="39.3701" /> 
<circle cx="91493.6" cy="59712.6" r="39.3701" /> 
<circle cx="95493.6" cy="59712.6" r="39.3701" /> 
<circle cx="95250" cy="41219" r="39.3701" /> 
<circle cx="95250" cy="37219" r="39.3701" /> 
<circle cx="100682" cy="34712.6" r="39.3701" /> 
<circle cx="96681.6" cy="34712.6" r="39.3701" /> 
<circle cx="48499.8" cy="34126" r="39.3701" /> 
<circle cx="54499.8" cy="34126" r="39.3701" /> 
<circle cx="24515.5" cy="35063" r="39.3701" /> 
<circle cx="30515.5" cy="35063" r="39.3701" /> 
<circle cx="71962.6" cy="35993.6" r="39.3701" /> 
<circle cx="71962.6" cy="39993.6" r="39.3701" /> 
<circle cx="71962.6" cy="12993.6" r="39.3701" /> 
<circle cx="71962.6" cy="16993.6" r="39.3701" /> 
<circle cx="75993.6" cy="38462.6" r="39.3701" /> 
<circle cx="79993.6" cy="38462.6" r="39.3701" /> 
<circle cx="75968.6" cy="15437.6" r="39.3701" /> 
<circle cx="79968.6" cy="15437.6" r="39.3701" /> 
<circle cx="75993.6" cy="39962.6" r="39.3701" /> 
<circle cx="79993.6" cy="39962.6" r="39.3701" /> 
<circle cx="75968.6" cy="16937.6" r="39.3701" /> 
<circle cx="79968.6" cy="16937.6" r="39.3701" /> 
<circle cx="79962.6" cy="45431.6" r="39.3701" /> 
<circle cx="79962.6" cy="41431.6" r="39.3701" /> 
<circle cx="80062.6" cy="22531.6" r="39.3701" /> 
<circle cx="80062.6" cy="18531.6" r="39.3701" /> 
<circle cx="79931.6" cy="51962.6" r="39.3701" /> 
<circle cx="75931.6" cy="51962.6" r="39.3701" /> 
<circle cx="79931.6" cy="50462.6" r="39.3701" /> 
<circle cx="75931.6" cy="50462.6" r="39.3701" /> 
<circle cx="73212.6" cy="50993.6" r="39.3701" /> 
<circle cx="73212.6" cy="54993.6" r="39.3701" /> 
<circle cx="75993.6" cy="53462.6" r="39.3701" /> 
<circle cx="79993.6" cy="53462.6" r="39.3701" /> 
<circle cx="69462.6" cy="54931.6" r="39.3701" /> 
<circle cx="69462.6" cy="50931.6" r="39.3701" /> 
<circle cx="76431.6" cy="41462.6" r="39.3701" /> 
<circle cx="72431.6" cy="41462.6" r="39.3701" /> 
<circle cx="67962.6" cy="54931.6" r="39.3701" /> 
<circle cx="67962.6" cy="50931.6" r="39.3701" /> 
<circle cx="72431.6" cy="42962.6" r="39.3701" /> 
<circle cx="68431.6" cy="42962.6" r="39.3701" /> 
<circle cx="79906.6" cy="28937.6" r="39.3701" /> 
<circle cx="75906.6" cy="28937.6" r="39.3701" /> 
<circle cx="79906.6" cy="27437.6" r="39.3701" /> 
<circle cx="75906.6" cy="27437.6" r="39.3701" /> 
<circle cx="73406.6" cy="25937.6" r="39.3701" /> 
<circle cx="69406.6" cy="25937.6" r="39.3701" /> 
<circle cx="74687.6" cy="27968.6" r="39.3701" /> 
<circle cx="74687.6" cy="31968.6" r="39.3701" /> 
<circle cx="73187.6" cy="27968.6" r="39.3701" /> 
<circle cx="73187.6" cy="31968.6" r="39.3701" /> 
<circle cx="75968.6" cy="30437.6" r="39.3701" /> 
<circle cx="79968.6" cy="30437.6" r="39.3701" /> 
<circle cx="69437.6" cy="31906.6" r="39.3701" /> 
<circle cx="69437.6" cy="27906.6" r="39.3701" /> 
<circle cx="76406.6" cy="18437.6" r="39.3701" /> 
<circle cx="72406.6" cy="18437.6" r="39.3701" /> 
<circle cx="67937.6" cy="31906.6" r="39.3701" /> 
<circle cx="67937.6" cy="27906.6" r="39.3701" /> 
<circle cx="72406.6" cy="19937.6" r="39.3701" /> 
<circle cx="68406.6" cy="19937.6" r="39.3701" /> 
<circle cx="39952.8" cy="44126" r="39.3701" /> 
<circle cx="39952.8" cy="46626" r="39.3701" /> 
<circle cx="39952.8" cy="50126" r="39.3701" /> 
<circle cx="39952.8" cy="52626" r="39.3701" /> 
<circle cx="52752.8" cy="44126" r="39.3701" /> 
<circle cx="52752.8" cy="46626" r="39.3701" /> 
<circle cx="52752.8" cy="50126" r="39.3701" /> 
<circle cx="52752.8" cy="52626" r="39.3701" /> 
<circle cx="18452.8" cy="60626" r="39.3701" /> 
<circle cx="22452.8" cy="60626" r="39.3701" /> 
<circle cx="26452.8" cy="60626" r="39.3701" /> 
<circle cx="30452.8" cy="60626" r="39.3701" /> 
<circle cx="18452.8" cy="42126" r="39.3701" /> 
<circle cx="22452.8" cy="42126" r="39.3701" /> 
<circle cx="26452.8" cy="42126" r="39.3701" /> 
<circle cx="30452.8" cy="42126" r="39.3701" /> 
<circle cx="99462.6" cy="9462.6" r="39.3701" /> 
<circle cx="99462.6" cy="8462.6" r="39.3701" /> 
<circle cx="99462.6" cy="10462.6" r="39.3701" /> 
<circle cx="99212.6" cy="23962.6" r="39.3701" /> 
<circle cx="99212.6" cy="22962.6" r="39.3701" /> 
<circle cx="99212.6" cy="24962.6" r="39.3701" /> 
<circle cx="101963" cy="51712.6" r="39.3701" /> 
<circle cx="100963" cy="51712.6" r="39.3701" /> 
<circle cx="102963" cy="51712.6" r="39.3701" /> 
<circle cx="92337.6" cy="40837.6" r="39.3701" /> 
<circle cx="92337.6" cy="39837.6" r="39.3701" /> 
<circle cx="92337.6" cy="38837.6" r="39.3701" /> 
<circle cx="92337.6" cy="37837.6" r="39.3701" /> 
<circle cx="89337.6" cy="37837.6" r="39.3701" /> 
<circle cx="89337.6" cy="38837.6" r="39.3701" /> 
<circle cx="89337.6" cy="39837.6" r="39.3701" /> 
<circle cx="89337.6" cy="40837.6" r="39.3701" /> 
<circle cx="97712.6" cy="61462.6" r="39.3701" /> 
<circle cx="97712.6" cy="60462.6" r="39.3701" /> 
<circle cx="97712.6" cy="62462.6" r="39.3701" /> 
<circle cx="41452.8" cy="37126" r="39.3701" /> 
<circle cx="43452.8" cy="37126" r="39.3701" /> 
<circle cx="37952.8" cy="37126" r="39.3701" /> 
<circle cx="39952.8" cy="37126" r="39.3701" /> 
<circle cx="50952.8" cy="19626" r="39.3701" /> 
<circle cx="50952.8" cy="18626" r="39.3701" /> 
<circle cx="50952.8" cy="20626" r="39.3701" /> 
<circle cx="32952.8" cy="16626" r="39.3701" /> 
<circle cx="31952.8" cy="16626" r="39.3701" /> 
<circle cx="33952.8" cy="16626" r="39.3701" /> 
<circle cx="18452.8" cy="16626" r="39.3701" /> 
<circle cx="17452.8" cy="16626" r="39.3701" /> 
<circle cx="19452.8" cy="16626" r="39.3701" /> 
<circle cx="77962.6" cy="44462.6" r="39.3701" /> 
<circle cx="76962.6" cy="44462.6" r="39.3701" /> 
<circle cx="75962.6" cy="44462.6" r="39.3701" /> 
<circle cx="74962.6" cy="44462.6" r="39.3701" /> 
<circle cx="73962.6" cy="44462.6" r="39.3701" /> 
<circle cx="72962.6" cy="44462.6" r="39.3701" /> 
<circle cx="71962.6" cy="44462.6" r="39.3701" /> 
<circle cx="71962.6" cy="47462.6" r="39.3701" /> 
<circle cx="72962.6" cy="47462.6" r="39.3701" /> 
<circle cx="73962.6" cy="47462.6" r="39.3701" /> 
<circle cx="74962.6" cy="47462.6" r="39.3701" /> 
<circle cx="75962.6" cy="47462.6" r="39.3701" /> 
<circle cx="76962.6" cy="47462.6" r="39.3701" /> 
<circle cx="77962.6" cy="47462.6" r="39.3701" /> 
<circle cx="77937.6" cy="21437.6" r="39.3701" /> 
<circle cx="76937.6" cy="21437.6" r="39.3701" /> 
<circle cx="75937.6" cy="21437.6" r="39.3701" /> 
<circle cx="74937.6" cy="21437.6" r="39.3701" /> 
<circle cx="73937.6" cy="21437.6" r="39.3701" /> 
<circle cx="72937.6" cy="21437.6" r="39.3701" /> 
<circle cx="71937.6" cy="21437.6" r="39.3701" /> 
<circle cx="71937.6" cy="24437.6" r="39.3701" /> 
<circle cx="72937.6" cy="24437.6" r="39.3701" /> 
<circle cx="73937.6" cy="24437.6" r="39.3701" /> 
<circle cx="74937.6" cy="24437.6" r="39.3701" /> 
<circle cx="75937.6" cy="24437.6" r="39.3701" /> 
<circle cx="76937.6" cy="24437.6" r="39.3701" /> 
<circle cx="77937.6" cy="24437.6" r="39.3701" /> 
<circle cx="52452.8" cy="14626" r="39.3701" /> 
<circle cx="52452.8" cy="24626" r="39.3701" /> 
<circle cx="13452.8" cy="15126" r="39.3701" /> 
<circle cx="23452.8" cy="15126" r="39.3701" /> 
<circle cx="37952.8" cy="15126" r="39.3701" /> 
<circle cx="27952.8" cy="15126" r="39.3701" /> 
<circle cx="41338.6" cy="31496.1" r="39.3701" /> 
<circle cx="74712.6" cy="50993.6" r="39.3701" /> 
<circle cx="74712.6" cy="54993.6" r="39.3701" /> 
<circle cx="73431.6" cy="48962.6" r="39.3701" /> 
<circle cx="69431.6" cy="48962.6" r="39.3701" /> 
<circle cx="95087.6" cy="12337.6" r="39.3701" /> 
<circle cx="95087.6" cy="13337.6" r="39.3701" /> 
<circle cx="95087.6" cy="14337.6" r="39.3701" /> 
<circle cx="95087.6" cy="15337.6" r="39.3701" /> 
<circle cx="98087.6" cy="15337.6" r="39.3701" /> 
<circle cx="98087.6" cy="14337.6" r="39.3701" /> 
<circle cx="98087.6" cy="13337.6" r="39.3701" /> 
<circle cx="98087.6" cy="12337.6" r="39.3701" /> 
<circle cx="94962.6" cy="26712.6" r="39.3701" /> 
<circle cx="94962.6" cy="27712.6" r="39.3701" /> 
<circle cx="94962.6" cy="28712.6" r="39.3701" /> 
<circle cx="94962.6" cy="29712.6" r="39.3701" /> 
<circle cx="97962.6" cy="29712.6" r="39.3701" /> 
<circle cx="97962.6" cy="28712.6" r="39.3701" /> 
<circle cx="97962.6" cy="27712.6" r="39.3701" /> 
<circle cx="97962.6" cy="26712.6" r="39.3701" /> 
<circle cx="99212.6" cy="46712.6" r="39.3701" /> 
<circle cx="98212.6" cy="46712.6" r="39.3701" /> 
<circle cx="97212.6" cy="46712.6" r="39.3701" /> 
<circle cx="96212.6" cy="46712.6" r="39.3701" /> 
<circle cx="96212.6" cy="49712.6" r="39.3701" /> 
<circle cx="97212.6" cy="49712.6" r="39.3701" /> 
<circle cx="98212.6" cy="49712.6" r="39.3701" /> 
<circle cx="99212.6" cy="49712.6" r="39.3701" /> 
<circle cx="96837.6" cy="37337.6" r="39.3701" /> 
<circle cx="96837.6" cy="38337.6" r="39.3701" /> 
<circle cx="96837.6" cy="39337.6" r="39.3701" /> 
<circle cx="96837.6" cy="40337.6" r="39.3701" /> 
<circle cx="99837.6" cy="40337.6" r="39.3701" /> 
<circle cx="99837.6" cy="39337.6" r="39.3701" /> 
<circle cx="99837.6" cy="38337.6" r="39.3701" /> 
<circle cx="99837.6" cy="37337.6" r="39.3701" /> 
<circle cx="91962.6" cy="55712.6" r="39.3701" /> 
<circle cx="101963" cy="55712.6" r="39.3701" /> 
<circle cx="103963" cy="33962.6" r="39.3701" /> 
<circle cx="103963" cy="23962.6" r="39.3701" /> 
<circle cx="103963" cy="19712.6" r="39.3701" /> 
<circle cx="103963" cy="9712.6" r="39.3701" /> 
<circle cx="99962.6" cy="13228.6" r="39.3701" /> 
<circle cx="99962.6" cy="15197.6" r="39.3701" /> 
<circle cx="99962.6" cy="16978.6" r="39.3701" /> 
<circle cx="99962.6" cy="18947.6" r="39.3701" /> 
<circle cx="92250" cy="12734" r="39.3701" /> 
<circle cx="92250" cy="10765" r="39.3701" /> 
<circle cx="98196.6" cy="51712.6" r="39.3701" /> 
<circle cx="96227.6" cy="51712.6" r="39.3701" /> 
<circle cx="94446.6" cy="51712.6" r="39.3701" /> 
<circle cx="92477.6" cy="51712.6" r="39.3701" /> 
<circle cx="99516" cy="44000" r="39.3701" /> 
<circle cx="101485" cy="44000" r="39.3701" /> 
<circle cx="99962.6" cy="31478.6" r="39.3701" /> 
<circle cx="99962.6" cy="33447.6" r="39.3701" /> 
<circle cx="90962.6" cy="29681.6" r="39.3701" /> 
<circle cx="90962.6" cy="25681.6" r="39.3701" /> 
<circle cx="93000" cy="27484" r="39.3701" /> 
<circle cx="93000" cy="25515" r="39.3701" /> 
<circle cx="99962.6" cy="27728.6" r="39.3701" /> 
<circle cx="99962.6" cy="29697.6" r="39.3701" /> 
<circle cx="96181.6" cy="7712.6" r="39.3701" /> 
<circle cx="92181.6" cy="7712.6" r="39.3701" /> 
<circle cx="95462.6" cy="18946.6" r="39.3701" /> 
<circle cx="95462.6" cy="16977.6" r="39.3701" /> 
<circle cx="95462.6" cy="33196.6" r="39.3701" /> 
<circle cx="95462.6" cy="31227.6" r="39.3701" /> 
<circle cx="94571.6" cy="35587.6" r="39.3701" /> 
<circle cx="92602.6" cy="35587.6" r="39.3701" /> 
<circle cx="102182" cy="41962.6" r="39.3701" /> 
<circle cx="98181.6" cy="41962.6" r="39.3701" /> 
<circle cx="80712.6" cy="24962.6" r="39.3701" /> 
<circle cx="80712.6" cy="23962.6" r="39.3701" /> 
<circle cx="79962.6" cy="47962.6" r="39.3701" /> 
<circle cx="79962.6" cy="46962.6" r="39.3701" /> 
<circle cx="70866.1" cy="9842.52" r="39.3701" /> 
<circle cx="87598.4" cy="9842.52" r="39.3701" /> 
<circle cx="69881.9" cy="35433.1" r="39.3701" /> 
<circle cx="103346" cy="38385.8" r="39.3701" /> 
<circle cx="102362" cy="61023.6" r="39.3701" /> 
<circle cx="70866.1" cy="61023.6" r="39.3701" /> 
</g> 
</svg>
