<?xml version="1.0" standalone="no"?>
 <!DOCTYPE svg PUBLIC "-//W3C//DTD SVG 1.1//EN" 
 "http://www.w3.org/Graphics/SVG/1.1/DTD/svg11.dtd"> 
<svg xmlns="http://www.w3.org/2000/svg" version="1.1" 
    width="29.7002cm" height="21.0007cm" viewBox="0 0 116930 82680 ">
<title>SVG Picture created as ADC-Eco2_User.svg date 2014/06/04 16:57:00 </title>
  <desc>Picture generated by PCBNEW </desc>
<g style="fill:#000000; fill-opacity:1;stroke:#000000; stroke-opacity:1;
stroke-linecap:round; stroke-linejoin:round; "
 transform="translate(0 0) scale(1 1)">
</g>
<g style="fill:#000000; fill-opacity:0.0; 
stroke:#000000; stroke-width:59.0551; stroke-opacity:1; 
stroke-linecap:round; stroke-linejoin:round;">
<rect x="69685.9" y="65357.2" width="42519.7" height="12598.4" rx="0" />
<rect x="3937.01" y="3937.01" width="109056" height="74806" rx="0" />
<rect x="4724.41" y="4724.41" width="107481" height="73231.2" rx="0" />
<path d="M23622 4724
L23622 3937
" />
<path d="M43307 4724
L43307 3937
" />
<path d="M62992 4724
L62992 3937
" />
<path d="M82677 4724
L82677 3937
" />
<path d="M102362 4724
L102362 3937
" />
<path d="M14169 4562
L13877 4562
" />
<path d="M14023 4562
L14023 4050
L13974 4123
L13925 4172
L13877 4196
" />
<path d="M33562 4099
L33586 4074
L33635 4050
L33757 4050
L33805 4074
L33830 4099
L33854 4147
L33854 4196
L33830 4269
L33537 4562
L33854 4562
" />
<path d="M53222 4050
L53539 4050
L53368 4245
L53442 4245
L53490 4269
L53515 4294
L53539 4342
L53539 4464
L53515 4513
L53490 4537
L53442 4562
L53295 4562
L53247 4537
L53222 4513
" />
<path d="M73175 4221
L73175 4562
" />
<path d="M73053 4026
L72932 4391
L73248 4391
" />
<path d="M92885 4050
L92641 4050
L92617 4294
L92641 4269
L92690 4245
L92812 4245
L92860 4269
L92885 4294
L92909 4342
L92909 4464
L92885 4513
L92860 4537
L92812 4562
L92690 4562
L92641 4537
L92617 4513
" />
<path d="M112545 4050
L112448 4050
L112399 4074
L112375 4099
L112326 4172
L112302 4269
L112302 4464
L112326 4513
L112350 4537
L112399 4562
L112497 4562
L112545 4537
L112570 4513
L112594 4464
L112594 4342
L112570 4294
L112545 4269
L112497 4245
L112399 4245
L112350 4269
L112326 4294
L112302 4342
" />
<path d="M23622 77955
L23622 78742
" />
<path d="M43307 77955
L43307 78742
" />
<path d="M62992 77955
L62992 78742
" />
<path d="M82677 77955
L82677 78742
" />
<path d="M102362 77955
L102362 78742
" />
<path d="M14169 78580
L13877 78580
" />
<path d="M14023 78580
L14023 78069
L13974 78142
L13925 78190
L13877 78215
" />
<path d="M33562 78117
L33586 78093
L33635 78069
L33757 78069
L33805 78093
L33830 78117
L33854 78166
L33854 78215
L33830 78288
L33537 78580
L33854 78580
" />
<path d="M53222 78069
L53539 78069
L53368 78263
L53442 78263
L53490 78288
L53515 78312
L53539 78361
L53539 78483
L53515 78532
L53490 78556
L53442 78580
L53295 78580
L53247 78556
L53222 78532
" />
<path d="M73175 78239
L73175 78580
" />
<path d="M73053 78044
L72932 78410
L73248 78410
" />
<path d="M92885 78069
L92641 78069
L92617 78312
L92641 78288
L92690 78263
L92812 78263
L92860 78288
L92885 78312
L92909 78361
L92909 78483
L92885 78532
L92860 78556
L92812 78580
L92690 78580
L92641 78556
L92617 78532
" />
<path d="M112545 78069
L112448 78069
L112399 78093
L112375 78117
L112326 78190
L112302 78288
L112302 78483
L112326 78532
L112350 78556
L112399 78580
L112497 78580
L112545 78556
L112570 78532
L112594 78483
L112594 78361
L112570 78312
L112545 78288
L112497 78263
L112399 78263
L112350 78288
L112326 78312
L112302 78361
" />
<path d="M3937 23622
L4724 23622
" />
<path d="M3937 43307
L4724 43307
" />
<path d="M3937 62992
L4724 62992
" />
<path d="M4208 13864
L4452 13864
" />
<path d="M4160 14011
L4330 13499
L4501 14011
" />
<path d="M4367 33428
L4440 33452
L4464 33476
L4489 33525
L4489 33598
L4464 33647
L4440 33671
L4391 33696
L4196 33696
L4196 33184
L4367 33184
L4416 33208
L4440 33233
L4464 33281
L4464 33330
L4440 33379
L4416 33403
L4367 33428
L4196 33428
" />
<path d="M4489 53332
L4464 53356
L4391 53381
L4342 53381
L4269 53356
L4221 53308
L4196 53259
L4172 53161
L4172 53088
L4196 52991
L4221 52942
L4269 52893
L4342 52869
L4391 52869
L4464 52893
L4489 52918
" />
<path d="M4196 73066
L4196 72554
L4318 72554
L4391 72578
L4440 72627
L4464 72676
L4489 72773
L4489 72846
L4464 72944
L4440 72993
L4391 73041
L4318 73066
L4196 73066
" />
<path d="M112992 23622
L112205 23622
" />
<path d="M112992 43307
L112205 43307
" />
<path d="M112992 62992
L112205 62992
" />
<path d="M112477 13864
L112721 13864
" />
<path d="M112428 14011
L112599 13499
L112769 14011
" />
<path d="M112635 33428
L112708 33452
L112733 33476
L112757 33525
L112757 33598
L112733 33647
L112708 33671
L112660 33696
L112465 33696
L112465 33184
L112635 33184
L112684 33208
L112708 33233
L112733 33281
L112733 33330
L112708 33379
L112684 33403
L112635 33428
L112465 33428
" />
<path d="M112757 53332
L112733 53356
L112660 53381
L112611 53381
L112538 53356
L112489 53308
L112465 53259
L112440 53161
L112440 53088
L112465 52991
L112489 52942
L112538 52893
L112611 52869
L112660 52869
L112733 52893
L112757 52918
" />
<path d="M112465 73066
L112465 72554
L112587 72554
L112660 72578
L112708 72627
L112733 72676
L112757 72773
L112757 72846
L112733 72944
L112708 72993
L112660 73041
L112587 73066
L112465 73066
" />
<path d="M78881 76293
L78881 75703
L79022 75703
L79106 75731
L79162 75787
L79190 75843
L79219 75956
L79219 76040
L79190 76153
L79162 76209
L79106 76265
L79022 76293
L78881 76293
" />
<path d="M79725 76293
L79725 75984
L79697 75928
L79640 75899
L79528 75899
L79472 75928
" />
<path d="M79725 76265
L79669 76293
L79528 76293
L79472 76265
L79444 76209
L79444 76153
L79472 76096
L79528 76068
L79669 76068
L79725 76040
" />
<path d="M79922 75899
L80147 75899
" />
<path d="M80006 75703
L80006 76209
L80034 76265
L80090 76293
L80147 76293
" />
<path d="M80568 76265
L80512 76293
L80400 76293
L80343 76265
L80315 76209
L80315 75984
L80343 75928
L80400 75899
L80512 75899
L80568 75928
L80597 75984
L80597 76040
L80315 76096
" />
<path d="M80850 76237
L80878 76265
L80850 76293
L80822 76265
L80850 76237
L80850 76293
" />
<path d="M80850 75928
L80878 75956
L80850 75984
L80822 75956
L80850 75928
L80850 75984
" />
<path d="M69685 76577
L112205 76577
" />
<path d="M70220 77395
L70220 76805
" />
<path d="M70557 77395
L70304 77058
" />
<path d="M70557 76805
L70220 77142
" />
<path d="M70810 77395
L70810 77002
" />
<path d="M70810 76805
L70782 76833
L70810 76861
L70838 76833
L70810 76805
L70810 76861
" />
<path d="M71429 77339
L71401 77367
L71316 77395
L71260 77395
L71176 77367
L71120 77311
L71091 77255
L71063 77142
L71063 77058
L71091 76946
L71120 76889
L71176 76833
L71260 76805
L71316 76805
L71401 76833
L71429 76861
" />
<path d="M71935 77395
L71935 77086
L71907 77030
L71851 77002
L71738 77002
L71682 77030
" />
<path d="M71935 77367
L71879 77395
L71738 77395
L71682 77367
L71654 77311
L71654 77255
L71682 77199
L71738 77171
L71879 77171
L71935 77142
" />
<path d="M72469 77395
L72469 76805
" />
<path d="M72469 77367
L72413 77395
L72301 77395
L72244 77367
L72216 77339
L72188 77283
L72188 77114
L72216 77058
L72244 77030
L72301 77002
L72413 77002
L72469 77030
" />
<path d="M73201 77086
L73397 77086
" />
<path d="M73482 77395
L73201 77395
L73201 76805
L73482 76805
" />
<path d="M73735 77339
L73763 77367
L73735 77395
L73707 77367
L73735 77339
L73735 77395
" />
<path d="M74016 77395
L74016 76805
L74157 76805
L74241 76833
L74297 76889
L74325 76946
L74354 77058
L74354 77142
L74325 77255
L74297 77311
L74241 77367
L74157 77395
L74016 77395
" />
<path d="M74607 77339
L74635 77367
L74607 77395
L74579 77367
L74607 77339
L74607 77395
" />
<path d="M74860 77227
L75141 77227
" />
<path d="M74804 77395
L75000 76805
L75197 77395
" />
<path d="M75394 77339
L75422 77367
L75394 77395
L75366 77367
L75394 77339
L75394 77395
" />
<path d="M76575 77002
L76575 77592
" />
<path d="M76575 77030
L76631 77002
L76744 77002
L76800 77030
L76828 77058
L76856 77114
L76856 77283
L76828 77339
L76800 77367
L76744 77395
L76631 77395
L76575 77367
" />
<path d="M77363 77367
L77306 77395
L77194 77395
L77138 77367
L77109 77339
L77081 77283
L77081 77114
L77109 77058
L77138 77030
L77194 77002
L77306 77002
L77363 77030
" />
<path d="M77616 77395
L77616 76805
" />
<path d="M77616 77030
L77672 77002
L77784 77002
L77841 77030
L77869 77058
L77897 77114
L77897 77283
L77869 77339
L77841 77367
L77784 77395
L77672 77395
L77616 77367
" />
<path d="M78150 77002
L78150 77395
" />
<path d="M78150 77058
L78178 77030
L78234 77002
L78319 77002
L78375 77030
L78403 77086
L78403 77395
" />
<path d="M78909 77367
L78853 77395
L78741 77395
L78684 77367
L78656 77311
L78656 77086
L78684 77030
L78741 77002
L78853 77002
L78909 77030
L78937 77086
L78937 77142
L78656 77199
" />
<path d="M79134 77002
L79247 77395
L79359 77114
L79472 77395
L79584 77002
" />
<path d="M80428 77620
L80400 77592
L80343 77508
L80315 77452
L80287 77367
L80259 77227
L80259 77114
L80287 76974
L80315 76889
L80343 76833
L80400 76749
L80428 76721
" />
<path d="M80625 76861
L80653 76833
L80709 76805
L80850 76805
L80906 76833
L80934 76861
L80962 76917
L80962 76974
L80934 77058
L80597 77395
L80962 77395
" />
<path d="M81328 76805
L81384 76805
L81440 76833
L81468 76861
L81496 76917
L81525 77030
L81525 77171
L81496 77283
L81468 77339
L81440 77367
L81384 77395
L81328 77395
L81271 77367
L81243 77339
L81215 77283
L81187 77171
L81187 77030
L81215 76917
L81243 76861
L81271 76833
L81328 76805
" />
<path d="M82087 77395
L81750 77395
" />
<path d="M81918 77395
L81918 76805
L81862 76889
L81806 76946
L81750 76974
" />
<path d="M82593 77002
L82593 77395
" />
<path d="M82453 76777
L82312 77199
L82678 77199
" />
<path d="M82903 77171
L83352 77171
" />
<path d="M83746 76805
L83802 76805
L83859 76833
L83887 76861
L83915 76917
L83943 77030
L83943 77171
L83915 77283
L83887 77339
L83859 77367
L83802 77395
L83746 77395
L83690 77367
L83662 77339
L83634 77283
L83606 77171
L83606 77030
L83634 76917
L83662 76861
L83690 76833
L83746 76805
" />
<path d="M84140 76805
L84505 76805
L84309 77030
L84393 77030
L84449 77058
L84477 77086
L84505 77142
L84505 77283
L84477 77339
L84449 77367
L84393 77395
L84224 77395
L84168 77367
L84140 77339
" />
<path d="M84759 77171
L85208 77171
" />
<path d="M85799 77395
L85462 77395
" />
<path d="M85630 77395
L85630 76805
L85574 76889
L85518 76946
L85462 76974
" />
<path d="M86080 77395
L86193 77395
L86249 77367
L86277 77339
L86333 77255
L86361 77142
L86361 76917
L86333 76861
L86305 76833
L86249 76805
L86136 76805
L86080 76833
L86052 76861
L86024 76917
L86024 77058
L86052 77114
L86080 77142
L86136 77171
L86249 77171
L86305 77142
L86333 77114
L86361 77058
" />
<path d="M87261 77086
L87346 77114
L87374 77142
L87402 77199
L87402 77283
L87374 77339
L87346 77367
L87289 77395
L87064 77395
L87064 76805
L87261 76805
L87318 76833
L87346 76861
L87374 76917
L87374 76974
L87346 77030
L87318 77058
L87261 77086
L87064 77086
" />
<path d="M87599 76805
L87992 76805
L87599 77395
L87992 77395
" />
<path d="M88555 77395
L88358 77114
" />
<path d="M88217 77395
L88217 76805
L88442 76805
L88499 76833
L88527 76861
L88555 76917
L88555 77002
L88527 77058
L88499 77086
L88442 77114
L88217 77114
" />
<path d="M89511 77002
L89511 77395
" />
<path d="M89370 76777
L89230 77199
L89595 77199
" />
<path d="M89764 76805
L90158 76805
L89905 77395
" />
<path d="M90664 76805
L90383 76805
L90355 77086
L90383 77058
L90439 77030
L90580 77030
L90636 77058
L90664 77086
L90692 77142
L90692 77283
L90664 77339
L90636 77367
L90580 77395
L90439 77395
L90383 77367
L90355 77339
" />
<path d="M91198 76805
L91086 76805
L91030 76833
L91001 76861
L90945 76946
L90917 77058
L90917 77283
L90945 77339
L90973 77367
L91030 77395
L91142 77395
L91198 77367
L91226 77339
L91255 77283
L91255 77142
L91226 77086
L91198 77058
L91142 77030
L91030 77030
L90973 77058
L90945 77086
L90917 77142
" />
<path d="M91451 77620
L91480 77592
L91536 77508
L91564 77452
L91592 77367
L91620 77227
L91620 77114
L91592 76974
L91564 76889
L91536 76833
L91480 76749
L91451 76721
" />
<path d="M91901 77171
L92351 77171
" />
<path d="M92633 77002
L92633 77592
" />
<path d="M92633 77030
L92689 77002
L92801 77002
L92858 77030
L92886 77058
L92914 77114
L92914 77283
L92886 77339
L92858 77367
L92801 77395
L92689 77395
L92633 77367
" />
<path d="M93167 77395
L93167 77002
" />
<path d="M93167 77114
L93195 77058
L93223 77030
L93279 77002
L93336 77002
" />
<path d="M93617 77395
L93561 77367
L93532 77339
L93504 77283
L93504 77114
L93532 77058
L93561 77030
L93617 77002
L93701 77002
L93757 77030
L93786 77058
L93814 77114
L93814 77283
L93786 77339
L93757 77367
L93701 77395
L93617 77395
" />
<path d="M94320 77395
L94320 76805
" />
<path d="M94320 77367
L94264 77395
L94151 77395
L94095 77367
L94067 77339
L94039 77283
L94039 77114
L94067 77058
L94095 77030
L94151 77002
L94264 77002
L94320 77030
" />
<path d="M94854 77002
L94854 77395
" />
<path d="M94601 77002
L94601 77311
L94629 77367
L94685 77395
L94770 77395
L94826 77367
L94854 77339
" />
<path d="M95388 77367
L95332 77395
L95220 77395
L95163 77367
L95135 77339
L95107 77283
L95107 77114
L95135 77058
L95163 77030
L95220 77002
L95332 77002
L95388 77030
" />
<path d="M95557 77002
L95782 77002
" />
<path d="M95642 76805
L95642 77311
L95670 77367
L95726 77395
L95782 77395
" />
<path d="M69685 75396
L112205 75396
" />
</g>
<g style="fill:#000000; fill-opacity:0.0; 
stroke:#000000; stroke-width:118.11; stroke-opacity:1; 
stroke-linecap:round; stroke-linejoin:round;">
<path d="M104022 76293
L103825 76012
" />
<path d="M103684 76293
L103684 75703
L103909 75703
L103965 75731
L103994 75759
L104022 75815
L104022 75899
L103994 75956
L103965 75984
L103909 76012
L103684 76012
" />
<path d="M104500 76265
L104444 76293
L104331 76293
L104275 76265
L104247 76209
L104247 75984
L104275 75928
L104331 75899
L104444 75899
L104500 75928
L104528 75984
L104528 76040
L104247 76096
" />
<path d="M104725 75899
L104865 76293
L105006 75899
" />
<path d="M105231 76237
L105259 76265
L105231 76293
L105203 76265
L105231 76237
L105231 76293
" />
<path d="M105231 75928
L105259 75956
L105231 75984
L105203 75956
L105231 75928
L105231 75984
" />
</g>
<g style="fill:#000000; fill-opacity:0.0; 
stroke:#000000; stroke-width:59.0551; stroke-opacity:1; 
stroke-linecap:round; stroke-linejoin:round;">
<path d="M70192 76265
L70276 76293
L70417 76293
L70473 76265
L70501 76237
L70529 76181
L70529 76124
L70501 76068
L70473 76040
L70417 76012
L70304 75984
L70248 75956
L70220 75928
L70192 75871
L70192 75815
L70220 75759
L70248 75731
L70304 75703
L70445 75703
L70529 75731
" />
<path d="M70782 76293
L70782 75899
" />
<path d="M70782 75703
L70754 75731
L70782 75759
L70810 75731
L70782 75703
L70782 75759
" />
<path d="M71007 75899
L71316 75899
L71007 76293
L71316 76293
" />
<path d="M71766 76265
L71710 76293
L71598 76293
L71541 76265
L71513 76209
L71513 75984
L71541 75928
L71598 75899
L71710 75899
L71766 75928
L71795 75984
L71795 76040
L71513 76096
" />
<path d="M72048 76237
L72076 76265
L72048 76293
L72019 76265
L72048 76237
L72048 76293
" />
<path d="M72048 75928
L72076 75956
L72048 75984
L72019 75956
L72048 75928
L72048 75984
" />
<path d="M72751 76124
L73032 76124
" />
<path d="M72694 76293
L72891 75703
L73088 76293
" />
<path d="M73538 75899
L73538 76293
" />
<path d="M73397 75674
L73257 76096
L73622 76096
" />
<path d="M103684 77395
L103684 76805
" />
<path d="M104219 77395
L104219 76805
" />
<path d="M104219 77367
L104162 77395
L104050 77395
L103994 77367
L103965 77339
L103937 77283
L103937 77114
L103965 77058
L103994 77030
L104050 77002
L104162 77002
L104219 77030
" />
<path d="M104500 77339
L104528 77367
L104500 77395
L104472 77367
L104500 77339
L104500 77395
" />
<path d="M104500 77030
L104528 77058
L104500 77086
L104472 77058
L104500 77030
L104500 77086
" />
<path d="M105540 77395
L105203 77395
" />
<path d="M105372 77395
L105372 76805
L105315 76889
L105259 76946
L105203 76974
" />
<path d="M106215 76777
L105709 77536
" />
<path d="M106721 77395
L106384 77395
" />
<path d="M106553 77395
L106553 76805
L106496 76889
L106440 76946
L106384 76974
" />
<path d="M69685 73821
L112205 73821
" />
</g>
<g style="fill:#000000; fill-opacity:0.0; 
stroke:#000000; stroke-width:157.48; stroke-opacity:1; 
stroke-linecap:round; stroke-linejoin:round;">
<path d="M70257 74099
L70707 74099
" />
<path d="M70384 74886
L70482 74099
" />
<path d="M70871 74886
L70937 74361
" />
<path d="M70970 74099
L70927 74136
L70960 74174
L71002 74136
L70970 74099
L70960 74174
" />
<path d="M71199 74361
L71499 74361
" />
<path d="M71345 74099
L71260 74774
L71288 74849
L71359 74886
L71434 74886
" />
<path d="M71809 74886
L71738 74849
L71710 74774
L71795 74099
" />
<path d="M72413 74849
L72334 74886
L72184 74886
L72113 74849
L72085 74774
L72123 74474
L72169 74399
L72249 74361
L72399 74361
L72469 74399
L72498 74474
L72488 74549
L72104 74624
" />
<path d="M72793 74811
L72826 74849
L72783 74886
L72751 74849
L72793 74811
L72783 74886
" />
<path d="M72844 74399
L72877 74436
L72835 74474
L72802 74436
L72844 74399
L72835 74474
" />
</g>
<g style="fill:#000000; fill-opacity:0.0; 
stroke:#000000; stroke-width:59.0551; stroke-opacity:1; 
stroke-linecap:round; stroke-linejoin:round;">
<path d="M70417 73070
L70220 73070
" />
<path d="M70220 73380
L70220 72789
L70501 72789
" />
<path d="M70726 73380
L70726 72986
" />
<path d="M70726 72789
L70698 72817
L70726 72845
L70754 72817
L70726 72789
L70726 72845
" />
<path d="M71091 73380
L71035 73352
L71007 73295
L71007 72789
" />
<path d="M71541 73352
L71485 73380
L71373 73380
L71316 73352
L71288 73295
L71288 73070
L71316 73014
L71373 72986
L71485 72986
L71541 73014
L71570 73070
L71570 73127
L71288 73183
" />
<path d="M71823 73323
L71851 73352
L71823 73380
L71795 73352
L71823 73323
L71823 73380
" />
<path d="M71823 73014
L71851 73042
L71823 73070
L71795 73042
L71823 73014
L71823 73070
" />
<path d="M72526 73211
L72807 73211
" />
<path d="M72469 73380
L72666 72789
L72863 73380
" />
<path d="M73060 73380
L73060 72789
L73201 72789
L73285 72817
L73341 72874
L73369 72930
L73397 73042
L73397 73127
L73369 73239
L73341 73295
L73285 73352
L73201 73380
L73060 73380
" />
<path d="M73988 73323
L73960 73352
L73876 73380
L73819 73380
L73735 73352
L73679 73295
L73651 73239
L73622 73127
L73622 73042
L73651 72930
L73679 72874
L73735 72817
L73819 72789
L73876 72789
L73960 72817
L73988 72845
" />
<path d="M74241 73323
L74269 73352
L74241 73380
L74213 73352
L74241 73323
L74241 73380
" />
<path d="M74522 73380
L74522 72789
" />
<path d="M74579 73155
L74747 73380
" />
<path d="M74747 72986
L74522 73211
" />
<path d="M75000 73380
L75000 72986
" />
<path d="M75000 72789
L74972 72817
L75000 72845
L75028 72817
L75000 72789
L75000 72845
" />
<path d="M75535 73352
L75478 73380
L75366 73380
L75310 73352
L75282 73323
L75253 73267
L75253 73099
L75282 73042
L75310 73014
L75366 72986
L75478 72986
L75535 73014
" />
<path d="M76041 73380
L76041 73070
L76013 73014
L75956 72986
L75844 72986
L75788 73014
" />
<path d="M76041 73352
L75985 73380
L75844 73380
L75788 73352
L75760 73295
L75760 73239
L75788 73183
L75844 73155
L75985 73155
L76041 73127
" />
<path d="M76575 73380
L76575 72789
" />
<path d="M76575 73352
L76519 73380
L76406 73380
L76350 73352
L76322 73323
L76294 73267
L76294 73099
L76322 73042
L76350 73014
L76406 72986
L76519 72986
L76575 73014
" />
<path d="M76716 73436
L77166 73436
" />
<path d="M77306 72986
L77306 73577
" />
<path d="M77306 73014
L77363 72986
L77475 72986
L77531 73014
L77559 73042
L77588 73099
L77588 73267
L77559 73323
L77531 73352
L77475 73380
L77363 73380
L77306 73352
" />
<path d="M78094 73352
L78037 73380
L77925 73380
L77869 73352
L77841 73323
L77813 73267
L77813 73099
L77841 73042
L77869 73014
L77925 72986
L78037 72986
L78094 73014
" />
<path d="M78347 73380
L78347 72789
" />
<path d="M78347 73014
L78403 72986
L78516 72986
L78572 73014
L78600 73042
L78628 73099
L78628 73267
L78600 73323
L78572 73352
L78516 73380
L78403 73380
L78347 73352
" />
<path d="M69685 71459
L112205 71459
" />
<path d="M70192 72289
L70276 72317
L70417 72317
L70473 72289
L70501 72260
L70529 72204
L70529 72148
L70501 72092
L70473 72064
L70417 72036
L70304 72007
L70248 71979
L70220 71951
L70192 71895
L70192 71839
L70220 71782
L70248 71754
L70304 71726
L70445 71726
L70529 71754
" />
<path d="M70782 72317
L70782 71726
" />
<path d="M71035 72317
L71035 72007
L71007 71951
L70951 71923
L70867 71923
L70810 71951
L70782 71979
" />
<path d="M71541 72289
L71485 72317
L71373 72317
L71316 72289
L71288 72232
L71288 72007
L71316 71951
L71373 71923
L71485 71923
L71541 71951
L71570 72007
L71570 72064
L71288 72120
" />
<path d="M72048 72289
L71991 72317
L71879 72317
L71823 72289
L71795 72232
L71795 72007
L71823 71951
L71879 71923
L71991 71923
L72048 71951
L72076 72007
L72076 72064
L71795 72120
" />
<path d="M72244 71923
L72469 71923
" />
<path d="M72329 71726
L72329 72232
L72357 72289
L72413 72317
L72469 72317
" />
<path d="M72666 72260
L72694 72289
L72666 72317
L72638 72289
L72666 72260
L72666 72317
" />
<path d="M72666 71951
L72694 71979
L72666 72007
L72638 71979
L72666 71951
L72666 72007
" />
<path d="M77559 75396
L77559 76577
" />
<path d="M102756 75396
L102756 77955
" />
</g>
<g style="fill:#000000; fill-opacity:0.0; 
stroke:#000000; stroke-width:118.11; stroke-opacity:1; 
stroke-linecap:round; stroke-linejoin:round;">
<path d="M11248 73141
L10967 73141
L10967 72550
" />
<path d="M11698 73141
L11698 72831
L11670 72775
L11614 72747
L11501 72747
L11445 72775
" />
<path d="M11698 73113
L11642 73141
L11501 73141
L11445 73113
L11417 73056
L11417 73000
L11445 72944
L11501 72916
L11642 72916
L11698 72888
" />
<path d="M11923 72747
L12064 73141
" />
<path d="M12204 72747
L12064 73141
L12007 73281
L11979 73309
L11923 73338
" />
<path d="M12654 73113
L12598 73141
L12485 73141
L12429 73113
L12401 73056
L12401 72831
L12429 72775
L12485 72747
L12598 72747
L12654 72775
L12682 72831
L12682 72888
L12401 72944
" />
<path d="M12935 73141
L12935 72747
" />
<path d="M12935 72859
L12964 72803
L12992 72775
L13048 72747
L13104 72747
" />
<path d="M13948 72831
L13751 72831
" />
<path d="M13751 73141
L13751 72550
L14032 72550
" />
<path d="M14257 73084
L14285 73113
L14257 73141
L14229 73113
L14257 73084
L14257 73141
" />
<path d="M14876 73084
L14848 73113
L14763 73141
L14707 73141
L14623 73113
L14566 73056
L14538 73000
L14510 72888
L14510 72803
L14538 72691
L14566 72634
L14623 72578
L14707 72550
L14763 72550
L14848 72578
L14876 72606
" />
<path d="M15382 72747
L15382 73141
" />
<path d="M15129 72747
L15129 73056
L15157 73113
L15213 73141
L15298 73141
L15354 73113
L15382 73084
" />
<path d="M16197 73141
L16141 73113
L16113 73084
L16085 73028
L16085 72859
L16113 72803
L16141 72775
L16197 72747
L16282 72747
L16338 72775
L16366 72803
L16394 72859
L16394 73028
L16366 73084
L16338 73113
L16282 73141
L16197 73141
" />
<path d="M16647 72747
L16647 73141
" />
<path d="M16647 72803
L16676 72775
L16732 72747
L16816 72747
L16872 72775
L16901 72831
L16901 73141
" />
<path d="M17632 73141
L17632 72550
" />
<path d="M17632 72775
L17688 72747
L17800 72747
L17857 72775
L17885 72803
L17913 72859
L17913 73028
L17885 73084
L17857 73113
L17800 73141
L17688 73141
L17632 73113
" />
<path d="M18250 73141
L18194 73113
L18166 73084
L18138 73028
L18138 72859
L18166 72803
L18194 72775
L18250 72747
L18335 72747
L18391 72775
L18419 72803
L18447 72859
L18447 73028
L18419 73084
L18391 73113
L18335 73141
L18250 73141
" />
<path d="M18953 73141
L18953 72831
L18925 72775
L18869 72747
L18757 72747
L18700 72775
" />
<path d="M18953 73113
L18897 73141
L18757 73141
L18700 73113
L18672 73056
L18672 73000
L18700 72944
L18757 72916
L18897 72916
L18953 72888
" />
<path d="M19235 73141
L19235 72747
" />
<path d="M19235 72859
L19263 72803
L19291 72775
L19347 72747
L19403 72747
" />
<path d="M19853 73141
L19853 72550
" />
<path d="M19853 73113
L19797 73141
L19685 73141
L19628 73113
L19600 73084
L19572 73028
L19572 72859
L19600 72803
L19628 72775
L19685 72747
L19797 72747
L19853 72775
" />
<path d="M20584 73141
L20584 72550
L20809 72550
L20866 72578
L20894 72606
L20922 72663
L20922 72747
L20894 72803
L20866 72831
L20809 72859
L20584 72859
" />
<path d="M21147 73113
L21231 73141
L21372 73141
L21428 73113
L21456 73084
L21484 73028
L21484 72972
L21456 72916
L21428 72888
L21372 72859
L21259 72831
L21203 72803
L21175 72775
L21147 72719
L21147 72663
L21175 72606
L21203 72578
L21259 72550
L21400 72550
L21484 72578
" />
<path d="M21737 72550
L21737 73028
L21766 73084
L21794 73113
L21850 73141
L21962 73141
L22019 73113
L22047 73084
L22075 73028
L22075 72550
" />
<path d="M22356 72916
L22806 72916
" />
<path d="M23059 72972
L23340 72972
" />
<path d="M23003 73141
L23200 72550
L23397 73141
" />
<path d="M24043 73141
L24043 72747
" />
<path d="M24043 72859
L24071 72803
L24100 72775
L24156 72747
L24212 72747
" />
<path d="M24634 73113
L24578 73141
L24465 73141
L24409 73113
L24381 73056
L24381 72831
L24409 72775
L24465 72747
L24578 72747
L24634 72775
L24662 72831
L24662 72888
L24381 72944
" />
<path d="M24915 72747
L24915 73338
" />
<path d="M24915 72775
L24971 72747
L25084 72747
L25140 72775
L25168 72803
L25196 72859
L25196 73028
L25168 73084
L25140 73113
L25084 73141
L24971 73141
L24915 73113
" />
<path d="M25449 73141
L25449 72747
" />
<path d="M25449 72859
L25478 72803
L25506 72775
L25562 72747
L25618 72747
" />
<path d="M26040 73113
L25984 73141
L25871 73141
L25815 73113
L25787 73056
L25787 72831
L25815 72775
L25871 72747
L25984 72747
L26040 72775
L26068 72831
L26068 72888
L25787 72944
" />
<path d="M26293 73113
L26349 73141
L26462 73141
L26518 73113
L26546 73056
L26546 73028
L26518 72972
L26462 72944
L26377 72944
L26321 72916
L26293 72859
L26293 72831
L26321 72775
L26377 72747
L26462 72747
L26518 72775
" />
<path d="M27024 73113
L26968 73141
L26856 73141
L26799 73113
L26771 73056
L26771 72831
L26799 72775
L26856 72747
L26968 72747
L27024 72775
L27052 72831
L27052 72888
L26771 72944
" />
<path d="M27305 72747
L27305 73141
" />
<path d="M27305 72803
L27334 72775
L27390 72747
L27474 72747
L27530 72775
L27559 72831
L27559 73141
" />
<path d="M27755 72747
L27980 72747
" />
<path d="M27840 72550
L27840 73056
L27868 73113
L27924 73141
L27980 73141
" />
<path d="M28149 73113
L28205 73141
L28318 73141
L28374 73113
L28402 73056
L28402 73028
L28374 72972
L28318 72944
L28233 72944
L28177 72916
L28149 72859
L28149 72831
L28177 72775
L28233 72747
L28318 72747
L28374 72775
" />
<path d="M29049 72747
L29161 73141
L29274 72859
L29386 73141
L29499 72747
" />
<path d="M29724 73141
L29724 72747
" />
<path d="M29724 72550
L29696 72578
L29724 72606
L29752 72578
L29724 72550
L29724 72606
" />
<path d="M30005 73141
L30005 72747
" />
<path d="M30005 72859
L30033 72803
L30061 72775
L30118 72747
L30174 72747
" />
<path d="M30596 73113
L30539 73141
L30427 73141
L30371 73113
L30343 73056
L30343 72831
L30371 72775
L30427 72747
L30539 72747
L30596 72775
L30624 72831
L30624 72888
L30343 72944
" />
<path d="M31411 73141
L31355 73113
L31327 73056
L31327 72550
" />
<path d="M31636 73141
L31636 72747
" />
<path d="M31636 72550
L31608 72578
L31636 72606
L31664 72578
L31636 72550
L31636 72606
" />
<path d="M31917 72747
L31917 73141
" />
<path d="M31917 72803
L31946 72775
L32002 72747
L32086 72747
L32142 72775
L32170 72831
L32170 73141
" />
<path d="M32452 73141
L32452 72550
" />
<path d="M32508 72916
L32677 73141
" />
<path d="M32677 72747
L32452 72972
" />
<path d="M32902 73113
L32958 73141
L33070 73141
L33127 73113
L33155 73056
L33155 73028
L33127 72972
L33070 72944
L32986 72944
L32930 72916
L32902 72859
L32902 72831
L32930 72775
L32986 72747
L33070 72747
L33127 72775
" />
<path d="M33408 73084
L33436 73113
L33408 73141
L33380 73113
L33408 73084
L33408 73141
" />
<path d="M11248 74086
L10967 74086
L10967 73495
" />
<path d="M11698 74086
L11698 73776
L11670 73720
L11614 73692
L11501 73692
L11445 73720
" />
<path d="M11698 74057
L11642 74086
L11501 74086
L11445 74057
L11417 74001
L11417 73945
L11445 73889
L11501 73861
L11642 73861
L11698 73832
" />
<path d="M11923 73692
L12064 74086
" />
<path d="M12204 73692
L12064 74086
L12007 74226
L11979 74254
L11923 74282
" />
<path d="M12654 74057
L12598 74086
L12485 74086
L12429 74057
L12401 74001
L12401 73776
L12429 73720
L12485 73692
L12598 73692
L12654 73720
L12682 73776
L12682 73832
L12401 73889
" />
<path d="M12935 74086
L12935 73692
" />
<path d="M12935 73804
L12964 73748
L12992 73720
L13048 73692
L13104 73692
" />
<path d="M13751 74086
L13751 73495
" />
<path d="M14032 73692
L14032 74086
" />
<path d="M14032 73748
L14060 73720
L14116 73692
L14201 73692
L14257 73720
L14285 73776
L14285 74086
" />
<path d="M14566 73692
L14566 74086
" />
<path d="M14566 73748
L14595 73720
L14651 73692
L14735 73692
L14791 73720
L14820 73776
L14820 74086
" />
<path d="M15326 74057
L15269 74086
L15157 74086
L15101 74057
L15073 74001
L15073 73776
L15101 73720
L15157 73692
L15269 73692
L15326 73720
L15354 73776
L15354 73832
L15073 73889
" />
<path d="M15607 74086
L15607 73692
" />
<path d="M15607 73804
L15635 73748
L15663 73720
L15719 73692
L15776 73692
" />
<path d="M15944 73551
L15973 73523
L16029 73495
L16169 73495
L16226 73523
L16254 73551
L16282 73607
L16282 73664
L16254 73748
L15916 74086
L16282 74086
" />
<path d="M16535 74029
L16563 74057
L16535 74086
L16507 74057
L16535 74029
L16535 74086
" />
<path d="M17154 74029
L17125 74057
L17041 74086
L16985 74086
L16901 74057
L16844 74001
L16816 73945
L16788 73832
L16788 73748
L16816 73636
L16844 73579
L16901 73523
L16985 73495
L17041 73495
L17125 73523
L17154 73551
" />
<path d="M17660 73692
L17660 74086
" />
<path d="M17407 73692
L17407 74001
L17435 74057
L17491 74086
L17575 74086
L17632 74057
L17660 74029
" />
<path d="M18475 74086
L18419 74057
L18391 74029
L18363 73973
L18363 73804
L18391 73748
L18419 73720
L18475 73692
L18560 73692
L18616 73720
L18644 73748
L18672 73804
L18672 73973
L18644 74029
L18616 74057
L18560 74086
L18475 74086
" />
<path d="M18925 73692
L18925 74086
" />
<path d="M18925 73748
L18953 73720
L19010 73692
L19094 73692
L19150 73720
L19178 73776
L19178 74086
" />
<path d="M19910 74086
L19910 73495
" />
<path d="M19910 73720
L19966 73692
L20078 73692
L20134 73720
L20163 73748
L20191 73804
L20191 73973
L20163 74029
L20134 74057
L20078 74086
L19966 74086
L19910 74057
" />
<path d="M20528 74086
L20472 74057
L20444 74029
L20416 73973
L20416 73804
L20444 73748
L20472 73720
L20528 73692
L20613 73692
L20669 73720
L20697 73748
L20725 73804
L20725 73973
L20697 74029
L20669 74057
L20613 74086
L20528 74086
" />
<path d="M21231 74086
L21231 73776
L21203 73720
L21147 73692
L21034 73692
L20978 73720
" />
<path d="M21231 74057
L21175 74086
L21034 74086
L20978 74057
L20950 74001
L20950 73945
L20978 73889
L21034 73861
L21175 73861
L21231 73832
" />
<path d="M21512 74086
L21512 73692
" />
<path d="M21512 73804
L21541 73748
L21569 73720
L21625 73692
L21681 73692
" />
<path d="M22131 74086
L22131 73495
" />
<path d="M22131 74057
L22075 74086
L21962 74086
L21906 74057
L21878 74029
L21850 73973
L21850 73804
L21878 73748
L21906 73720
L21962 73692
L22075 73692
L22131 73720
" />
<path d="M22862 74086
L22862 73495
L23087 73495
L23143 73523
L23172 73551
L23200 73607
L23200 73692
L23172 73748
L23143 73776
L23087 73804
L22862 73804
" />
<path d="M23425 74057
L23509 74086
L23650 74086
L23706 74057
L23734 74029
L23762 73973
L23762 73917
L23734 73861
L23706 73832
L23650 73804
L23537 73776
L23481 73748
L23453 73720
L23425 73664
L23425 73607
L23453 73551
L23481 73523
L23537 73495
L23678 73495
L23762 73523
" />
<path d="M24015 73495
L24015 73973
L24043 74029
L24071 74057
L24128 74086
L24240 74086
L24296 74057
L24325 74029
L24353 73973
L24353 73495
" />
<path d="M24634 73861
L25084 73861
" />
<path d="M25562 73776
L25646 73804
L25674 73832
L25703 73889
L25703 73973
L25674 74029
L25646 74057
L25590 74086
L25365 74086
L25365 73495
L25562 73495
L25618 73523
L25646 73551
L25674 73607
L25674 73664
L25646 73720
L25618 73748
L25562 73776
L25365 73776
" />
<path d="M26377 73467
L25871 74226
" />
<path d="M26546 74057
L26631 74086
L26771 74086
L26827 74057
L26856 74029
L26884 73973
L26884 73917
L26856 73861
L26827 73832
L26771 73804
L26659 73776
L26602 73748
L26574 73720
L26546 73664
L26546 73607
L26574 73551
L26602 73523
L26659 73495
L26799 73495
L26884 73523
" />
<path d="M27137 74086
L27137 73692
" />
<path d="M27137 73495
L27109 73523
L27137 73551
L27165 73523
L27137 73495
L27137 73551
" />
<path d="M27671 73692
L27671 74170
L27643 74226
L27615 74254
L27559 74282
L27474 74282
L27418 74254
" />
<path d="M27671 74057
L27615 74086
L27502 74086
L27446 74057
L27418 74029
L27390 73973
L27390 73804
L27418 73748
L27446 73720
L27502 73692
L27615 73692
L27671 73720
" />
<path d="M28402 74086
L28402 73692
" />
<path d="M28402 73804
L28430 73748
L28458 73720
L28515 73692
L28571 73692
" />
<path d="M28993 74057
L28937 74086
L28824 74086
L28768 74057
L28740 74001
L28740 73776
L28768 73720
L28824 73692
L28937 73692
L28993 73720
L29021 73776
L29021 73832
L28740 73889
" />
<path d="M29274 73692
L29274 74282
" />
<path d="M29274 73720
L29330 73692
L29443 73692
L29499 73720
L29527 73748
L29555 73804
L29555 73973
L29527 74029
L29499 74057
L29443 74086
L29330 74086
L29274 74057
" />
<path d="M29808 74086
L29808 73692
" />
<path d="M29808 73804
L29836 73748
L29865 73720
L29921 73692
L29977 73692
" />
<path d="M30399 74057
L30343 74086
L30230 74086
L30174 74057
L30146 74001
L30146 73776
L30174 73720
L30230 73692
L30343 73692
L30399 73720
L30427 73776
L30427 73832
L30146 73889
" />
<path d="M30652 74057
L30708 74086
L30821 74086
L30877 74057
L30905 74001
L30905 73973
L30877 73917
L30821 73889
L30736 73889
L30680 73861
L30652 73804
L30652 73776
L30680 73720
L30736 73692
L30821 73692
L30877 73720
" />
<path d="M31383 74057
L31327 74086
L31214 74086
L31158 74057
L31130 74001
L31130 73776
L31158 73720
L31214 73692
L31327 73692
L31383 73720
L31411 73776
L31411 73832
L31130 73889
" />
<path d="M31664 73692
L31664 74086
" />
<path d="M31664 73748
L31692 73720
L31749 73692
L31833 73692
L31889 73720
L31917 73776
L31917 74086
" />
<path d="M32114 73692
L32339 73692
" />
<path d="M32199 73495
L32199 74001
L32227 74057
L32283 74086
L32339 74086
" />
<path d="M32508 74057
L32564 74086
L32677 74086
L32733 74057
L32761 74001
L32761 73973
L32733 73917
L32677 73889
L32592 73889
L32536 73861
L32508 73804
L32508 73776
L32536 73720
L32592 73692
L32677 73692
L32733 73720
" />
<path d="M33408 73692
L33520 74086
L33633 73804
L33745 74086
L33858 73692
" />
<path d="M34083 74086
L34083 73692
" />
<path d="M34083 73495
L34055 73523
L34083 73551
L34111 73523
L34083 73495
L34083 73551
" />
<path d="M34364 74086
L34364 73692
" />
<path d="M34364 73804
L34392 73748
L34420 73720
L34476 73692
L34533 73692
" />
<path d="M34955 74057
L34898 74086
L34786 74086
L34730 74057
L34701 74001
L34701 73776
L34730 73720
L34786 73692
L34898 73692
L34955 73720
L34983 73776
L34983 73832
L34701 73889
" />
<path d="M35770 74086
L35714 74057
L35686 74001
L35686 73495
" />
<path d="M35995 74086
L35995 73692
" />
<path d="M35995 73495
L35967 73523
L35995 73551
L36023 73523
L35995 73495
L35995 73551
" />
<path d="M36276 73692
L36276 74086
" />
<path d="M36276 73748
L36304 73720
L36361 73692
L36445 73692
L36501 73720
L36529 73776
L36529 74086
" />
<path d="M36811 74086
L36811 73495
" />
<path d="M36867 73861
L37035 74086
" />
<path d="M37035 73692
L36811 73917
" />
<path d="M37260 74057
L37317 74086
L37429 74086
L37485 74057
L37514 74001
L37514 73973
L37485 73917
L37429 73889
L37345 73889
L37289 73861
L37260 73804
L37260 73776
L37289 73720
L37345 73692
L37429 73692
L37485 73720
" />
<path d="M37767 74029
L37795 74057
L37767 74086
L37739 74057
L37767 74029
L37767 74086
" />
<path d="M10967 74440
L10967 74918
L10995 74974
L11023 75002
L11079 75030
L11192 75030
L11248 75002
L11276 74974
L11304 74918
L11304 74440
" />
<path d="M11557 75002
L11614 75030
L11726 75030
L11782 75002
L11811 74946
L11811 74918
L11782 74862
L11726 74834
L11642 74834
L11586 74805
L11557 74749
L11557 74721
L11586 74665
L11642 74637
L11726 74637
L11782 74665
" />
<path d="M12289 75002
L12232 75030
L12120 75030
L12064 75002
L12035 74946
L12035 74721
L12064 74665
L12120 74637
L12232 74637
L12289 74665
L12317 74721
L12317 74777
L12035 74834
" />
<path d="M13020 75030
L13020 74637
" />
<path d="M13020 74440
L12992 74468
L13020 74496
L13048 74468
L13020 74440
L13020 74496
" />
<path d="M13301 74637
L13301 75030
" />
<path d="M13301 74693
L13329 74665
L13385 74637
L13470 74637
L13526 74665
L13554 74721
L13554 75030
" />
<path d="M13807 75002
L13863 75030
L13976 75030
L14032 75002
L14060 74946
L14060 74918
L14032 74862
L13976 74834
L13892 74834
L13835 74805
L13807 74749
L13807 74721
L13835 74665
L13892 74637
L13976 74637
L14032 74665
" />
<path d="M14566 74637
L14566 75030
" />
<path d="M14313 74637
L14313 74946
L14341 75002
L14398 75030
L14482 75030
L14538 75002
L14566 74974
" />
<path d="M14932 75030
L14876 75002
L14848 74946
L14848 74440
" />
<path d="M15410 75030
L15410 74721
L15382 74665
L15326 74637
L15213 74637
L15157 74665
" />
<path d="M15410 75002
L15354 75030
L15213 75030
L15157 75002
L15129 74946
L15129 74890
L15157 74834
L15213 74805
L15354 74805
L15410 74777
" />
<path d="M15607 74637
L15832 74637
" />
<path d="M15691 74440
L15691 74946
L15719 75002
L15776 75030
L15832 75030
" />
<path d="M16254 75002
L16197 75030
L16085 75030
L16029 75002
L16001 74946
L16001 74721
L16029 74665
L16085 74637
L16197 74637
L16254 74665
L16282 74721
L16282 74777
L16001 74834
" />
<path d="M16788 75030
L16788 74440
" />
<path d="M16788 75002
L16732 75030
L16619 75030
L16563 75002
L16535 74974
L16507 74918
L16507 74749
L16535 74693
L16563 74665
L16619 74637
L16732 74637
L16788 74665
" />
<path d="M17491 75002
L17547 75030
L17660 75030
L17716 75002
L17744 74946
L17744 74918
L17716 74862
L17660 74834
L17575 74834
L17519 74805
L17491 74749
L17491 74721
L17519 74665
L17575 74637
L17660 74637
L17716 74665
" />
<path d="M18250 75002
L18194 75030
L18082 75030
L18025 75002
L17997 74974
L17969 74918
L17969 74749
L17997 74693
L18025 74665
L18082 74637
L18194 74637
L18250 74665
" />
<path d="M18503 75030
L18503 74637
" />
<path d="M18503 74749
L18532 74693
L18560 74665
L18616 74637
L18672 74637
" />
<path d="M19094 75002
L19038 75030
L18925 75030
L18869 75002
L18841 74946
L18841 74721
L18869 74665
L18925 74637
L19038 74637
L19094 74665
L19122 74721
L19122 74777
L18841 74834
" />
<path d="M19319 74637
L19431 75030
L19544 74749
L19656 75030
L19769 74637
" />
<path d="M19966 75002
L20022 75030
L20134 75030
L20191 75002
L20219 74946
L20219 74918
L20191 74862
L20134 74834
L20050 74834
L19994 74805
L19966 74749
L19966 74721
L19994 74665
L20050 74637
L20134 74637
L20191 74665
" />
<path d="M20838 74637
L21062 74637
" />
<path d="M20922 75030
L20922 74524
L20950 74468
L21006 74440
L21062 74440
" />
<path d="M21344 75030
L21287 75002
L21259 74974
L21231 74918
L21231 74749
L21259 74693
L21287 74665
L21344 74637
L21428 74637
L21484 74665
L21512 74693
L21541 74749
L21541 74918
L21512 74974
L21484 75002
L21428 75030
L21344 75030
" />
<path d="M21794 75030
L21794 74637
" />
<path d="M21794 74749
L21822 74693
L21850 74665
L21906 74637
L21962 74637
" />
<path d="M22609 75030
L22609 74440
L22834 74440
L22890 74468
L22919 74496
L22947 74552
L22947 74637
L22919 74693
L22890 74721
L22834 74749
L22609 74749
" />
<path d="M23172 75002
L23256 75030
L23397 75030
L23453 75002
L23481 74974
L23509 74918
L23509 74862
L23481 74805
L23453 74777
L23397 74749
L23284 74721
L23228 74693
L23200 74665
L23172 74609
L23172 74552
L23200 74496
L23228 74468
L23284 74440
L23425 74440
L23509 74468
" />
<path d="M23762 74440
L23762 74918
L23790 74974
L23818 75002
L23875 75030
L23987 75030
L24043 75002
L24071 74974
L24100 74918
L24100 74440
" />
<path d="M24381 74805
L24831 74805
" />
<path d="M25084 74862
L25365 74862
" />
<path d="M25028 75030
L25224 74440
L25421 75030
" />
<path d="M25618 74974
L25646 75002
L25618 75030
L25590 75002
L25618 74974
L25618 75030
" />
<path d="M73481 72314
L73143 72314
" />
<path d="M73312 72314
L73312 71723
L73256 71808
L73200 71864
L73143 71892
" />
<path d="M74268 72314
L74212 72286
L74184 72258
L74156 72201
L74156 72033
L74184 71976
L74212 71948
L74268 71920
L74353 71920
L74409 71948
L74437 71976
L74465 72033
L74465 72201
L74437 72258
L74409 72286
L74353 72314
L74268 72314
" />
<path d="M74634 71920
L74859 71920
" />
<path d="M74718 72314
L74718 71808
L74746 71751
L74803 71723
L74859 71723
" />
<path d="M75815 72314
L75478 72314
" />
<path d="M75646 72314
L75646 71723
L75590 71808
L75534 71864
L75478 71892
" />
<path d="M70584 66515
L70866 66515
" />
<path d="M70528 66684
L70725 66093
L70922 66684
" />
<path d="M71119 66684
L71119 66093
L71259 66093
L71344 66122
L71400 66178
L71428 66234
L71456 66347
L71456 66431
L71428 66543
L71400 66600
L71344 66656
L71259 66684
L71119 66684
" />
<path d="M72047 66628
L72019 66656
L71934 66684
L71878 66684
L71794 66656
L71737 66600
L71709 66543
L71681 66431
L71681 66347
L71709 66234
L71737 66178
L71794 66122
L71878 66093
L71934 66093
L72019 66122
L72047 66150
" />
<path d="M72609 66684
L72272 66684
" />
<path d="M72440 66684
L72440 66093
L72384 66178
L72328 66234
L72272 66262
" />
<path d="M72862 66628
L72890 66656
L72862 66684
L72834 66656
L72862 66628
L72862 66684
" />
<path d="M72862 66318
L72890 66347
L72862 66375
L72834 66347
L72862 66318
L72862 66375
" />
<path d="M73593 66375
L73790 66375
" />
<path d="M73875 66684
L73593 66684
L73593 66093
L73875 66093
" />
<path d="M74071 66684
L74381 66290
" />
<path d="M74071 66290
L74381 66684
" />
<path d="M74521 66290
L74746 66290
" />
<path d="M74606 66093
L74606 66600
L74634 66656
L74690 66684
L74746 66684
" />
<path d="M75168 66656
L75112 66684
L75000 66684
L74943 66656
L74915 66600
L74915 66375
L74943 66318
L75000 66290
L75112 66290
L75168 66318
L75196 66375
L75196 66431
L74915 66487
" />
<path d="M75449 66684
L75449 66290
" />
<path d="M75449 66403
L75478 66347
L75506 66318
L75562 66290
L75618 66290
" />
<path d="M75815 66290
L75815 66684
" />
<path d="M75815 66347
L75843 66318
L75899 66290
L75984 66290
L76040 66318
L76068 66375
L76068 66684
" />
<path d="M76602 66684
L76602 66375
L76574 66318
L76518 66290
L76406 66290
L76349 66318
" />
<path d="M76602 66656
L76546 66684
L76406 66684
L76349 66656
L76321 66600
L76321 66543
L76349 66487
L76406 66459
L76546 66459
L76602 66431
" />
<path d="M76968 66684
L76912 66656
L76884 66600
L76884 66093
" />
<path d="M77643 66684
L77643 66093
L77868 66093
L77924 66122
L77952 66150
L77980 66206
L77980 66290
L77952 66347
L77924 66375
L77868 66403
L77643 66403
" />
<path d="M78205 66656
L78290 66684
L78430 66684
L78487 66656
L78515 66628
L78543 66571
L78543 66515
L78515 66459
L78487 66431
L78430 66403
L78318 66375
L78262 66347
L78233 66318
L78205 66262
L78205 66206
L78233 66150
L78262 66122
L78318 66093
L78458 66093
L78543 66122
" />
<path d="M78796 66093
L78796 66571
L78824 66628
L78852 66656
L78908 66684
L79021 66684
L79077 66656
L79105 66628
L79133 66571
L79133 66093
" />
<path d="M79443 66656
L79443 66684
L79415 66740
L79386 66768
" />
<path d="M80146 66684
L80146 66290
" />
<path d="M80146 66093
L80118 66122
L80146 66150
L80174 66122
L80146 66093
L80146 66150
" />
<path d="M80427 66290
L80427 66684
" />
<path d="M80427 66347
L80455 66318
L80511 66290
L80596 66290
L80652 66318
L80680 66375
L80680 66684
" />
<path d="M80877 66290
L81102 66290
" />
<path d="M80961 66093
L80961 66600
L80989 66656
L81046 66684
L81102 66684
" />
<path d="M81524 66656
L81467 66684
L81355 66684
L81299 66656
L81271 66600
L81271 66375
L81299 66318
L81355 66290
L81467 66290
L81524 66318
L81552 66375
L81552 66431
L81271 66487
" />
<path d="M81805 66684
L81805 66290
" />
<path d="M81805 66403
L81833 66347
L81861 66318
L81917 66290
L81974 66290
" />
<path d="M82170 66290
L82170 66684
" />
<path d="M82170 66347
L82199 66318
L82255 66290
L82339 66290
L82395 66318
L82424 66375
L82424 66684
" />
<path d="M82958 66684
L82958 66375
L82930 66318
L82874 66290
L82761 66290
L82705 66318
" />
<path d="M82958 66656
L82902 66684
L82761 66684
L82705 66656
L82677 66600
L82677 66543
L82705 66487
L82761 66459
L82902 66459
L82958 66431
" />
<path d="M83323 66684
L83267 66656
L83239 66600
L83239 66093
" />
<path d="M83998 66684
L83998 66093
L84223 66093
L84280 66122
L84308 66150
L84336 66206
L84336 66290
L84308 66347
L84280 66375
L84223 66403
L83998 66403
" />
<path d="M84561 66656
L84645 66684
L84786 66684
L84842 66656
L84870 66628
L84898 66571
L84898 66515
L84870 66459
L84842 66431
L84786 66403
L84673 66375
L84617 66347
L84589 66318
L84561 66262
L84561 66206
L84589 66150
L84617 66122
L84673 66093
L84814 66093
L84898 66122
" />
<path d="M85151 66093
L85151 66571
L85179 66628
L85208 66656
L85264 66684
L85376 66684
L85433 66656
L85461 66628
L85489 66571
L85489 66093
" />
<path d="M85798 66656
L85798 66684
L85770 66740
L85742 66768
" />
<path d="M86754 66684
L86754 66375
L86726 66318
L86670 66290
L86557 66290
L86501 66318
" />
<path d="M86754 66656
L86698 66684
L86557 66684
L86501 66656
L86473 66600
L86473 66543
L86501 66487
L86557 66459
L86698 66459
L86754 66431
" />
<path d="M87035 66290
L87035 66684
" />
<path d="M87035 66347
L87064 66318
L87120 66290
L87204 66290
L87260 66318
L87289 66375
L87289 66684
" />
<path d="M87823 66684
L87823 66093
" />
<path d="M87823 66656
L87767 66684
L87654 66684
L87598 66656
L87570 66628
L87542 66571
L87542 66403
L87570 66347
L87598 66318
L87654 66290
L87767 66290
L87823 66318
" />
<path d="M88526 66656
L88582 66684
L88695 66684
L88751 66656
L88779 66600
L88779 66571
L88751 66515
L88695 66487
L88610 66487
L88554 66459
L88526 66403
L88526 66375
L88554 66318
L88610 66290
L88695 66290
L88751 66318
" />
<path d="M89032 66684
L89032 66290
" />
<path d="M89032 66093
L89004 66122
L89032 66150
L89060 66122
L89032 66093
L89032 66150
" />
<path d="M89566 66290
L89566 66768
L89538 66825
L89510 66853
L89454 66881
L89370 66881
L89313 66853
" />
<path d="M89566 66656
L89510 66684
L89398 66684
L89341 66656
L89313 66628
L89285 66571
L89285 66403
L89313 66347
L89341 66318
L89398 66290
L89510 66290
L89566 66318
" />
<path d="M89848 66290
L89848 66684
" />
<path d="M89848 66347
L89876 66318
L89932 66290
L90016 66290
L90073 66318
L90101 66375
L90101 66684
" />
<path d="M90635 66684
L90635 66375
L90607 66318
L90551 66290
L90438 66290
L90382 66318
" />
<path d="M90635 66656
L90579 66684
L90438 66684
L90382 66656
L90354 66600
L90354 66543
L90382 66487
L90438 66459
L90579 66459
L90635 66431
" />
<path d="M91001 66684
L90944 66656
L90916 66600
L90916 66093
" />
<path d="M91676 66290
L91676 66881
" />
<path d="M91676 66318
L91732 66290
L91844 66290
L91901 66318
L91929 66347
L91957 66403
L91957 66571
L91929 66628
L91901 66656
L91844 66684
L91732 66684
L91676 66656
" />
<path d="M92210 66684
L92210 66290
" />
<path d="M92210 66403
L92238 66347
L92266 66318
L92322 66290
L92379 66290
" />
<path d="M92660 66684
L92604 66656
L92575 66628
L92547 66571
L92547 66403
L92575 66347
L92604 66318
L92660 66290
L92744 66290
L92800 66318
L92829 66347
L92857 66403
L92857 66571
L92829 66628
L92800 66656
L92744 66684
L92660 66684
" />
<path d="M93363 66656
L93307 66684
L93194 66684
L93138 66656
L93110 66628
L93082 66571
L93082 66403
L93110 66347
L93138 66318
L93194 66290
L93307 66290
L93363 66318
" />
<path d="M93841 66656
L93785 66684
L93672 66684
L93616 66656
L93588 66600
L93588 66375
L93616 66318
L93672 66290
L93785 66290
L93841 66318
L93869 66375
L93869 66431
L93588 66487
" />
<path d="M94094 66656
L94150 66684
L94263 66684
L94319 66656
L94347 66600
L94347 66571
L94319 66515
L94263 66487
L94178 66487
L94122 66459
L94094 66403
L94094 66375
L94122 66318
L94178 66290
L94263 66290
L94319 66318
" />
<path d="M94572 66656
L94628 66684
L94741 66684
L94797 66656
L94825 66600
L94825 66571
L94797 66515
L94741 66487
L94656 66487
L94600 66459
L94572 66403
L94572 66375
L94600 66318
L94656 66290
L94741 66290
L94797 66318
" />
<path d="M95078 66684
L95078 66290
" />
<path d="M95078 66093
L95050 66122
L95078 66150
L95106 66122
L95078 66093
L95078 66150
" />
<path d="M95359 66290
L95359 66684
" />
<path d="M95359 66347
L95388 66318
L95444 66290
L95528 66290
L95584 66318
L95613 66375
L95613 66684
" />
<path d="M96147 66290
L96147 66768
L96119 66825
L96091 66853
L96034 66881
L95950 66881
L95894 66853
" />
<path d="M96147 66656
L96091 66684
L95978 66684
L95922 66656
L95894 66628
L95866 66571
L95866 66403
L95894 66347
L95922 66318
L95978 66290
L96091 66290
L96147 66318
" />
<path d="M97131 66656
L97075 66684
L96962 66684
L96906 66656
L96878 66628
L96850 66571
L96850 66403
L96878 66347
L96906 66318
L96962 66290
L97075 66290
L97131 66318
" />
<path d="M97384 66684
L97384 66290
" />
<path d="M97384 66093
L97356 66122
L97384 66150
L97412 66122
L97384 66093
L97384 66150
" />
<path d="M97665 66684
L97665 66290
" />
<path d="M97665 66403
L97694 66347
L97722 66318
L97778 66290
L97834 66290
" />
<path d="M98284 66656
L98228 66684
L98115 66684
L98059 66656
L98031 66628
L98003 66571
L98003 66403
L98031 66347
L98059 66318
L98115 66290
L98228 66290
L98284 66318
" />
<path d="M98790 66290
L98790 66684
" />
<path d="M98537 66290
L98537 66600
L98565 66656
L98622 66684
L98706 66684
L98762 66656
L98790 66628
" />
<path d="M99071 66684
L99071 66290
" />
<path d="M99071 66093
L99043 66122
L99071 66150
L99100 66122
L99071 66093
L99071 66150
" />
<path d="M99268 66290
L99493 66290
" />
<path d="M99353 66093
L99353 66600
L99381 66656
L99437 66684
L99493 66684
" />
<path d="M99690 66684
L99690 66290
" />
<path d="M99690 66403
L99718 66347
L99746 66318
L99803 66290
L99859 66290
" />
<path d="M100000 66290
L100140 66684
" />
<path d="M100281 66290
L100140 66684
L100084 66825
L100056 66853
L100000 66881
" />
<path d="M100506 66628
L100534 66656
L100506 66684
L100478 66656
L100506 66628
L100506 66684
" />
<path d="M70613 67629
L70613 67038
L70753 67038
L70838 67066
L70894 67123
L70922 67179
L70950 67291
L70950 67376
L70922 67488
L70894 67544
L70838 67601
L70753 67629
L70613 67629
" />
<path d="M71428 67601
L71372 67629
L71259 67629
L71203 67601
L71175 67544
L71175 67320
L71203 67263
L71259 67235
L71372 67235
L71428 67263
L71456 67320
L71456 67376
L71175 67432
" />
<path d="M71681 67601
L71737 67629
L71850 67629
L71906 67601
L71934 67544
L71934 67516
L71906 67460
L71850 67432
L71766 67432
L71709 67404
L71681 67348
L71681 67320
L71709 67263
L71766 67235
L71850 67235
L71906 67263
" />
<path d="M72187 67629
L72187 67235
" />
<path d="M72187 67038
L72159 67066
L72187 67095
L72215 67066
L72187 67038
L72187 67095
" />
<path d="M72722 67235
L72722 67713
L72694 67769
L72665 67798
L72609 67826
L72525 67826
L72469 67798
" />
<path d="M72722 67601
L72665 67629
L72553 67629
L72497 67601
L72469 67573
L72440 67516
L72440 67348
L72469 67291
L72497 67263
L72553 67235
L72665 67235
L72722 67263
" />
<path d="M73003 67235
L73003 67629
" />
<path d="M73003 67291
L73031 67263
L73087 67235
L73172 67235
L73228 67263
L73256 67320
L73256 67629
" />
<path d="M73762 67601
L73706 67629
L73593 67629
L73537 67601
L73509 67544
L73509 67320
L73537 67263
L73593 67235
L73706 67235
L73762 67263
L73790 67320
L73790 67376
L73509 67432
" />
<path d="M74296 67629
L74296 67038
" />
<path d="M74296 67601
L74240 67629
L74128 67629
L74071 67601
L74043 67573
L74015 67516
L74015 67348
L74043 67291
L74071 67263
L74128 67235
L74240 67235
L74296 67263
" />
<path d="M74943 67235
L75168 67235
" />
<path d="M75028 67629
L75028 67123
L75056 67066
L75112 67038
L75168 67038
" />
<path d="M75449 67629
L75393 67601
L75365 67573
L75337 67516
L75337 67348
L75365 67291
L75393 67263
L75449 67235
L75534 67235
L75590 67263
L75618 67291
L75646 67348
L75646 67516
L75618 67573
L75590 67601
L75534 67629
L75449 67629
" />
<path d="M75899 67629
L75899 67235
" />
<path d="M75899 67348
L75928 67291
L75956 67263
L76012 67235
L76068 67235
" />
<path d="M76968 67235
L76968 67629
" />
<path d="M76715 67235
L76715 67544
L76743 67601
L76799 67629
L76884 67629
L76940 67601
L76968 67573
" />
<path d="M77221 67601
L77277 67629
L77390 67629
L77446 67601
L77474 67544
L77474 67516
L77446 67460
L77390 67432
L77305 67432
L77249 67404
L77221 67348
L77221 67320
L77249 67263
L77305 67235
L77390 67235
L77446 67263
" />
<path d="M77952 67601
L77896 67629
L77784 67629
L77727 67601
L77699 67544
L77699 67320
L77727 67263
L77784 67235
L77896 67235
L77952 67263
L77980 67320
L77980 67376
L77699 67432
" />
<path d="M78627 67235
L78740 67629
L78852 67348
L78965 67629
L79077 67235
" />
<path d="M79302 67629
L79302 67235
" />
<path d="M79302 67038
L79274 67066
L79302 67095
L79330 67066
L79302 67038
L79302 67095
" />
<path d="M79499 67235
L79724 67235
" />
<path d="M79583 67038
L79583 67544
L79611 67601
L79668 67629
L79724 67629
" />
<path d="M79921 67629
L79921 67038
" />
<path d="M80174 67629
L80174 67320
L80146 67263
L80089 67235
L80005 67235
L79949 67263
L79921 67291
" />
<path d="M80821 67038
L81158 67038
" />
<path d="M80989 67629
L80989 67038
" />
<path d="M81355 67629
L81355 67038
" />
<path d="M82086 67629
L82086 67038
L82311 67038
L82367 67066
L82395 67095
L82424 67151
L82424 67235
L82395 67291
L82367 67320
L82311 67348
L82086 67348
" />
<path d="M83014 67573
L82986 67601
L82902 67629
L82845 67629
L82761 67601
L82705 67544
L82677 67488
L82649 67376
L82649 67291
L82677 67179
L82705 67123
L82761 67066
L82845 67038
L82902 67038
L82986 67066
L83014 67095
" />
<path d="M83267 67629
L83267 67038
L83464 67460
L83661 67038
L83661 67629
" />
<path d="M84195 67235
L84195 67629
" />
<path d="M84055 67010
L83914 67432
L84280 67432
" />
<path d="M84476 67095
L84505 67066
L84561 67038
L84701 67038
L84758 67066
L84786 67095
L84814 67151
L84814 67207
L84786 67291
L84448 67629
L84814 67629
" />
<path d="M85039 67095
L85067 67066
L85123 67038
L85264 67038
L85320 67066
L85348 67095
L85376 67151
L85376 67207
L85348 67291
L85011 67629
L85376 67629
" />
<path d="M85601 67095
L85629 67066
L85686 67038
L85826 67038
L85883 67066
L85911 67095
L85939 67151
L85939 67207
L85911 67291
L85573 67629
L85939 67629
" />
<path d="M86192 67320
L86389 67320
" />
<path d="M86473 67629
L86192 67629
L86192 67038
L86473 67038
" />
<path d="M86642 67038
L86839 67629
L87035 67038
" />
<path d="M87232 67629
L87232 67038
L87429 67460
L87626 67038
L87626 67629
" />
<path d="M88329 67460
L88610 67460
" />
<path d="M88273 67629
L88470 67038
L88667 67629
" />
<path d="M88863 67629
L88863 67038
L89004 67038
L89088 67066
L89145 67123
L89173 67179
L89201 67291
L89201 67376
L89173 67488
L89145 67544
L89088 67601
L89004 67629
L88863 67629
" />
<path d="M89791 67573
L89763 67601
L89679 67629
L89623 67629
L89538 67601
L89482 67544
L89454 67488
L89426 67376
L89426 67291
L89454 67179
L89482 67123
L89538 67066
L89623 67038
L89679 67038
L89763 67066
L89791 67095
" />
<path d="M90494 67629
L90494 67038
" />
<path d="M90494 67263
L90551 67235
L90663 67235
L90719 67263
L90748 67291
L90776 67348
L90776 67516
L90748 67573
L90719 67601
L90663 67629
L90551 67629
L90494 67601
" />
<path d="M91113 67629
L91057 67601
L91029 67573
L91001 67516
L91001 67348
L91029 67291
L91057 67263
L91113 67235
L91197 67235
L91254 67263
L91282 67291
L91310 67348
L91310 67516
L91282 67573
L91254 67601
L91197 67629
L91113 67629
" />
<path d="M91816 67629
L91816 67320
L91788 67263
L91732 67235
L91619 67235
L91563 67263
" />
<path d="M91816 67601
L91760 67629
L91619 67629
L91563 67601
L91535 67544
L91535 67488
L91563 67432
L91619 67404
L91760 67404
L91816 67376
" />
<path d="M92097 67629
L92097 67235
" />
<path d="M92097 67348
L92125 67291
L92154 67263
L92210 67235
L92266 67235
" />
<path d="M92716 67629
L92716 67038
" />
<path d="M92716 67601
L92660 67629
L92547 67629
L92491 67601
L92463 67573
L92435 67516
L92435 67348
L92463 67291
L92491 67263
L92547 67235
L92660 67235
L92716 67263
" />
<path d="M92997 67573
L93025 67601
L92997 67629
L92969 67601
L92997 67573
L92997 67629
" />
<path d="M70556 68180
L70697 68574
L70838 68180
" />
<path d="M71372 68574
L71034 68574
" />
<path d="M71203 68574
L71203 67983
L71147 68068
L71091 68124
L71034 68152
" />
<path d="M71625 68517
L71653 68546
L71625 68574
L71597 68546
L71625 68517
L71625 68574
" />
<path d="M72019 67983
L72075 67983
L72131 68011
L72159 68039
L72187 68096
L72215 68208
L72215 68349
L72187 68461
L72159 68517
L72131 68546
L72075 68574
L72019 68574
L71962 68546
L71934 68517
L71906 68461
L71878 68349
L71878 68208
L71906 68096
L71934 68039
L71962 68011
L72019 67983
" />
<path d="M73087 68799
L73059 68771
L73003 68686
L72975 68630
L72947 68546
L72919 68405
L72919 68293
L72947 68152
L72975 68068
L73003 68011
L73059 67927
L73087 67899
" />
<path d="M73650 68517
L73622 68546
L73537 68574
L73481 68574
L73397 68546
L73340 68489
L73312 68433
L73284 68321
L73284 68236
L73312 68124
L73340 68068
L73397 68011
L73481 67983
L73537 67983
L73622 68011
L73650 68039
" />
<path d="M73847 68799
L73875 68771
L73931 68686
L73959 68630
L73987 68546
L74015 68405
L74015 68293
L73987 68152
L73959 68068
L73931 68011
L73875 67927
L73847 67899
" />
<path d="M74746 68574
L74746 67983
L74943 68405
L75140 67983
L75140 68574
" />
<path d="M75674 68574
L75674 68264
L75646 68208
L75590 68180
L75478 68180
L75421 68208
" />
<path d="M75674 68546
L75618 68574
L75478 68574
L75421 68546
L75393 68489
L75393 68433
L75421 68377
L75478 68349
L75618 68349
L75674 68321
" />
<path d="M75956 68574
L75956 68180
" />
<path d="M75956 68293
L75984 68236
L76012 68208
L76068 68180
L76124 68180
" />
<path d="M76321 68574
L76321 67983
" />
<path d="M76377 68349
L76546 68574
" />
<path d="M76546 68180
L76321 68405
" />
<path d="M77249 68574
L77249 67983
L77474 67983
L77530 68011
L77559 68039
L77587 68096
L77587 68180
L77559 68236
L77530 68264
L77474 68293
L77249 68293
" />
<path d="M77840 68574
L77840 68180
" />
<path d="M77840 67983
L77812 68011
L77840 68039
L77868 68011
L77840 67983
L77840 68039
" />
<path d="M78121 68180
L78121 68574
" />
<path d="M78121 68236
L78149 68208
L78205 68180
L78290 68180
L78346 68208
L78374 68264
L78374 68574
" />
<path d="M78880 68546
L78824 68574
L78712 68574
L78655 68546
L78627 68489
L78627 68264
L78655 68208
L78712 68180
L78824 68180
L78880 68208
L78908 68264
L78908 68321
L78627 68377
" />
<path d="M79133 68546
L79190 68574
L79302 68574
L79358 68546
L79386 68489
L79386 68461
L79358 68405
L79302 68377
L79218 68377
L79161 68349
L79133 68293
L79133 68264
L79161 68208
L79218 68180
L79302 68180
L79358 68208
" />
<path d="M79865 68546
L79808 68574
L79696 68574
L79640 68546
L79611 68489
L79611 68264
L79640 68208
L79696 68180
L79808 68180
L79865 68208
L79893 68264
L79893 68321
L79611 68377
" />
<path d="M80568 68039
L80596 68011
L80652 67983
L80793 67983
L80849 68011
L80877 68039
L80905 68096
L80905 68152
L80877 68236
L80539 68574
L80905 68574
" />
<path d="M81271 67983
L81327 67983
L81383 68011
L81411 68039
L81439 68096
L81467 68208
L81467 68349
L81439 68461
L81411 68517
L81383 68546
L81327 68574
L81271 68574
L81214 68546
L81186 68517
L81158 68461
L81130 68349
L81130 68208
L81158 68096
L81186 68039
L81214 68011
L81271 67983
" />
<path d="M82030 68574
L81692 68574
" />
<path d="M81861 68574
L81861 67983
L81805 68068
L81749 68124
L81692 68152
" />
<path d="M82536 68180
L82536 68574
" />
<path d="M82395 67955
L82255 68377
L82620 68377
" />
<path d="M70613 69519
L70613 68928
L70753 68928
L70838 68956
L70894 69012
L70922 69069
L70950 69181
L70950 69266
L70922 69378
L70894 69434
L70838 69491
L70753 69519
L70613 69519
" />
<path d="M71428 69491
L71372 69519
L71259 69519
L71203 69491
L71175 69434
L71175 69209
L71203 69153
L71259 69125
L71372 69125
L71428 69153
L71456 69209
L71456 69266
L71175 69322
" />
<path d="M71681 69491
L71737 69519
L71850 69519
L71906 69491
L71934 69434
L71934 69406
L71906 69350
L71850 69322
L71766 69322
L71709 69294
L71681 69237
L71681 69209
L71709 69153
L71766 69125
L71850 69125
L71906 69153
" />
<path d="M72187 69519
L72187 69125
" />
<path d="M72187 68928
L72159 68956
L72187 68984
L72215 68956
L72187 68928
L72187 68984
" />
<path d="M72722 69125
L72722 69603
L72694 69659
L72665 69687
L72609 69715
L72525 69715
L72469 69687
" />
<path d="M72722 69491
L72665 69519
L72553 69519
L72497 69491
L72469 69462
L72440 69406
L72440 69237
L72469 69181
L72497 69153
L72553 69125
L72665 69125
L72722 69153
" />
<path d="M73003 69125
L73003 69519
" />
<path d="M73003 69181
L73031 69153
L73087 69125
L73172 69125
L73228 69153
L73256 69209
L73256 69519
" />
<path d="M74071 69519
L74015 69491
L73987 69434
L73987 68928
" />
<path d="M74296 69519
L74296 69125
" />
<path d="M74296 68928
L74268 68956
L74296 68984
L74325 68956
L74296 68928
L74296 68984
" />
<path d="M74831 69491
L74775 69519
L74662 69519
L74606 69491
L74578 69462
L74550 69406
L74550 69237
L74578 69181
L74606 69153
L74662 69125
L74775 69125
L74831 69153
" />
<path d="M75309 69491
L75253 69519
L75140 69519
L75084 69491
L75056 69434
L75056 69209
L75084 69153
L75140 69125
L75253 69125
L75309 69153
L75337 69209
L75337 69266
L75056 69322
" />
<path d="M75590 69125
L75590 69519
" />
<path d="M75590 69181
L75618 69153
L75674 69125
L75759 69125
L75815 69153
L75843 69209
L75843 69519
" />
<path d="M76096 69491
L76152 69519
L76265 69519
L76321 69491
L76349 69434
L76349 69406
L76321 69350
L76265 69322
L76181 69322
L76124 69294
L76096 69237
L76096 69209
L76124 69153
L76181 69125
L76265 69125
L76321 69153
" />
<path d="M76827 69491
L76771 69519
L76659 69519
L76602 69491
L76574 69434
L76574 69209
L76602 69153
L76659 69125
L76771 69125
L76827 69153
L76856 69209
L76856 69266
L76574 69322
" />
<path d="M77362 69519
L77362 68928
" />
<path d="M77362 69491
L77305 69519
L77193 69519
L77137 69491
L77109 69462
L77080 69406
L77080 69237
L77109 69181
L77137 69153
L77193 69125
L77305 69125
L77362 69153
" />
<path d="M78346 69125
L78346 69519
" />
<path d="M78093 69125
L78093 69434
L78121 69491
L78177 69519
L78262 69519
L78318 69491
L78346 69462
" />
<path d="M78627 69125
L78627 69519
" />
<path d="M78627 69181
L78655 69153
L78712 69125
L78796 69125
L78852 69153
L78880 69209
L78880 69519
" />
<path d="M79415 69519
L79415 68928
" />
<path d="M79415 69491
L79358 69519
L79246 69519
L79190 69491
L79161 69462
L79133 69406
L79133 69237
L79161 69181
L79190 69153
L79246 69125
L79358 69125
L79415 69153
" />
<path d="M79921 69491
L79865 69519
L79752 69519
L79696 69491
L79668 69434
L79668 69209
L79696 69153
L79752 69125
L79865 69125
L79921 69153
L79949 69209
L79949 69266
L79668 69322
" />
<path d="M80202 69519
L80202 69125
" />
<path d="M80202 69237
L80230 69181
L80258 69153
L80314 69125
L80371 69125
" />
<path d="M81355 69462
L81327 69491
L81242 69519
L81186 69519
L81102 69491
L81046 69434
L81017 69378
L80989 69266
L80989 69181
L81017 69069
L81046 69012
L81102 68956
L81186 68928
L81242 68928
L81327 68956
L81355 68984
" />
<path d="M81608 69519
L81608 69125
" />
<path d="M81608 69237
L81636 69181
L81664 69153
L81721 69125
L81777 69125
" />
<path d="M82199 69491
L82142 69519
L82030 69519
L81974 69491
L81946 69434
L81946 69209
L81974 69153
L82030 69125
L82142 69125
L82199 69153
L82227 69209
L82227 69266
L81946 69322
" />
<path d="M82733 69519
L82733 69209
L82705 69153
L82649 69125
L82536 69125
L82480 69153
" />
<path d="M82733 69491
L82677 69519
L82536 69519
L82480 69491
L82452 69434
L82452 69378
L82480 69322
L82536 69294
L82677 69294
L82733 69266
" />
<path d="M82930 69125
L83155 69125
" />
<path d="M83014 68928
L83014 69434
L83042 69491
L83098 69519
L83155 69519
" />
<path d="M83352 69519
L83352 69125
" />
<path d="M83352 68928
L83323 68956
L83352 68984
L83380 68956
L83352 68928
L83352 68984
" />
<path d="M83577 69125
L83717 69519
L83858 69125
" />
<path d="M84308 69491
L84251 69519
L84139 69519
L84083 69491
L84055 69434
L84055 69209
L84083 69153
L84139 69125
L84251 69125
L84308 69153
L84336 69209
L84336 69266
L84055 69322
" />
<path d="M85376 69462
L85348 69491
L85264 69519
L85208 69519
L85123 69491
L85067 69434
L85039 69378
L85011 69266
L85011 69181
L85039 69069
L85067 69012
L85123 68956
L85208 68928
L85264 68928
L85348 68956
L85376 68984
" />
<path d="M85714 69519
L85658 69491
L85629 69462
L85601 69406
L85601 69237
L85629 69181
L85658 69153
L85714 69125
L85798 69125
L85854 69153
L85883 69181
L85911 69237
L85911 69406
L85883 69462
L85854 69491
L85798 69519
L85714 69519
" />
<path d="M86164 69519
L86164 69125
" />
<path d="M86164 69181
L86192 69153
L86248 69125
L86332 69125
L86389 69153
L86417 69209
L86417 69519
" />
<path d="M86417 69209
L86445 69153
L86501 69125
L86586 69125
L86642 69153
L86670 69209
L86670 69519
" />
<path d="M86951 69519
L86951 69125
" />
<path d="M86951 69181
L86979 69153
L87035 69125
L87120 69125
L87176 69153
L87204 69209
L87204 69519
" />
<path d="M87204 69209
L87232 69153
L87289 69125
L87373 69125
L87429 69153
L87457 69209
L87457 69519
" />
<path d="M87823 69519
L87767 69491
L87739 69462
L87710 69406
L87710 69237
L87739 69181
L87767 69153
L87823 69125
L87907 69125
L87964 69153
L87992 69181
L88020 69237
L88020 69406
L87992 69462
L87964 69491
L87907 69519
L87823 69519
" />
<path d="M88273 69125
L88273 69519
" />
<path d="M88273 69181
L88301 69153
L88357 69125
L88442 69125
L88498 69153
L88526 69209
L88526 69519
" />
<path d="M88779 69491
L88835 69519
L88948 69519
L89004 69491
L89032 69434
L89032 69406
L89004 69350
L88948 69322
L88863 69322
L88807 69294
L88779 69237
L88779 69209
L88807 69153
L88863 69125
L88948 69125
L89004 69153
" />
<path d="M89932 69209
L90016 69237
L90044 69266
L90073 69322
L90073 69406
L90044 69462
L90016 69491
L89960 69519
L89735 69519
L89735 68928
L89932 68928
L89988 68956
L90016 68984
L90044 69041
L90044 69097
L90016 69153
L89988 69181
L89932 69209
L89735 69209
" />
<path d="M90438 69237
L90438 69519
" />
<path d="M90241 68928
L90438 69237
L90635 68928
" />
<path d="M90832 69294
L91282 69294
" />
<path d="M91535 69491
L91619 69519
L91760 69519
L91816 69491
L91844 69462
L91872 69406
L91872 69350
L91844 69294
L91816 69266
L91760 69237
L91647 69209
L91591 69181
L91563 69153
L91535 69097
L91535 69041
L91563 68984
L91591 68956
L91647 68928
L91788 68928
L91872 68956
" />
<path d="M92097 69350
L92379 69350
" />
<path d="M92041 69519
L92238 68928
L92435 69519
" />
<path d="M93025 69125
L93166 69519
L93307 69125
" />
<path d="M93785 69125
L93785 69519
" />
<path d="M93644 68900
L93503 69322
L93869 69322
" />
<path d="M94094 69462
L94122 69491
L94094 69519
L94066 69491
L94094 69462
L94094 69519
" />
<path d="M94488 68928
L94544 68928
L94600 68956
L94628 68984
L94656 69041
L94685 69153
L94685 69294
L94656 69406
L94628 69462
L94600 69491
L94544 69519
L94488 69519
L94431 69491
L94403 69462
L94375 69406
L94347 69294
L94347 69153
L94375 69041
L94403 68984
L94431 68956
L94488 68928
" />
<path d="M70613 70464
L70613 69873
" />
<path d="M70866 70464
L70866 70154
L70838 70098
L70781 70070
L70697 70070
L70641 70098
L70613 70126
" />
<path d="M71062 70070
L71287 70070
" />
<path d="M71147 69873
L71147 70379
L71175 70435
L71231 70464
L71287 70464
" />
<path d="M71400 70070
L71625 70070
" />
<path d="M71484 69873
L71484 70379
L71512 70435
L71569 70464
L71625 70464
" />
<path d="M71822 70070
L71822 70660
" />
<path d="M71822 70098
L71878 70070
L71991 70070
L72047 70098
L72075 70126
L72103 70182
L72103 70351
L72075 70407
L72047 70435
L71991 70464
L71878 70464
L71822 70435
" />
<path d="M72356 70407
L72384 70435
L72356 70464
L72328 70435
L72356 70407
L72356 70464
" />
<path d="M72356 70098
L72384 70126
L72356 70154
L72328 70126
L72356 70098
L72356 70154
" />
<path d="M73059 69845
L72553 70604
" />
<path d="M73678 69845
L73172 70604
" />
<path d="M74128 70435
L74071 70464
L73959 70464
L73903 70435
L73875 70407
L73847 70351
L73847 70182
L73875 70126
L73903 70098
L73959 70070
L74071 70070
L74128 70098
" />
<path d="M74381 70464
L74381 70070
" />
<path d="M74381 70182
L74409 70126
L74437 70098
L74493 70070
L74550 70070
" />
<path d="M74971 70435
L74915 70464
L74803 70464
L74746 70435
L74718 70379
L74718 70154
L74746 70098
L74803 70070
L74915 70070
L74971 70098
L75000 70154
L75000 70210
L74718 70267
" />
<path d="M75506 70464
L75506 70154
L75478 70098
L75421 70070
L75309 70070
L75253 70098
" />
<path d="M75506 70435
L75449 70464
L75309 70464
L75253 70435
L75224 70379
L75224 70323
L75253 70267
L75309 70239
L75449 70239
L75506 70210
" />
<path d="M75703 70070
L75928 70070
" />
<path d="M75787 69873
L75787 70379
L75815 70435
L75871 70464
L75928 70464
" />
<path d="M76124 70464
L76124 70070
" />
<path d="M76124 69873
L76096 69901
L76124 69929
L76152 69901
L76124 69873
L76124 69929
" />
<path d="M76349 70070
L76490 70464
L76631 70070
" />
<path d="M77080 70435
L77024 70464
L76912 70464
L76856 70435
L76827 70379
L76827 70154
L76856 70098
L76912 70070
L77024 70070
L77080 70098
L77109 70154
L77109 70210
L76827 70267
" />
<path d="M77615 70435
L77559 70464
L77446 70464
L77390 70435
L77362 70407
L77334 70351
L77334 70182
L77362 70126
L77390 70098
L77446 70070
L77559 70070
L77615 70098
" />
<path d="M77952 70464
L77896 70435
L77868 70407
L77840 70351
L77840 70182
L77868 70126
L77896 70098
L77952 70070
L78037 70070
L78093 70098
L78121 70126
L78149 70182
L78149 70351
L78121 70407
L78093 70435
L78037 70464
L77952 70464
" />
<path d="M78402 70464
L78402 70070
" />
<path d="M78402 70126
L78430 70098
L78487 70070
L78571 70070
L78627 70098
L78655 70154
L78655 70464
" />
<path d="M78655 70154
L78683 70098
L78740 70070
L78824 70070
L78880 70098
L78908 70154
L78908 70464
" />
<path d="M79190 70464
L79190 70070
" />
<path d="M79190 70126
L79218 70098
L79274 70070
L79358 70070
L79415 70098
L79443 70154
L79443 70464
" />
<path d="M79443 70154
L79471 70098
L79527 70070
L79611 70070
L79668 70098
L79696 70154
L79696 70464
" />
<path d="M80061 70464
L80005 70435
L79977 70407
L79949 70351
L79949 70182
L79977 70126
L80005 70098
L80061 70070
L80146 70070
L80202 70098
L80230 70126
L80258 70182
L80258 70351
L80230 70407
L80202 70435
L80146 70464
L80061 70464
" />
<path d="M80511 70070
L80511 70464
" />
<path d="M80511 70126
L80539 70098
L80596 70070
L80680 70070
L80736 70098
L80764 70154
L80764 70464
" />
<path d="M81017 70435
L81074 70464
L81186 70464
L81242 70435
L81271 70379
L81271 70351
L81242 70295
L81186 70267
L81102 70267
L81046 70239
L81017 70182
L81017 70154
L81046 70098
L81102 70070
L81186 70070
L81242 70098
" />
<path d="M81524 70407
L81552 70435
L81524 70464
L81496 70435
L81524 70407
L81524 70464
" />
<path d="M81889 70464
L81833 70435
L81805 70407
L81777 70351
L81777 70182
L81805 70126
L81833 70098
L81889 70070
L81974 70070
L82030 70098
L82058 70126
L82086 70182
L82086 70351
L82058 70407
L82030 70435
L81974 70464
L81889 70464
" />
<path d="M82339 70464
L82339 70070
" />
<path d="M82339 70182
L82367 70126
L82395 70098
L82452 70070
L82508 70070
" />
<path d="M82958 70070
L82958 70548
L82930 70604
L82902 70632
L82845 70660
L82761 70660
L82705 70632
" />
<path d="M82958 70435
L82902 70464
L82789 70464
L82733 70435
L82705 70407
L82677 70351
L82677 70182
L82705 70126
L82733 70098
L82789 70070
L82902 70070
L82958 70098
" />
<path d="M83661 69845
L83155 70604
" />
<path d="M83942 70464
L83886 70435
L83858 70379
L83858 69873
" />
<path d="M84167 70464
L84167 70070
" />
<path d="M84167 69873
L84139 69901
L84167 69929
L84195 69901
L84167 69873
L84167 69929
" />
<path d="M84701 70435
L84645 70464
L84533 70464
L84476 70435
L84448 70407
L84420 70351
L84420 70182
L84448 70126
L84476 70098
L84533 70070
L84645 70070
L84701 70098
" />
<path d="M85179 70435
L85123 70464
L85011 70464
L84955 70435
L84926 70379
L84926 70154
L84955 70098
L85011 70070
L85123 70070
L85179 70098
L85208 70154
L85208 70210
L84926 70267
" />
<path d="M85461 70070
L85461 70464
" />
<path d="M85461 70126
L85489 70098
L85545 70070
L85629 70070
L85686 70098
L85714 70154
L85714 70464
" />
<path d="M85967 70435
L86023 70464
L86136 70464
L86192 70435
L86220 70379
L86220 70351
L86192 70295
L86136 70267
L86051 70267
L85995 70239
L85967 70182
L85967 70154
L85995 70098
L86051 70070
L86136 70070
L86192 70098
" />
<path d="M86698 70435
L86642 70464
L86529 70464
L86473 70435
L86445 70379
L86445 70154
L86473 70098
L86529 70070
L86642 70070
L86698 70098
L86726 70154
L86726 70210
L86445 70267
" />
<path d="M86951 70435
L87007 70464
L87120 70464
L87176 70435
L87204 70379
L87204 70351
L87176 70295
L87120 70267
L87035 70267
L86979 70239
L86951 70182
L86951 70154
L86979 70098
L87035 70070
L87120 70070
L87176 70098
" />
<path d="M87879 69845
L87373 70604
" />
<path d="M88076 70464
L88076 69873
" />
<path d="M88076 70098
L88132 70070
L88245 70070
L88301 70098
L88329 70126
L88357 70182
L88357 70351
L88329 70407
L88301 70435
L88245 70464
L88132 70464
L88076 70435
" />
<path d="M88554 70070
L88695 70464
" />
<path d="M88835 70070
L88695 70464
L88638 70604
L88610 70632
L88554 70660
" />
<path d="M89060 70239
L89510 70239
" />
<path d="M89763 70435
L89820 70464
L89932 70464
L89988 70435
L90016 70379
L90016 70351
L89988 70295
L89932 70267
L89848 70267
L89791 70239
L89763 70182
L89763 70154
L89791 70098
L89848 70070
L89932 70070
L89988 70098
" />
<path d="M90523 70464
L90523 70154
L90494 70098
L90438 70070
L90326 70070
L90269 70098
" />
<path d="M90523 70435
L90466 70464
L90326 70464
L90269 70435
L90241 70379
L90241 70323
L90269 70267
L90326 70239
L90466 70239
L90523 70210
" />
<path d="M91226 69845
L90719 70604
" />
<path d="M91676 70070
L91676 70464
" />
<path d="M91535 69845
L91394 70267
L91760 70267
" />
<path d="M91985 70407
L92013 70435
L91985 70464
L91957 70435
L91985 70407
L91985 70464
" />
<path d="M92379 69873
L92435 69873
L92491 69901
L92519 69929
L92547 69985
L92575 70098
L92575 70239
L92547 70351
L92519 70407
L92491 70435
L92435 70464
L92379 70464
L92322 70435
L92294 70407
L92266 70351
L92238 70239
L92238 70098
L92266 69985
L92294 69929
L92322 69901
L92379 69873
" />
<path d="M93250 69845
L92744 70604
" />
<path d="M73368 74873
L73368 74282
L73593 74282
L73650 74311
L73678 74339
L73706 74395
L73706 74479
L73678 74535
L73650 74564
L73593 74592
L73368 74592
" />
<path d="M74296 74817
L74268 74845
L74184 74873
L74128 74873
L74043 74845
L73987 74789
L73959 74732
L73931 74620
L73931 74535
L73959 74423
L73987 74367
L74043 74311
L74128 74282
L74184 74282
L74268 74311
L74296 74339
" />
<path d="M74550 74873
L74550 74282
L74746 74704
L74943 74282
L74943 74873
" />
<path d="M75478 74479
L75478 74873
" />
<path d="M75337 74254
L75196 74676
L75562 74676
" />
<path d="M75759 74339
L75787 74311
L75843 74282
L75984 74282
L76040 74311
L76068 74339
L76096 74395
L76096 74451
L76068 74535
L75731 74873
L76096 74873
" />
<path d="M76321 74339
L76349 74311
L76406 74282
L76546 74282
L76602 74311
L76631 74339
L76659 74395
L76659 74451
L76631 74535
L76293 74873
L76659 74873
" />
<path d="M76884 74339
L76912 74311
L76968 74282
L77109 74282
L77165 74311
L77193 74339
L77221 74395
L77221 74451
L77193 74535
L76856 74873
L77221 74873
" />
<path d="M77474 74564
L77671 74564
" />
<path d="M77755 74873
L77474 74873
L77474 74282
L77755 74282
" />
<path d="M77924 74282
L78121 74873
L78318 74282
" />
<path d="M78515 74873
L78515 74282
L78712 74704
L78908 74282
L78908 74873
" />
<path d="M79611 74704
L79893 74704
" />
<path d="M79555 74873
L79752 74282
L79949 74873
" />
<path d="M80146 74873
L80146 74282
L80286 74282
L80371 74311
L80427 74367
L80455 74423
L80483 74535
L80483 74620
L80455 74732
L80427 74789
L80371 74845
L80286 74873
L80146 74873
" />
<path d="M81074 74817
L81046 74845
L80961 74873
L80905 74873
L80821 74845
L80764 74789
L80736 74732
L80708 74620
L80708 74535
L80736 74423
L80764 74367
L80821 74311
L80905 74282
L80961 74282
L81046 74311
L81074 74339
" />
<path d="M81636 74873
L81299 74873
" />
<path d="M81467 74873
L81467 74282
L81411 74367
L81355 74423
L81299 74451
" />
<path d="M81889 74817
L81917 74845
L81889 74873
L81861 74845
L81889 74817
L81889 74873
" />
<path d="M81889 74507
L81917 74535
L81889 74564
L81861 74535
L81889 74507
L81889 74564
" />
<path d="M82620 74873
L82620 74282
L82845 74282
L82902 74311
L82930 74339
L82958 74395
L82958 74479
L82930 74535
L82902 74564
L82845 74592
L82620 74592
" />
<path d="M83295 74873
L83239 74845
L83211 74817
L83183 74760
L83183 74592
L83211 74535
L83239 74507
L83295 74479
L83380 74479
L83436 74507
L83464 74535
L83492 74592
L83492 74760
L83464 74817
L83436 74845
L83380 74873
L83295 74873
" />
<path d="M83689 74479
L83802 74873
L83914 74592
L84026 74873
L84139 74479
" />
<path d="M84589 74845
L84533 74873
L84420 74873
L84364 74845
L84336 74789
L84336 74564
L84364 74507
L84420 74479
L84533 74479
L84589 74507
L84617 74564
L84617 74620
L84336 74676
" />
<path d="M84870 74873
L84870 74479
" />
<path d="M84870 74592
L84898 74535
L84926 74507
L84983 74479
L85039 74479
" />
<path d="M85658 74845
L85714 74873
L85826 74873
L85883 74845
L85911 74789
L85911 74760
L85883 74704
L85826 74676
L85742 74676
L85686 74648
L85658 74592
L85658 74564
L85686 74507
L85742 74479
L85826 74479
L85883 74507
" />
<path d="M86417 74479
L86417 74873
" />
<path d="M86164 74479
L86164 74789
L86192 74845
L86248 74873
L86332 74873
L86389 74845
L86417 74817
" />
<path d="M86698 74479
L86698 75070
" />
<path d="M86698 74507
L86754 74479
L86867 74479
L86923 74507
L86951 74535
L86979 74592
L86979 74760
L86951 74817
L86923 74845
L86867 74873
L86754 74873
L86698 74845
" />
<path d="M87232 74479
L87232 75070
" />
<path d="M87232 74507
L87289 74479
L87401 74479
L87457 74507
L87485 74535
L87514 74592
L87514 74760
L87485 74817
L87457 74845
L87401 74873
L87289 74873
L87232 74845
" />
<path d="M87851 74873
L87795 74845
L87767 74789
L87767 74282
" />
<path d="M88020 74479
L88160 74873
" />
<path d="M88301 74479
L88160 74873
L88104 75014
L88076 75042
L88020 75070
" />
<path d="M89229 74873
L89229 74564
L89201 74507
L89145 74479
L89032 74479
L88976 74507
" />
<path d="M89229 74845
L89173 74873
L89032 74873
L88976 74845
L88948 74789
L88948 74732
L88976 74676
L89032 74648
L89173 74648
L89229 74620
" />
<path d="M89510 74479
L89510 74873
" />
<path d="M89510 74535
L89538 74507
L89595 74479
L89679 74479
L89735 74507
L89763 74564
L89763 74873
" />
<path d="M90298 74873
L90298 74282
" />
<path d="M90298 74845
L90241 74873
L90129 74873
L90073 74845
L90044 74817
L90016 74760
L90016 74592
L90044 74535
L90073 74507
L90129 74479
L90241 74479
L90298 74507
" />
<path d="M91001 74845
L91057 74873
L91169 74873
L91226 74845
L91254 74789
L91254 74760
L91226 74704
L91169 74676
L91085 74676
L91029 74648
L91001 74592
L91001 74564
L91029 74507
L91085 74479
L91169 74479
L91226 74507
" />
<path d="M91507 74873
L91507 74479
" />
<path d="M91507 74282
L91479 74311
L91507 74339
L91535 74311
L91507 74282
L91507 74339
" />
<path d="M92041 74479
L92041 74957
L92013 75014
L91985 75042
L91929 75070
L91844 75070
L91788 75042
" />
<path d="M92041 74845
L91985 74873
L91872 74873
L91816 74845
L91788 74817
L91760 74760
L91760 74592
L91788 74535
L91816 74507
L91872 74479
L91985 74479
L92041 74507
" />
<path d="M92322 74479
L92322 74873
" />
<path d="M92322 74535
L92350 74507
L92407 74479
L92491 74479
L92547 74507
L92575 74564
L92575 74873
" />
<path d="M93110 74873
L93110 74564
L93082 74507
L93025 74479
L92913 74479
L92857 74507
" />
<path d="M93110 74845
L93053 74873
L92913 74873
L92857 74845
L92829 74789
L92829 74732
L92857 74676
L92913 74648
L93053 74648
L93110 74620
" />
<path d="M93475 74873
L93419 74845
L93391 74789
L93391 74282
" />
<path d="M94403 74845
L94347 74873
L94235 74873
L94178 74845
L94150 74817
L94122 74760
L94122 74592
L94150 74535
L94178 74507
L94235 74479
L94347 74479
L94403 74507
" />
<path d="M94656 74873
L94656 74479
" />
<path d="M94656 74282
L94628 74311
L94656 74339
L94685 74311
L94656 74282
L94656 74339
" />
<path d="M94938 74873
L94938 74479
" />
<path d="M94938 74592
L94966 74535
L94994 74507
L95050 74479
L95106 74479
" />
<path d="M95556 74845
L95500 74873
L95388 74873
L95331 74845
L95303 74817
L95275 74760
L95275 74592
L95303 74535
L95331 74507
L95388 74479
L95500 74479
L95556 74507
" />
<path d="M96062 74479
L96062 74873
" />
<path d="M95809 74479
L95809 74789
L95838 74845
L95894 74873
L95978 74873
L96034 74845
L96062 74817
" />
<path d="M96344 74873
L96344 74479
" />
<path d="M96344 74282
L96316 74311
L96344 74339
L96372 74311
L96344 74282
L96344 74339
" />
<path d="M96541 74479
L96766 74479
" />
<path d="M96625 74282
L96625 74789
L96653 74845
L96709 74873
L96766 74873
" />
<path d="M96962 74873
L96962 74479
" />
<path d="M96962 74592
L96991 74535
L97019 74507
L97075 74479
L97131 74479
" />
<path d="M97272 74479
L97412 74873
" />
<path d="M97553 74479
L97412 74873
L97356 75014
L97328 75042
L97272 75070
" />
<path d="M106158 76251
L105821 76251
" />
<path d="M105989 76251
L105989 75660
L105933 75745
L105877 75801
L105821 75829
" />
<path d="M106411 76195
L106439 76223
L106411 76251
L106383 76223
L106411 76195
L106411 76251
" />
<path d="M106805 75660
L106861 75660
L106917 75688
L106946 75717
L106974 75773
L107002 75885
L107002 76026
L106974 76138
L106946 76195
L106917 76223
L106861 76251
L106805 76251
L106749 76223
L106721 76195
L106692 76138
L106664 76026
L106664 75885
L106692 75773
L106721 75717
L106749 75688
L106805 75660
" />
<path d="M81383 75660
L81749 75660
L81552 75885
L81636 75885
L81692 75913
L81721 75942
L81749 75998
L81749 76138
L81721 76195
L81692 76223
L81636 76251
L81467 76251
L81411 76223
L81383 76195
" />
<path d="M82620 75660
L82620 76082
L82592 76167
L82536 76223
L82452 76251
L82395 76251
" />
<path d="M83155 75857
L83155 76251
" />
<path d="M82902 75857
L82902 76167
L82930 76223
L82986 76251
L83070 76251
L83127 76223
L83155 76195
" />
<path d="M83436 75857
L83436 76251
" />
<path d="M83436 75913
L83464 75885
L83520 75857
L83605 75857
L83661 75885
L83689 75942
L83689 76251
" />
<path d="M84195 76223
L84139 76251
L84026 76251
L83970 76223
L83942 76167
L83942 75942
L83970 75885
L84026 75857
L84139 75857
L84195 75885
L84223 75942
L84223 75998
L83942 76054
" />
<path d="M84898 75717
L84926 75688
L84983 75660
L85123 75660
L85179 75688
L85208 75717
L85236 75773
L85236 75829
L85208 75913
L84870 76251
L85236 76251
" />
<path d="M85601 75660
L85658 75660
L85714 75688
L85742 75717
L85770 75773
L85798 75885
L85798 76026
L85770 76138
L85742 76195
L85714 76223
L85658 76251
L85601 76251
L85545 76223
L85517 76195
L85489 76138
L85461 76026
L85461 75885
L85489 75773
L85517 75717
L85545 75688
L85601 75660
" />
<path d="M86361 76251
L86023 76251
" />
<path d="M86192 76251
L86192 75660
L86136 75745
L86079 75801
L86023 75829
" />
<path d="M86867 75857
L86867 76251
" />
<path d="M86726 75632
L86586 76054
L86951 76054
" />
</g> 
</svg>
